<?xml version="1.0" encoding="UTF-8"?>
<svg width="124px" height="123px" viewBox="0 0 124 123" version="1.1" xmlns="http://www.w3.org/2000/svg" xmlns:xlink="http://www.w3.org/1999/xlink">
    <!-- Generator: Sketch 64 (93537) - https://sketch.com -->
    <title>decoration</title>
    <desc>Created with Sketch.</desc>
    <g id="Page-1" stroke="none" stroke-width="1" fill="none" fill-rule="evenodd">
        <g id="decoration" fill="#FFFFFF" fill-rule="nonzero">
            <path d="M122.451777,56.1532836 L120.159491,56.1532836 C119.711863,47.7902183 114.039265,40.7767821 106.279343,38.2109664 L108.887056,35.6245055 C110.331806,36.609748 112.009962,37.1154602 113.696149,37.1154602 C115.874851,37.1154602 118.053552,36.2926575 119.712147,34.6485534 C125.263979,29.1404297 123.398249,20.6541503 123.315093,20.296051 C123.19565,19.7705383 122.807082,19.3456237 122.291511,19.1767091 C121.951325,19.0678528 113.916892,16.5258729 107.683176,22.7126588 C106.074475,24.3064637 105.18848,26.4257814 105.18848,28.6802309 C105.18848,30.4127337 105.720871,32.0591837 106.691912,33.4547014 L102.728464,37.3859115 C102.592768,37.3664863 102.458867,37.3417121 102.322225,37.3249144 C101.661226,27.3565018 93.5658424,19.365612 83.4284939,18.6495071 C82.6862273,8.24670182 73.8481996,0 63.0644036,0 C52.2806075,0 43.4425798,8.24670182 42.7003134,18.6495071 C32.6144653,19.3619521 24.5472419,27.2747657 23.814425,37.1725159 C22.8975297,37.1903458 21.9991555,37.2760231 21.1153339,37.4093719 L17.1277891,33.454232 C18.0993977,32.058902 18.6315995,30.4125458 18.6315995,28.6802307 C18.6315995,26.4257812 17.7456045,24.3064636 16.1369035,22.7126586 L16.1384155,22.7126586 C9.89865162,16.5258727 1.86875419,19.0678527 1.52856847,19.1767089 C1.01299797,19.3456237 0.624430111,19.7697875 0.504987147,20.2953003 C0.421830671,20.6541503 -1.44541153,29.1411804 4.10944492,34.6485534 C5.76803985,36.2934081 7.94522911,37.1154602 10.1239302,37.1154602 C11.8103069,37.1154602 13.4887459,36.6094665 14.9327403,35.6241302 L17.5886466,38.2584503 C9.89713978,40.8603951 4.28558553,47.8381714 3.84050921,56.1532836 L1.54822347,56.1532836 C0.692467101,56.1532836 0,56.8417053 0,57.6907836 L0,82.8080383 C0,83.6571167 0.692467101,84.3455383 1.54822347,84.3455383 L4.92437882,84.3455383 L4.92437882,94.8069946 L1.54822347,94.8069946 C0.692467101,94.8069946 0,95.4954162 0,96.3444946 L0,121.4625 C0,122.311578 0.692467101,123 1.54822347,123 L122.451777,123 C123.307533,123 124,122.311578 124,121.4625 L124,96.3444946 C124,95.4954162 123.307533,94.8069946 122.451777,94.8069946 L119.006072,94.8069946 L119.006072,84.3455383 L122.451777,84.3455383 C123.307533,84.3455383 124,83.6571167 124,82.8080383 L124,57.6907836 C124,56.8417053 123.307533,56.1532836 122.451777,56.1532836 Z M109.869437,24.8882813 C109.870949,24.8882813 109.870949,24.8882813 109.870949,24.8882813 C112.530446,22.2509583 115.625381,21.6376099 117.928061,21.6376099 C118.96525,21.6376099 119.842173,21.7622315 120.445436,21.8815979 C120.711537,23.9423584 120.953447,29.0706115 117.524374,32.472931 C115.415033,34.5631577 111.98785,34.5655976 109.873784,32.4764969 C109.873217,32.4759338 109.873028,32.4749954 109.872461,32.4744323 C109.871327,32.4733063 109.869626,32.4729308 109.868492,32.4718047 C108.848691,31.4585037 108.284927,30.1121589 108.284927,28.6802306 C108.284927,27.2485839 108.848879,25.90177 109.869437,24.8882813 Z M13.9491306,32.472931 C11.8399785,34.5674744 8.40636964,34.5644715 6.29721753,32.472931 C2.88779968,29.0923828 3.1176141,23.9528687 3.37766719,21.8853516 C5.32504203,21.5114868 10.1193942,21.090326 13.9491306,24.8882813 C13.9491306,24.8882813 13.9491306,24.8882813 13.9506426,24.8882813 C14.9712001,25.90177 15.5351525,27.2485839 15.5351525,28.6802307 C15.5351525,30.1126281 14.9712001,31.4594422 13.9491306,32.472931 Z M117.06295,56.1532836 L82.4915654,56.1532836 C83.0537224,47.2818787 90.5803337,40.2272461 99.7772576,40.2272461 C108.974181,40.2272461 116.500793,47.2818787 117.06295,56.1532836 Z M99.2182188,37.1800232 C90.9471675,37.4013016 83.8886897,42.4528862 80.8886288,49.5722695 C78.148621,43.0699883 72.0221578,38.2954239 64.6793414,37.3450906 C65.3566891,28.5826356 72.8360524,21.6511231 81.9530325,21.6511231 C91.0131258,21.6511231 98.4607384,28.495269 99.2182188,37.1800232 Z M79.2856921,56.1532836 L44.7143079,56.1532836 C45.2764649,47.2818787 52.8030763,40.2272461 62.0000001,40.2272461 C71.1969239,40.2272461 78.7235349,47.2818787 79.2856921,56.1532836 Z M63.0644036,3.075 C72.1427347,3.075 79.6003638,9.94711071 80.3323303,18.6567329 C72.5221363,19.2627616 65.9353829,24.1832496 63.0644036,30.9961464 C60.1934242,24.1832497 53.6066708,19.2627617 45.7964768,18.6567329 C46.5284433,9.94711071 53.9860724,3.075 63.0644036,3.075 Z M44.1757748,21.651123 C53.2358682,21.651123 60.6834808,28.495269 61.4409612,37.1800232 C53.1699098,37.4013016 46.1114321,42.4528862 43.1113712,49.5722695 C40.3713634,43.0699883 34.2449002,38.2954239 26.9020837,37.3450906 C27.5794315,28.5826354 35.0587948,21.651123 44.1757748,21.651123 Z M24.2227424,40.2272461 C33.4196661,40.2272461 40.9462774,47.2818787 41.5084346,56.1532836 L6.93705045,56.1532836 C7.49920745,47.2818787 15.0258188,40.2272461 24.2227424,40.2272461 Z M120.903553,97.8819946 L120.903553,119.925 L3.09644695,119.925 L3.09644695,97.8819946 L120.903553,97.8819946 Z M8.02082577,94.8069946 L8.02082577,84.3455383 L115.909625,84.3455383 L115.909625,94.8069946 L8.02082577,94.8069946 Z M120.903553,81.2705383 L3.09644695,81.2705383 L3.09644695,59.2282836 L120.903553,59.2282836 L120.903553,81.2705383 Z" id="Shape"></path>
        </g>
    </g>
</svg>