<?xml version="1.0" encoding="UTF-8"?>
<svg width="206px" height="45px" viewBox="0 0 206 45" version="1.1" xmlns="http://www.w3.org/2000/svg" xmlns:xlink="http://www.w3.org/1999/xlink">
    <!-- Generator: Sketch 64 (93537) - https://sketch.com -->
    <title>RELAXEDFOODS</title>
    <desc>Created with Sketch.</desc>
    <g id="Page-1" stroke="none" stroke-width="1" fill="none" fill-rule="evenodd">
        <g id="A2-Copy-10" transform="translate(-740.000000, -959.000000)" fill="#1A1919" fill-rule="nonzero">
            <g id="Group" transform="translate(739.000000, 763.000000)">
                <g id="Group-2" transform="translate(0.800000, 195.100000)">
                    <path d="M7.38829787,19.6461103 L7.38829787,12.9942647 L16.7670213,12.9942647 C18.5152482,12.9942647 19.7492908,13.2546274 20.4691489,13.7753527 C21.1890071,14.2960779 21.5489362,15.1359574 21.5489362,16.2949911 L21.5489362,18.4618802 C21.5489362,19.0162007 21.6620567,19.4109441 21.8882979,19.6461103 L29.2,19.6461103 L29.2,19.5201284 C28.9120567,19.0497959 28.7680851,18.2855055 28.7680851,17.2272574 L28.7680851,14.4808514 C28.7680851,13.3554129 28.3618794,12.4231467 27.5494681,11.6840527 C26.7370567,10.9449588 25.6932624,10.4410311 24.4180851,10.1722696 C24.8705674,10.0546865 25.3076241,9.90770758 25.7292553,9.73133288 C26.1508865,9.55495819 26.6033688,9.31139314 27.0867021,9.00063772 C27.5700355,8.68988231 27.9556738,8.27834136 28.243617,7.76601487 C28.5315603,7.25368838 28.6755319,6.68676972 28.6755319,6.06525889 L28.6755319,5.76290227 C28.6755319,2.52096742 25.3539007,0.9 18.7106383,0.9 L0.2,0.9 L0.2,19.6461103 L7.38829787,19.6461103 Z M7.2,9.05048275 L7.2,5.79028965 L18.2559284,5.79028965 C19.2581655,5.79028965 19.9994034,5.93915691 20.4796421,6.23689144 C20.9598807,6.53462597 21.2,6.92168086 21.2,7.39805611 L21.2,7.4203862 C21.2,7.91164817 20.9546607,8.30614642 20.4639821,8.60388095 C19.9733035,8.90161548 19.2372856,9.05048275 18.2559284,9.05048275 L7.2,9.05048275 Z M55.2,19.6461103 L55.2,15.2871357 L38.1521411,15.2871357 L38.1521411,12.2131768 L54.5047859,12.2131768 L54.5047859,7.92979137 L38.1521411,7.92979137 L38.1521411,5.15818904 L54.897733,5.15818904 L54.897733,0.9 L31.2,0.9 L31.2,19.6461103 L55.2,19.6461103 Z M81.2,19.6461103 L81.2,14.9847791 L65.3453333,14.9847791 L65.3453333,0.9 L58.2,0.9 L58.2,19.6461103 L81.2,19.6461103 Z M89.4685874,19.6461103 L91.5234201,16.219402 L105.355204,16.219402 L107.502045,19.6461103 L115.2,19.6461103 L102.99368,0.9 L93.7315985,0.9 L82.2,19.6461103 L89.4685874,19.6461103 Z M103.2,12.3106758 L94.2,12.3106758 L98.6042553,4.97524137 L103.2,12.3106758 Z M123.082012,19.6461103 L130.076209,13.8257454 L137.132302,19.6461103 L146.2,19.6461103 L134.904062,10.0462877 L145.952418,0.9 L137.101354,0.9 L130.602321,6.39281189 L124.103288,0.9 L114.447582,0.9 L125.650677,10.1722696 L114.2,19.6461103 L123.082012,19.6461103 Z M172.2,19.6461103 L172.2,15.2871357 L155.152141,15.2871357 L155.152141,12.2131768 L171.504786,12.2131768 L171.504786,7.92979137 L155.152141,7.92979137 L155.152141,5.15818904 L171.897733,5.15818904 L171.897733,0.9 L148.2,0.9 L148.2,19.6461103 L172.2,19.6461103 Z M190.243222,19.6461103 C192.780878,19.6461103 195.024165,19.4571374 196.973084,19.0791917 C198.922004,18.7012459 200.464898,18.2141158 201.601768,17.6178013 C202.738638,17.0214869 203.66742,16.3075893 204.388114,15.4761086 C205.108808,14.6446279 205.590963,13.8341442 205.834578,13.0446575 C206.078193,12.2551708 206.2,11.4152913 206.2,10.525019 L206.2,9.76912746 C206.2,9.01323592 206.103569,8.30353774 205.910707,7.64003294 C205.717845,6.97652814 205.408251,6.30042515 204.981925,5.61172396 C204.555599,4.92302278 203.936411,4.30571135 203.124361,3.75978968 C202.312312,3.21386801 201.337852,2.71833911 200.200982,2.27320297 C199.064113,1.82806684 197.643026,1.48791565 195.937721,1.25274939 C194.232417,1.01758313 192.3241,0.9 190.21277,0.9 L175.2,0.9 L175.2,19.6461103 L190.243222,19.6461103 Z M182.2,15.5708689 L182.2,5.79028965 L189.804436,5.79028965 C196.068145,5.79028965 199.2,7.39105284 199.2,10.5925792 L199.2,10.7434365 C199.2,13.9617248 196.068145,15.5708689 189.804436,15.5708689 L182.2,15.5708689 Z M31.4405722,44.9126068 L31.4405722,37.4796733 L47.7942783,37.4796733 L47.7942783,33.1962879 L31.4405722,33.1962879 L31.4405722,30.4246856 L48.2,30.4246856 L48.2,26.1664965 L24.2,26.1664965 L24.2,44.9126068 L31.4405722,44.9126068 Z M66.8862385,45.7276551 C68.9033639,45.7276551 70.7385321,45.6091026 72.3917431,45.3719977 C74.0449541,45.1348927 75.42263,44.8258095 76.5247706,44.444748 C77.6269113,44.0636864 78.5990826,43.5979445 79.4412844,43.0475223 C80.2834862,42.4971001 80.9333333,41.9466779 81.3908257,41.3962557 C81.848318,40.8458335 82.22263,40.2446031 82.5137615,39.5925645 C82.804893,38.9405258 82.9920489,38.3604655 83.0752294,37.8523835 C83.1584098,37.3443014 83.2,36.8192833 83.2,36.2773291 L83.2,35.5152061 C83.2,34.9563158 83.1584098,34.4228297 83.0752294,33.9147476 C82.9920489,33.4066656 82.804893,32.8308393 82.5137615,32.1872687 C82.22263,31.5436981 81.8431193,30.9509357 81.3752294,30.4089816 C80.9073394,29.8670274 80.2574924,29.3250732 79.4256881,28.783119 C78.5938838,28.2411648 77.6217125,27.783891 76.5091743,27.4112975 C75.3966361,27.038704 74.0189602,26.7380888 72.3761468,26.5094519 C70.7333333,26.280815 68.9033639,26.1664965 66.8862385,26.1664965 L65.5449541,26.1664965 C63.5278287,26.1664965 61.6874618,26.280815 60.0238532,26.5094519 C58.3602446,26.7380888 56.9721713,27.038704 55.859633,27.4112975 C54.7470948,27.783891 53.7749235,28.2411648 52.9431193,28.783119 C52.111315,29.3250732 51.4614679,29.8670274 50.993578,30.4089816 C50.5256881,30.9509357 50.1513761,31.5479321 49.8706422,32.1999708 C49.5899083,32.8520094 49.4079511,33.4278357 49.3247706,33.9274497 C49.2415902,34.4270637 49.2,34.9563158 49.2,35.5152061 L49.2,36.2773291 C49.2,36.8192833 49.2415902,37.3443014 49.3247706,37.8523835 C49.4079511,38.3604655 49.5899083,38.9405258 49.8706422,39.5925645 C50.1513761,40.2446031 50.5256881,40.8458335 50.993578,41.3962557 C51.4614679,41.9466779 52.1165138,42.4971001 52.9587156,43.0475223 C53.8009174,43.5979445 54.7730887,44.0636864 55.8752294,44.444748 C56.97737,44.8258095 58.3602446,45.1348927 60.0238532,45.3719977 C61.6874618,45.6091026 63.5278287,45.7276551 65.5449541,45.7276551 L66.8862385,45.7276551 Z M66.7,40.8373655 C64.8273533,40.8373655 63.2282392,40.673293 61.9026578,40.345148 C60.5770764,40.0170031 59.5934109,39.576598 58.9516611,39.0239329 C58.3099114,38.4712677 57.8575305,37.9186025 57.5945183,37.3659374 C57.3315061,36.8132722 57.2,36.2260654 57.2,35.6043171 L57.2,35.293443 C57.2,31.9256396 60.3666667,30.2417379 66.7,30.2417379 C68.2149502,30.2417379 69.5563123,30.3496803 70.7240864,30.5655651 C71.8918605,30.78145 72.8124031,31.0534649 73.4857143,31.3816098 C74.1590255,31.7097547 74.7060908,32.1026651 75.1269103,32.560341 C75.5477298,33.0180168 75.8317829,33.4670573 75.9790698,33.9074623 C76.1263566,34.3478674 76.2,34.8098609 76.2,35.293443 L76.2,35.6561295 C76.2,36.2778778 76.0684939,36.8650845 75.8054817,37.4177497 C75.5424695,37.9704149 75.0848283,38.5187624 74.4325581,39.0627921 C73.7802879,39.6068219 72.7966224,40.0385916 71.4815615,40.3581011 C70.1665006,40.6776107 68.5726467,40.8373655 66.7,40.8373655 Z M101.886239,45.7276551 C103.903364,45.7276551 105.738532,45.6091026 107.391743,45.3719977 C109.044954,45.1348927 110.42263,44.8258095 111.524771,44.444748 C112.626911,44.0636864 113.599083,43.5979445 114.441284,43.0475223 C115.283486,42.4971001 115.933333,41.9466779 116.390826,41.3962557 C116.848318,40.8458335 117.22263,40.2446031 117.513761,39.5925645 C117.804893,38.9405258 117.992049,38.3604655 118.075229,37.8523835 C118.15841,37.3443014 118.2,36.8192833 118.2,36.2773291 L118.2,35.5152061 C118.2,34.9563158 118.15841,34.4228297 118.075229,33.9147476 C117.992049,33.4066656 117.804893,32.8308393 117.513761,32.1872687 C117.22263,31.5436981 116.843119,30.9509357 116.375229,30.4089816 C115.907339,29.8670274 115.257492,29.3250732 114.425688,28.783119 C113.593884,28.2411648 112.621713,27.783891 111.509174,27.4112975 C110.396636,27.038704 109.01896,26.7380888 107.376147,26.5094519 C105.733333,26.280815 103.903364,26.1664965 101.886239,26.1664965 L100.544954,26.1664965 C98.5278287,26.1664965 96.6874618,26.280815 95.0238532,26.5094519 C93.3602446,26.7380888 91.9721713,27.038704 90.859633,27.4112975 C89.7470948,27.783891 88.7749235,28.2411648 87.9431193,28.783119 C87.111315,29.3250732 86.4614679,29.8670274 85.993578,30.4089816 C85.5256881,30.9509357 85.1513761,31.5479321 84.8706422,32.1999708 C84.5899083,32.8520094 84.4079511,33.4278357 84.3247706,33.9274497 C84.2415902,34.4270637 84.2,34.9563158 84.2,35.5152061 L84.2,36.2773291 C84.2,36.8192833 84.2415902,37.3443014 84.3247706,37.8523835 C84.4079511,38.3604655 84.5899083,38.9405258 84.8706422,39.5925645 C85.1513761,40.2446031 85.5256881,40.8458335 85.993578,41.3962557 C86.4614679,41.9466779 87.1165138,42.4971001 87.9587156,43.0475223 C88.8009174,43.5979445 89.7730887,44.0636864 90.8752294,44.444748 C91.97737,44.8258095 93.3602446,45.1348927 95.0238532,45.3719977 C96.6874618,45.6091026 98.5278287,45.7276551 100.544954,45.7276551 L101.886239,45.7276551 Z M101.7,40.8373655 C99.8273533,40.8373655 98.2282392,40.673293 96.9026578,40.345148 C95.5770764,40.0170031 94.5934109,39.576598 93.9516611,39.0239329 C93.3099114,38.4712677 92.8575305,37.9186025 92.5945183,37.3659374 C92.3315061,36.8132722 92.2,36.2260654 92.2,35.6043171 L92.2,35.293443 C92.2,31.9256396 95.3666667,30.2417379 101.7,30.2417379 C103.21495,30.2417379 104.556312,30.3496803 105.724086,30.5655651 C106.89186,30.78145 107.812403,31.0534649 108.485714,31.3816098 C109.159025,31.7097547 109.706091,32.1026651 110.12691,32.560341 C110.54773,33.0180168 110.831783,33.4670573 110.97907,33.9074623 C111.126357,34.3478674 111.2,34.8098609 111.2,35.293443 L111.2,35.6561295 C111.2,36.2778778 111.068494,36.8650845 110.805482,37.4177497 C110.54247,37.9704149 110.084828,38.5187624 109.432558,39.0627921 C108.780288,39.6068219 107.796622,40.0385916 106.481561,40.3581011 C105.166501,40.6776107 103.572647,40.8373655 101.7,40.8373655 Z M136.243222,44.9126068 C138.780878,44.9126068 141.024165,44.7236339 142.973084,44.3456882 C144.922004,43.9677424 146.464898,43.4806123 147.601768,42.8842979 C148.738638,42.2879834 149.66742,41.5740858 150.388114,40.7426051 C151.108808,39.9111244 151.590963,39.1006407 151.834578,38.311154 C152.078193,37.5216673 152.2,36.6817878 152.2,35.7915155 L152.2,35.035624 C152.2,34.2797324 152.103569,33.5700343 151.910707,32.9065295 C151.717845,32.2430247 151.408251,31.5669217 150.981925,30.8782205 C150.555599,30.1895193 149.936411,29.5722079 149.124361,29.0262862 C148.312312,28.4803645 147.337852,27.9848356 146.200982,27.5396995 C145.064113,27.0945634 143.643026,26.7544122 141.937721,26.5192459 C140.232417,26.2840796 138.3241,26.1664965 136.21277,26.1664965 L121.2,26.1664965 L121.2,44.9126068 L136.243222,44.9126068 Z M128.2,40.8373655 L128.2,31.0567862 L135.804436,31.0567862 C142.068145,31.0567862 145.2,32.6575494 145.2,35.8590757 L145.2,36.009933 C145.2,39.2282213 142.068145,40.8373655 135.804436,40.8373655 L128.2,40.8373655 Z M168.748936,45.7276551 C170.970213,45.7276551 172.908688,45.6048686 174.564362,45.3592956 C176.220035,45.1137226 177.526064,44.7961714 178.482447,44.4066418 C179.43883,44.0171122 180.204965,43.5344343 180.780851,42.958608 C181.356738,42.3827817 181.737234,41.8196574 181.92234,41.2692352 C182.107447,40.718813 182.2,40.0964125 182.2,39.4020337 L182.2,39.0463763 C182.2,37.1495366 181.253901,35.756545 179.361702,34.8674015 C177.469504,33.9782579 174.374113,33.499814 170.075532,33.4320697 L166.219149,33.3812615 C164.738298,33.3643254 163.586525,33.2711771 162.76383,33.1018164 C161.941135,32.9324557 161.42695,32.7419249 161.221277,32.5302241 C161.015603,32.3185232 160.912766,32.0602482 160.912766,31.755399 C160.912766,31.4336137 161.010461,31.1711046 161.205851,30.9678718 C161.401241,30.764639 161.961702,30.5741082 162.887234,30.3962795 C163.812766,30.2184508 165.139362,30.1295364 166.867021,30.1295364 L167.360638,30.1295364 C171.535816,30.1295364 173.746809,30.8831915 173.993617,32.3905015 L181.459574,32.3905015 L181.459574,32.1364605 C181.459574,31.5267621 181.346454,30.9551698 181.120213,30.4216836 C180.893972,29.8881975 180.477482,29.3504773 179.870745,28.8085231 C179.264007,28.266569 178.482447,27.8092951 177.526064,27.4367016 C176.569681,27.0641081 175.289362,26.7592589 173.685106,26.5221539 C172.080851,26.285049 170.229787,26.1664965 168.131915,26.1664965 L166.003191,26.1664965 C163.514539,26.1664965 161.406383,26.3273892 159.678723,26.6491745 C157.951064,26.9709597 156.660461,27.4239996 155.806915,28.0082939 C154.953369,28.5925883 154.356915,29.1980527 154.017553,29.8246872 C153.678191,30.4513217 153.508511,31.1541686 153.508511,31.9332277 L153.508511,32.1618646 C153.508511,35.6845668 157.241489,37.5305982 164.707447,37.6999589 L168.656383,37.7761712 C170.363475,37.8100433 171.669504,37.9158937 172.574468,38.0937224 C173.479433,38.2715511 174.055319,38.479018 174.302128,38.7161229 C174.548936,38.9532279 174.67234,39.2750132 174.67234,39.6814788 C174.67234,39.969392 174.600355,40.219199 174.456383,40.4308998 C174.312411,40.6426007 174.024468,40.8500675 173.592553,41.0533003 C173.160638,41.2565331 172.471631,41.4131918 171.525532,41.5232762 C170.579433,41.6333607 169.386525,41.6884029 167.946809,41.6884029 L167.514894,41.6884029 C163.134043,41.6884029 160.861348,40.6891749 160.696809,38.6907188 L153.2,38.6907188 L153.2,38.970164 C153.2,39.5629263 153.277128,40.1218166 153.431383,40.6468347 C153.585638,41.1718528 153.935284,41.7603812 154.480319,42.4124198 C155.025355,43.0644584 155.760638,43.6191146 156.68617,44.0763885 C157.611702,44.5336623 158.928014,44.9231919 160.635106,45.2449772 C162.342199,45.5667625 164.337234,45.7276551 166.620213,45.7276551 L168.748936,45.7276551 Z" id="RELAXEDFOODS"></path>
                </g>
            </g>
        </g>
    </g>
</svg>