<?xml version="1.0" encoding="UTF-8"?>
<svg width="185px" height="63px" viewBox="0 0 185 63" version="1.1" xmlns="http://www.w3.org/2000/svg" xmlns:xlink="http://www.w3.org/1999/xlink">
    <!-- Generator: Sketch 64 (93537) - https://sketch.com -->
    <title>Artboard Copy 3</title>
    <desc>Created with Sketch.</desc>
    <g id="Artboard-Copy-3" stroke="none" stroke-width="1" fill="none" fill-rule="evenodd">
        <path d="M6.45551023,16.7272727 L6.45551023,10.7917889 L14.8781502,10.7917889 C16.4481598,10.7917889 17.5564019,11.0241121 18.2028765,11.4887586 C18.849351,11.953405 19.1725883,12.7028348 19.1725883,13.7370479 L19.1725883,15.6705767 C19.1725883,16.1652004 19.2741772,16.5174324 19.4773549,16.7272727 L26.0436893,16.7272727 L26.0436893,16.6148583 C25.7850995,16.1951776 25.6558046,15.5131965 25.6558046,14.568915 L25.6558046,12.1182796 C25.6558046,11.1140437 25.2910082,10.2821766 24.5614155,9.6226784 C23.8318228,8.96318019 22.8944347,8.51352232 21.7492512,8.27370479 C22.1556066,8.16878462 22.548109,8.03763441 22.9267584,7.88025415 C23.3054078,7.7228739 23.7117632,7.50553926 24.1458247,7.22825024 C24.5798862,6.95096123 24.9262119,6.58374063 25.1848017,6.12658847 C25.4433915,5.6694363 25.5726864,5.1635712 25.5726864,4.60899316 L25.5726864,4.33919844 C25.5726864,1.44639948 22.5896681,0 16.6236315,0 L0,0 L0,16.7272727 L6.45551023,16.7272727 Z M6.28640777,7.27272727 L6.28640777,4.36363636 L16.2152755,4.36363636 C17.1153428,4.36363636 17.7810176,4.49647156 18.2122999,4.76214197 C18.6435822,5.02781237 18.8592233,5.37318389 18.8592233,5.79825654 L18.8592233,5.81818182 C18.8592233,6.25653798 18.6388943,6.60855127 18.1982364,6.87422167 C17.7575784,7.13989207 17.0965914,7.27272727 16.2152755,7.27272727 L6.28640777,7.27272727 Z M49.3932039,16.7272727 L49.3932039,12.8377322 L34.0832335,12.8377322 L34.0832335,10.0948192 L48.7688611,10.0948192 L48.7688611,6.27272727 L34.0832335,6.27272727 L34.0832335,3.79960899 L49.1217505,3.79960899 L49.1217505,0 L27.8398058,0 L27.8398058,16.7272727 L49.3932039,16.7272727 Z M72.7427184,16.7272727 L72.7427184,12.5679374 L58.5043042,12.5679374 L58.5043042,0 L52.0873786,0 L52.0873786,16.7272727 L72.7427184,16.7272727 Z M80.1683916,16.7272727 L82.013751,13.6695992 L94.4354992,13.6695992 L96.3634867,16.7272727 L103.276699,16.7272727 L92.3147129,0 L83.9968239,0 L73.6407767,16.7272727 L80.1683916,16.7272727 Z M92.5,10.1818182 L84.4174757,10.1818182 L88.3727536,3.63636364 L92.5,10.1818182 Z M110.355205,16.7272727 L116.636401,11.5337243 L122.973184,16.7272727 L131.116505,16.7272727 L120.972094,8.16129032 L130.894162,0 L122.945391,0 L117.108881,4.90127077 L111.27237,0 L102.600984,0 L112.662016,8.27370479 L102.378641,16.7272727 L110.355205,16.7272727 Z M154.466019,16.7272727 L154.466019,12.8377322 L139.156049,12.8377322 L139.156049,10.0948192 L153.841677,10.0948192 L153.841677,6.27272727 L139.156049,6.27272727 L139.156049,3.79960899 L154.194566,3.79960899 L154.194566,0 L132.912621,0 L132.912621,16.7272727 L154.466019,16.7272727 Z M170.669884,16.7272727 C172.948846,16.7272727 174.963449,16.558651 176.713692,16.2214076 C178.463936,15.8841642 179.849545,15.4494949 180.87052,14.9173998 C181.891495,14.3853047 182.725595,13.7482893 183.372821,13.0063539 C184.020046,12.2644184 184.453049,11.5412186 184.671829,10.8367546 C184.89061,10.1322906 185,9.38286087 185,8.5884653 L185,7.91397849 C185,7.23949169 184.913399,6.60622353 184.740198,6.014174 C184.566997,5.42212447 184.288964,4.8188335 183.906098,4.20430108 C183.523232,3.58976865 182.967165,3.03893776 182.237897,2.55180841 C181.508629,2.06467905 180.633508,1.62251548 179.612533,1.22531769 C178.591557,0.828119909 177.315338,0.524600847 175.783876,0.314760508 C174.252413,0.104920169 172.538633,0 170.642536,0 L157.160194,0 L157.160194,16.7272727 L170.669884,16.7272727 Z M163.446602,13.0909091 L163.446602,4.36363636 L170.275829,4.36363636 C175.901004,4.36363636 178.713592,5.79200748 178.713592,8.64874971 L178.713592,8.7833606 C178.713592,11.6550596 175.901004,13.0909091 170.275829,13.0909091 L163.446602,13.0909091 Z M28.0558536,39.2727273 L28.0558536,32.6402737 L42.7424344,32.6402737 L42.7424344,28.8181818 L28.0558536,28.8181818 L28.0558536,26.3450635 L43.1067961,26.3450635 L43.1067961,22.5454545 L21.5533981,22.5454545 L21.5533981,39.2727273 L28.0558536,39.2727273 Z M59.8881268,40 C61.6996229,40 63.3477109,39.8942149 64.8323907,39.6826446 C66.3170705,39.4710744 67.5543036,39.1952774 68.5440901,38.8552538 C69.5338767,38.5152302 70.4069431,38.0996458 71.1632894,37.6085006 C71.9196357,37.1173554 72.5032362,36.6262102 72.914091,36.1350649 C73.3249458,35.6439197 73.6610997,35.107438 73.9225528,34.5256198 C74.1840058,33.9438017 74.3520828,33.4262102 74.4267836,32.9728453 C74.5014845,32.5194805 74.538835,32.0510035 74.538835,31.5674144 L74.538835,30.8873672 C74.538835,30.3886659 74.5014845,29.9126328 74.4267836,29.459268 C74.3520828,29.0059032 74.1840058,28.4920897 73.9225528,27.9178276 C73.6610997,27.3435655 73.320277,26.8146399 72.9000846,26.3310508 C72.4798922,25.8474616 71.8962917,25.3638725 71.149283,24.8802834 C70.4022743,24.3966942 69.5292079,23.9886659 68.5300837,23.6561983 C67.5309596,23.3237308 66.2937264,23.05549 64.8183843,22.8514758 C63.3430421,22.6474616 61.6996229,22.5454545 59.8881268,22.5454545 L58.6835753,22.5454545 C56.8720792,22.5454545 55.2193225,22.6474616 53.7253051,22.8514758 C52.2312877,23.05549 50.9847169,23.3237308 49.9855928,23.6561983 C48.9864686,23.9886659 48.1134022,24.3966942 47.3663935,24.8802834 C46.6193848,25.3638725 46.0357843,25.8474616 45.6155919,26.3310508 C45.1953995,26.8146399 44.8592456,27.3473436 44.6071301,27.9291617 C44.3550147,28.5109799 44.1916065,29.0247934 44.1169057,29.4706021 C44.0422048,29.9164109 44.0048544,30.3886659 44.0048544,30.8873672 L44.0048544,31.5674144 C44.0048544,32.0510035 44.0422048,32.5194805 44.1169057,32.9728453 C44.1916065,33.4262102 44.3550147,33.9438017 44.6071301,34.5256198 C44.8592456,35.107438 45.1953995,35.6439197 45.6155919,36.1350649 C46.0357843,36.6262102 46.6240536,37.1173554 47.3803999,37.6085006 C48.1367462,38.0996458 49.0098127,38.5152302 49.9995992,38.8552538 C50.9893857,39.1952774 52.2312877,39.4710744 53.7253051,39.6826446 C55.2193225,39.8942149 56.8720792,40 58.6835753,40 L59.8881268,40 Z M59.7208738,35.6363636 C58.0391279,35.6363636 56.6030304,35.4899607 55.412581,35.1971549 C54.2221317,34.9043491 53.3387428,34.5113729 52.7624141,34.0182263 C52.1860855,33.5250796 51.779821,33.031933 51.5436208,32.5387864 C51.3074205,32.0456398 51.1893204,31.5216715 51.1893204,30.9668815 L51.1893204,30.6894866 C51.1893204,27.6843743 54.0331715,26.1818182 59.7208738,26.1818182 C61.0813873,26.1818182 62.2860086,26.2781359 63.3347378,26.4707713 C64.3834669,26.6634067 65.2101678,26.9061273 65.8148405,27.1989331 C66.4195132,27.4917389 66.9108097,27.8423353 67.2887301,28.2507224 C67.6666505,28.6591094 67.9217468,29.0597911 68.054019,29.4527673 C68.1862911,29.8457435 68.2524272,30.2579833 68.2524272,30.6894866 L68.2524272,31.013114 C68.2524272,31.567904 68.1343271,32.0918723 67.8981268,32.5850189 C67.6619265,33.0781655 67.2509381,33.5674594 66.6651614,34.0529006 C66.0793848,34.5383419 65.1959958,34.9236127 64.0149945,35.208713 C62.8339932,35.4938134 61.4026196,35.6363636 59.7208738,35.6363636 Z M91.3201657,40 C93.1316618,40 94.7797497,39.8942149 96.2644295,39.6826446 C97.7491093,39.4710744 98.9863424,39.1952774 99.976129,38.8552538 C100.965916,38.5152302 101.838982,38.0996458 102.595328,37.6085006 C103.351675,37.1173554 103.935275,36.6262102 104.34613,36.1350649 C104.756985,35.6439197 105.093139,35.107438 105.354592,34.5256198 C105.616045,33.9438017 105.784122,33.4262102 105.858822,32.9728453 C105.933523,32.5194805 105.970874,32.0510035 105.970874,31.5674144 L105.970874,30.8873672 C105.970874,30.3886659 105.933523,29.9126328 105.858822,29.459268 C105.784122,29.0059032 105.616045,28.4920897 105.354592,27.9178276 C105.093139,27.3435655 104.752316,26.8146399 104.332123,26.3310508 C103.911931,25.8474616 103.328331,25.3638725 102.581322,24.8802834 C101.834313,24.3966942 100.961247,23.9886659 99.9621226,23.6561983 C98.9629984,23.3237308 97.7257653,23.05549 96.2504231,22.8514758 C94.7750809,22.6474616 93.1316618,22.5454545 91.3201657,22.5454545 L90.1156141,22.5454545 C88.304118,22.5454545 86.6513613,22.6474616 85.1573439,22.8514758 C83.6633265,23.05549 82.4167557,23.3237308 81.4176316,23.6561983 C80.4185075,23.9886659 79.545441,24.3966942 78.7984324,24.8802834 C78.0514237,25.3638725 77.4678231,25.8474616 77.0476307,26.3310508 C76.6274383,26.8146399 76.2912844,27.3473436 76.039169,27.9291617 C75.7870535,28.5109799 75.6236454,29.0247934 75.5489445,29.4706021 C75.4742436,29.9164109 75.4368932,30.3886659 75.4368932,30.8873672 L75.4368932,31.5674144 C75.4368932,32.0510035 75.4742436,32.5194805 75.5489445,32.9728453 C75.6236454,33.4262102 75.7870535,33.9438017 76.039169,34.5256198 C76.2912844,35.107438 76.6274383,35.6439197 77.0476307,36.1350649 C77.4678231,36.6262102 78.0560925,37.1173554 78.8124388,37.6085006 C79.5687851,38.0996458 80.4418515,38.5152302 81.431638,38.8552538 C82.4214245,39.1952774 83.6633265,39.4710744 85.1573439,39.6826446 C86.6513613,39.8942149 88.304118,40 90.1156141,40 L91.3201657,40 Z M91.1529126,35.6363636 C89.4711668,35.6363636 88.0350692,35.4899607 86.8446199,35.1971549 C85.6541706,34.9043491 84.7707816,34.5113729 84.194453,34.0182263 C83.6181243,33.5250796 83.2118599,33.031933 82.9756596,32.5387864 C82.7394594,32.0456398 82.6213592,31.5216715 82.6213592,30.9668815 L82.6213592,30.6894866 C82.6213592,27.6843743 85.4652104,26.1818182 91.1529126,26.1818182 C92.5134261,26.1818182 93.7180474,26.2781359 94.7667766,26.4707713 C95.8155058,26.6634067 96.6422067,26.9061273 97.2468793,27.1989331 C97.851552,27.4917389 98.3428485,27.8423353 98.720769,28.2507224 C99.0986894,28.6591094 99.3537857,29.0597911 99.4860578,29.4527673 C99.6183299,29.8457435 99.684466,30.2579833 99.684466,30.6894866 L99.684466,31.013114 C99.684466,31.567904 99.5663659,32.0918723 99.3301656,32.5850189 C99.0939654,33.0781655 98.6829769,33.5674594 98.0972003,34.0529006 C97.5114236,34.5383419 96.6280347,34.9236127 95.4470334,35.208713 C94.2660321,35.4938134 92.8346585,35.6363636 91.1529126,35.6363636 Z M122.174738,39.2727273 C124.453701,39.2727273 126.468304,39.1041056 128.218547,38.7668622 C129.96879,38.4296188 131.354399,37.9949495 132.375374,37.4628543 C133.39635,36.9307592 134.23045,36.2937439 134.877675,35.5518084 C135.5249,34.8098729 135.957903,34.0866732 136.176684,33.3822092 C136.395464,32.6777452 136.504854,31.9283154 136.504854,31.1339198 L136.504854,30.459433 C136.504854,29.7849462 136.418254,29.1516781 136.245053,28.5596285 C136.071851,27.967579 135.793818,27.364288 135.410952,26.7497556 C135.028087,26.1352232 134.47202,25.5843923 133.742752,25.097263 C133.013484,24.6101336 132.138362,24.16797 131.117387,23.7707722 C130.096412,23.3735745 128.820193,23.0700554 127.28873,22.8602151 C125.757267,22.6503747 124.043487,22.5454545 122.147391,22.5454545 L108.665049,22.5454545 L108.665049,39.2727273 L122.174738,39.2727273 Z M114.951456,35.6363636 L114.951456,26.9090909 L121.780683,26.9090909 C127.405859,26.9090909 130.218447,28.337462 130.218447,31.1942043 L130.218447,31.3288151 C130.218447,34.2005141 127.405859,35.6363636 121.780683,35.6363636 L114.951456,35.6363636 Z M151.366763,40 C153.361599,40 155.102462,39.8904368 156.589354,39.6713105 C158.076245,39.4521842 159.249135,39.1688312 160.108023,38.8212515 C160.96691,38.4736718 161.654944,38.0429752 162.172124,37.5291617 C162.689303,37.0153483 163.031011,36.5128689 163.197247,36.0217237 C163.363484,35.5305785 163.446602,34.9752066 163.446602,34.355608 L163.446602,34.0382527 C163.446602,32.3456907 162.59695,31.1027155 160.897645,30.309327 C159.198341,29.5159386 156.4185,29.0890201 152.558123,29.0285714 L149.094867,28.9832349 C147.764976,28.9681228 146.730617,28.8850059 145.991789,28.7338843 C145.252961,28.5827627 144.791193,28.4127509 144.606486,28.2238489 C144.421779,28.0349469 144.329426,27.8044864 144.329426,27.5324675 C144.329426,27.2453365 144.417162,27.011098 144.592633,26.8297521 C144.768105,26.6484061 145.271432,26.4783943 146.102613,26.3197166 C146.933795,26.161039 148.125155,26.0817001 149.676694,26.0817001 L150.119991,26.0817001 C153.869543,26.0817001 155.855144,26.7541913 156.076792,28.0991736 L162.781657,28.0991736 L162.781657,27.8724911 C162.781657,27.3284534 162.680068,26.8184179 162.47689,26.3423849 C162.273712,25.8663518 161.899681,25.3865407 161.354795,24.9029516 C160.809909,24.4193625 160.108023,24.0113341 159.249135,23.6788666 C158.390247,23.3463991 157.240446,23.0743802 155.799731,22.8628099 C154.359017,22.6512397 152.696654,22.5454545 150.812642,22.5454545 L148.900924,22.5454545 C146.665969,22.5454545 144.772723,22.6890201 143.221184,22.9761511 C141.669645,23.2632822 140.510608,23.6675325 139.744074,24.188902 C138.97754,24.7102715 138.44189,25.2505313 138.137123,25.8096812 C137.832356,26.3688312 137.679973,26.9959858 137.679973,27.6911452 L137.679973,27.8951594 C137.679973,31.0384888 141.032405,32.6857143 147.73727,32.8368359 L151.283645,32.9048406 C152.816713,32.9350649 153.989603,33.0295159 154.802314,33.1881936 C155.615024,33.3468713 156.132204,33.5319953 156.353853,33.7435655 C156.575501,33.9551358 156.686325,34.2422668 156.686325,34.6049587 C156.686325,34.8618654 156.621678,35.0847698 156.492383,35.2736718 C156.363088,35.4625738 156.104498,35.6476978 155.716613,35.8290437 C155.328729,36.0103896 154.70996,36.1501771 153.860308,36.2484061 C153.010656,36.3466352 151.939355,36.3957497 150.646406,36.3957497 L150.258521,36.3957497 C146.324262,36.3957497 144.283249,35.5041322 144.135483,33.7208973 L137.402913,33.7208973 L137.402913,33.9702479 C137.402913,34.4991736 137.472178,34.9978749 137.610708,35.4663518 C137.749238,35.9348288 138.06324,36.4599764 138.552714,37.0417946 C139.042187,37.6236128 139.702515,38.118536 140.533697,38.5265643 C141.364878,38.9345927 142.547003,39.2821724 144.080071,39.5693034 C145.61314,39.8564345 147.404798,40 149.455045,40 L151.366763,40 Z" id="RELAXEDFOODS" fill="#1A1919" fill-rule="nonzero"></path>
        <path d="M52.6041822,63 C55.6711476,63 57.2046303,61.9453405 57.2046303,59.8360215 L57.2046303,59.8360215 L57.2046303,59.6290323 C57.2046303,59.1756272 57.11999,58.7739695 56.9507095,58.4240591 C56.7814289,58.0741487 56.5598706,57.7956989 56.2860344,57.5887097 C56.0121982,57.3817204 55.7582773,57.2240143 55.5242718,57.1155914 C55.2902664,57.0071685 55.0537715,56.9233871 54.8147872,56.8642473 C54.9840677,56.8149642 55.1558377,56.7459677 55.3300971,56.6572581 C55.5043565,56.5685484 55.691063,56.4428763 55.8902166,56.2802419 C56.0893702,56.1176075 56.2536719,55.9007616 56.3831217,55.6297043 C56.5125716,55.358647 56.5772965,55.0555556 56.5772965,54.7204301 L56.5772965,54.7204301 L56.5772965,54.5134409 C56.5772965,53.7741935 56.2686084,53.1704749 55.6512323,52.7022849 C55.0338561,52.234095 53.9882997,52 52.5145631,52 L52.5145631,52 L43,52 L43,63 L52.6041822,63 Z M51.9171023,56.1102151 L46.4802091,56.1102151 L46.4802091,54.3212366 L51.9171023,54.3212366 C52.7236744,54.3212366 53.1269604,54.6120072 53.1269604,55.1935484 L53.1269604,55.1935484 L53.1269604,55.2231183 C53.1269604,55.8145161 52.7236744,56.1102151 51.9171023,56.1102151 L51.9171023,56.1102151 Z M52.2158327,60.6048387 L46.4802091,60.6048387 L46.4802091,58.4462366 L52.2158327,58.4462366 C53.1319393,58.4462366 53.5899925,58.7862903 53.5899925,59.4663978 L53.5899925,59.4663978 L53.5899925,59.5255376 C53.5899925,60.2450717 53.1319393,60.6048387 52.2158327,60.6048387 L52.2158327,60.6048387 Z M66.4652726,63 L66.4652726,58.7419355 L72.2457058,52 L68.317401,52 L64.8073189,56.0510753 L61.3569828,52 L57.0403286,52 L62.9850635,58.7419355 L62.9850635,63 L66.4652726,63 Z M80.6250934,63 L80.6250934,55.3857527 L85.0014937,63 L86.8685586,63 L91.2449589,55.3857527 L91.2449589,63 L94.6803585,63 L94.6803585,52 L89.9156087,52 L86.0619866,58.8454301 L82.223301,52 L77.2793129,52 L77.2793129,63 L80.6250934,63 Z M105.374907,63 L110.752054,52 L107.137416,52 L103.29873,60.0873656 L99.206124,52 L95.2628827,52 L101.043316,63 L105.374907,63 Z M114.680358,63 L114.680358,55.3857527 L119.056759,63 L120.923824,63 L125.300224,55.3857527 L125.300224,63 L128.735624,63 L128.735624,52 L123.970874,52 L120.117252,58.8454301 L116.278566,52 L111.334578,52 L111.334578,63 L114.680358,63 Z M138.205377,63 L138.205377,54.6021505 L143,54.6021505 L143,52 L129.915609,52 L129.915609,54.6021505 L134.695295,54.6021505 L134.695295,63 L138.205377,63 Z" id="BYMVMT" fill="#000000" fill-rule="nonzero"></path>
    </g>
</svg>