<?xml version="1.0" encoding="UTF-8"?>
<svg width="261px" height="322px" viewBox="0 0 261 322" version="1.1" xmlns="http://www.w3.org/2000/svg" xmlns:xlink="http://www.w3.org/1999/xlink">
    <!-- Generator: Sketch 64 (93537) - https://sketch.com -->
    <title>Group</title>
    <desc>Created with Sketch.</desc>
    <defs>
        <rect id="path-1" x="0" y="0" width="42.7" height="51.8"></rect>
        <rect id="path-3" x="0" y="0" width="77" height="59.5"></rect>
    </defs>
    <g id="Page-1" stroke="none" stroke-width="1" fill="none" fill-rule="evenodd">
        <g id="A2-Copy-10" transform="translate(-712.000000, -761.000000)">
            <g id="Group" transform="translate(711.000000, 763.000000)">
                <g id="Group-2" transform="translate(0.800000, 195.100000)" fill-rule="nonzero">
                    <path d="M28.0425555,74.04 L33.1245555,64.1 L32.3685555,64.1 L28.0285555,72.64 L24.0105555,64.1 L22.7085555,64.1 L27.5385555,74.04 L28.0425555,74.04 Z M42.9167777,73.9 L42.9167777,73.298 L36.0147777,73.298 L36.0147777,68.93 L42.1047777,68.93 L42.1047777,68.342 L36.0147777,68.342 L36.0147777,64.702 L42.9167777,64.702 L42.9167777,64.1 L34.8667777,64.1 L34.8667777,73.9 L42.9167777,73.9 Z M50.035,74.04 C51.799,74.04 53.2456666,73.6013333 54.375,72.724 L54.375,72.724 L54.375,68.804 L49.769,68.804 L49.769,69.364 L53.227,69.364 L53.227,72.612 C52.3496666,73.1626667 51.2903333,73.438 50.049,73.438 C48.7143333,73.438 47.6853333,73.053 46.962,72.283 C46.2386666,71.513 45.877,70.4186667 45.877,69 C45.877,67.6 46.227,66.5103333 46.927,65.731 C47.627,64.9516667 48.6023333,64.562 49.853,64.562 C50.8516666,64.562 51.666,64.786 52.296,65.234 C52.926,65.682 53.3296666,66.3213333 53.507,67.152 L53.507,67.152 L54.571,67.152 C54.3843333,66.1533333 53.871,65.3716667 53.031,64.807 C52.191,64.2423333 51.1176666,63.96 49.811,63.96 C48.7563333,63.96 47.8486666,64.1606667 47.088,64.562 C46.3273333,64.9633333 45.744,65.5443333 45.338,66.305 C44.932,67.0656667 44.729,67.9686667 44.729,69.014 C44.729,70.61 45.191,71.8466667 46.115,72.724 C47.039,73.6013333 48.3456666,74.04 50.035,74.04 Z M56.8312222,73.9 L58.1332222,71.324 L63.9852222,71.324 L65.1892222,73.9 L66.4772222,73.9 L61.6752222,63.96 L61.1712222,63.96 L56.0752222,73.9 L56.8312222,73.9 Z M63.7052222,70.722 L58.4412222,70.722 L61.1712222,65.304 L63.7052222,70.722 Z M69.1434444,73.9 L69.1434444,65.024 L76.1714444,73.9 L76.6054444,73.9 L76.6054444,64.1 L75.7094444,64.1 L75.7094444,72.024 L69.4234444,64.1 L68.2474444,64.1 L68.2474444,73.9 L69.1434444,73.9 Z M84.7098889,73.9 L84.7098889,69.812 L87.5983689,69.81144 C87.7447155,69.8099467 87.8552222,69.8054667 87.9298889,69.798 C88.3405555,69.9286667 88.6858889,70.1853333 88.9658889,70.568 C89.2458889,70.9506667 89.5212222,71.5013333 89.7918889,72.22 C89.9505555,72.6493333 90.0952222,72.9923333 90.2258889,73.249 C90.3565555,73.5056667 90.5012222,73.7226667 90.6598889,73.9 L90.6598889,73.9 L91.9198889,73.9 L91.9198889,73.816 C91.7238889,73.6666667 91.5372222,73.4356667 91.3598889,73.123 C91.1825555,72.8103333 90.9912222,72.3973333 90.7858889,71.884 C90.5525555,71.2773333 90.3028889,70.799 90.0368889,70.449 C89.7708889,70.099 89.4558889,69.8353333 89.0918889,69.658 C89.8945555,69.49 90.5082222,69.1796667 90.9328889,68.727 C91.3575555,68.2743333 91.5698889,67.684 91.5698889,66.956 C91.5698889,66.0133333 91.2152222,65.3016667 90.5058889,64.821 C89.7965555,64.3403333 88.7885555,64.1 87.4818889,64.1 L87.4818889,64.1 L83.5618889,64.1 L83.5618889,73.9 L84.7098889,73.9 Z M87.5098889,69.21 L84.7098889,69.21 L84.7098889,64.702 L87.5098889,64.702 C88.4432222,64.702 89.1618889,64.891 89.6658889,65.269 C90.1698889,65.647 90.4218889,66.2093333 90.4218889,66.956 C90.4218889,67.7026667 90.1698889,68.265 89.6658889,68.643 C89.1618889,69.021 88.4432222,69.21 87.5098889,69.21 L87.5098889,69.21 Z M101.824111,73.9 L101.824111,73.298 L94.9221111,73.298 L94.9221111,68.93 L101.012111,68.93 L101.012111,68.342 L94.9221111,68.342 L94.9221111,64.702 L101.824111,64.702 L101.824111,64.1 L93.7741111,64.1 L93.7741111,73.9 L101.824111,73.9 Z M108.228333,74.04 C109.553667,74.04 110.596667,73.7973333 111.357333,73.312 C112.118,72.8266667 112.498333,72.15 112.498333,71.282 C112.498333,70.722 112.353667,70.2553333 112.064333,69.882 C111.775,69.5086667 111.329333,69.1983333 110.727333,68.951 C110.125333,68.7036667 109.320333,68.482 108.312333,68.286 C107.472333,68.118 106.821333,67.9453333 106.359333,67.768 C105.897333,67.5906667 105.568333,67.3853333 105.372333,67.152 C105.176333,66.9186667 105.078333,66.634 105.078333,66.298 C105.078333,65.7473333 105.328,65.3203333 105.827333,65.017 C106.326667,64.7136667 107.043,64.562 107.976333,64.562 C108.919,64.562 109.654,64.7206667 110.181333,65.038 C110.708667,65.3553333 111.042333,65.8546667 111.182333,66.536 L111.182333,66.536 L112.232333,66.536 C112.101667,65.7146667 111.681667,65.08 110.972333,64.632 C110.263,64.184 109.297,63.96 108.074333,63.96 C106.823667,63.96 105.820333,64.1793333 105.064333,64.618 C104.308333,65.0566667 103.930333,65.6773333 103.930333,66.48 C103.930333,66.9746667 104.075,67.39 104.364333,67.726 C104.653667,68.062 105.087667,68.342 105.666333,68.566 C106.245,68.79 106.996333,68.9906667 107.920333,69.168 C108.797667,69.336 109.483667,69.5203333 109.978333,69.721 C110.473,69.9216667 110.825333,70.155 111.035333,70.421 C111.245333,70.687 111.350333,71.016 111.350333,71.408 C111.350333,72.052 111.077333,72.5513333 110.531333,72.906 C109.985333,73.2606667 109.208333,73.438 108.200333,73.438 C107.099,73.438 106.263667,73.2326667 105.694333,72.822 C105.125,72.4113333 104.803,71.772 104.728333,70.904 L104.728333,70.904 L103.678333,70.904 C103.771667,71.9213333 104.210333,72.6983333 104.994333,73.235 C105.778333,73.7716667 106.856333,74.04 108.228333,74.04 Z M119.406556,73.9 L119.406556,64.702 L123.564556,64.702 L123.564556,64.1 L114.086556,64.1 L114.086556,64.702 L118.258556,64.702 L118.258556,73.9 L119.406556,73.9 Z M123.794778,73.9 L125.096778,71.324 L130.948778,71.324 L132.152778,73.9 L133.440778,73.9 L128.638778,63.96 L128.134778,63.96 L123.038778,73.9 L123.794778,73.9 Z M130.668778,70.722 L125.404778,70.722 L128.134778,65.304 L130.668778,70.722 Z M138.851,74.04 C140.391,74.04 141.520333,73.683 142.239,72.969 C142.957667,72.255 143.317,71.2073333 143.317,69.826 L143.317,69.826 L143.317,64.1 L142.169,64.1 L142.169,70.148 C142.169,71.2493333 141.900667,72.073 141.364,72.619 C140.827333,73.165 139.989667,73.438 138.851,73.438 C137.693667,73.438 136.849,73.1626667 136.317,72.612 C135.785,72.0613333 135.519,71.24 135.519,70.148 L135.519,70.148 L135.519,64.1 L134.371,64.1 L134.371,69.826 C134.371,71.2166667 134.730333,72.2666667 135.449,72.976 C136.167667,73.6853333 137.301667,74.04 138.851,74.04 Z M147.187222,73.9 L147.187222,69.812 L150.075702,69.81144 C150.222049,69.8099467 150.332556,69.8054667 150.407222,69.798 C150.817889,69.9286667 151.163222,70.1853333 151.443222,70.568 C151.723222,70.9506667 151.998556,71.5013333 152.269222,72.22 C152.427889,72.6493333 152.572556,72.9923333 152.703222,73.249 C152.833889,73.5056667 152.978556,73.7226667 153.137222,73.9 L153.137222,73.9 L154.397222,73.9 L154.397222,73.816 C154.201222,73.6666667 154.014556,73.4356667 153.837222,73.123 C153.659889,72.8103333 153.468556,72.3973333 153.263222,71.884 C153.029889,71.2773333 152.780222,70.799 152.514222,70.449 C152.248222,70.099 151.933222,69.8353333 151.569222,69.658 C152.371889,69.49 152.985556,69.1796667 153.410222,68.727 C153.834889,68.2743333 154.047222,67.684 154.047222,66.956 C154.047222,66.0133333 153.692556,65.3016667 152.983222,64.821 C152.273889,64.3403333 151.265889,64.1 149.959222,64.1 L149.959222,64.1 L146.039222,64.1 L146.039222,73.9 L147.187222,73.9 Z M149.987222,69.21 L147.187222,69.21 L147.187222,64.702 L149.987222,64.702 C150.920556,64.702 151.639222,64.891 152.143222,65.269 C152.647222,65.647 152.899222,66.2093333 152.899222,66.956 C152.899222,67.7026667 152.647222,68.265 152.143222,68.643 C151.639222,69.021 150.920556,69.21 149.987222,69.21 L149.987222,69.21 Z M156.069444,73.9 L157.371444,71.324 L163.223444,71.324 L164.427444,73.9 L165.715444,73.9 L160.913444,63.96 L160.409444,63.96 L155.313444,73.9 L156.069444,73.9 Z M162.943444,70.722 L157.679444,70.722 L160.409444,65.304 L162.943444,70.722 Z M168.381667,73.9 L168.381667,65.024 L175.409667,73.9 L175.843667,73.9 L175.843667,64.1 L174.947667,64.1 L174.947667,72.024 L168.661667,64.1 L167.485667,64.1 L167.485667,73.9 L168.381667,73.9 Z M182.975889,73.9 L182.975889,64.702 L187.133889,64.702 L187.133889,64.1 L177.655889,64.1 L177.655889,64.702 L181.827889,64.702 L181.827889,73.9 L182.975889,73.9 Z M196.386333,74.04 C197.030333,74.04 197.634667,73.9443333 198.199333,73.753 C198.764,73.5616667 199.261,73.2886667 199.690333,72.934 C200.054333,73.242 200.465,73.564 200.922333,73.9 L200.922333,73.9 L202.406333,73.9 C201.809,73.5173333 201.113667,72.9853333 200.320333,72.304 C200.628333,71.9306667 200.866333,71.5106667 201.034333,71.044 C201.202333,70.5773333 201.286333,70.0826667 201.286333,69.56 C201.286333,69.4666667 201.277,69.2893333 201.258333,69.028 L201.258333,69.028 L200.236333,69.028 C200.339,69.392 200.390333,69.7466667 200.390333,70.092 C200.390333,70.7733333 200.217667,71.38 199.872333,71.912 C198.621667,70.7826667 197.469,69.5786667 196.414333,68.3 C196.927667,68.0573333 197.354667,67.8286667 197.695333,67.614 C198.036,67.3993333 198.318333,67.131 198.542333,66.809 C198.766333,66.487 198.878333,66.1113333 198.878333,65.682 C198.878333,65.1406667 198.677667,64.7183333 198.276333,64.415 C197.875,64.1116667 197.324333,63.96 196.624333,63.96 C195.887,63.96 195.310667,64.156 194.895333,64.548 C194.48,64.94 194.272333,65.4673333 194.272333,66.13 C194.272333,66.5313333 194.361,66.9023333 194.538333,67.243 C194.715667,67.5836667 194.967667,67.9593333 195.294333,68.37 C194.463667,68.7246667 193.845333,69.154 193.439333,69.658 C193.033333,70.162 192.830333,70.75 192.830333,71.422 C192.830333,72.2433333 193.145333,72.885 193.775333,73.347 C194.405333,73.809 195.275667,74.04 196.386333,74.04 Z M196.092333,67.95 C195.756333,67.53 195.516,67.166 195.371333,66.858 C195.226667,66.55 195.154333,66.242 195.154333,65.934 C195.154333,65.4673333 195.273333,65.101 195.511333,64.835 C195.749333,64.569 196.083,64.436 196.512333,64.436 C196.913667,64.436 197.226333,64.555 197.450333,64.793 C197.674333,65.031 197.786333,65.36 197.786333,65.78 C197.786333,66.1813333 197.634667,66.578 197.331333,66.97 C197.028,67.362 196.615,67.6886667 196.092333,67.95 Z M196.442333,73.508 C195.667667,73.508 195.065667,73.3143333 194.636333,72.927 C194.207,72.5396667 193.992333,72.0006667 193.992333,71.31 C193.992333,70.1806667 194.519667,69.3266667 195.574333,68.748 C196.722333,70.148 197.959,71.422 199.284333,72.57 C198.929667,72.878 198.512,73.1113333 198.031333,73.27 C197.550667,73.4286667 197.021,73.508 196.442333,73.508 Z M213.240778,73.9 C214.528778,73.9 215.511111,73.676 216.187778,73.228 C216.864444,72.78 217.202778,72.1313333 217.202778,71.282 C217.202778,70.498 216.925111,69.9123333 216.369778,69.525 C215.814444,69.1376667 214.958111,68.8926667 213.800778,68.79 C214.640778,68.6966667 215.319778,68.4283333 215.837778,67.985 C216.355778,67.5416667 216.614778,67.0073333 216.614778,66.382 C216.614778,65.6726667 216.283444,65.115 215.620778,64.709 C214.958111,64.303 214.052778,64.1 212.904778,64.1 L212.904778,64.1 L208.466778,64.1 L208.466778,73.9 L213.240778,73.9 Z M212.372778,68.51 L209.614778,68.51 L209.614778,64.702 L212.414778,64.702 C213.450778,64.702 214.218444,64.8466667 214.717778,65.136 C215.217111,65.4253333 215.466778,65.8686667 215.466778,66.466 C215.466778,67.1286667 215.200778,67.635 214.668778,67.985 C214.136778,68.335 213.371444,68.51 212.372778,68.51 L212.372778,68.51 Z M213.380778,73.298 L209.614778,73.298 L209.614778,69.112 L212.288778,69.112 C214.799444,69.112 216.054778,69.812 216.054778,71.212 C216.054778,71.8653333 215.819111,72.3763333 215.347778,72.745 C214.876444,73.1136667 214.220778,73.298 213.380778,73.298 L213.380778,73.298 Z M219.183,73.9 L220.485,71.324 L226.337,71.324 L227.541,73.9 L228.829,73.9 L224.027,63.96 L223.523,63.96 L218.427,73.9 L219.183,73.9 Z M226.057,70.722 L220.793,70.722 L223.523,65.304 L226.057,70.722 Z M231.747222,73.9 L231.747222,69.812 L234.635702,69.81144 C234.782049,69.8099467 234.892556,69.8054667 234.967222,69.798 C235.377889,69.9286667 235.723222,70.1853333 236.003222,70.568 C236.283222,70.9506667 236.558556,71.5013333 236.829222,72.22 C236.987889,72.6493333 237.132556,72.9923333 237.263222,73.249 C237.393889,73.5056667 237.538556,73.7226667 237.697222,73.9 L237.697222,73.9 L238.957222,73.9 L238.957222,73.816 C238.761222,73.6666667 238.574556,73.4356667 238.397222,73.123 C238.219889,72.8103333 238.028556,72.3973333 237.823222,71.884 C237.589889,71.2773333 237.340222,70.799 237.074222,70.449 C236.808222,70.099 236.493222,69.8353333 236.129222,69.658 C236.931889,69.49 237.545556,69.1796667 237.970222,68.727 C238.394889,68.2743333 238.607222,67.684 238.607222,66.956 C238.607222,66.0133333 238.252556,65.3016667 237.543222,64.821 C236.833889,64.3403333 235.825889,64.1 234.519222,64.1 L234.519222,64.1 L230.599222,64.1 L230.599222,73.9 L231.747222,73.9 Z M234.547222,69.21 L231.747222,69.21 L231.747222,64.702 L234.547222,64.702 C235.480556,64.702 236.199222,64.891 236.703222,65.269 C237.207222,65.647 237.459222,66.2093333 237.459222,66.956 C237.459222,67.7026667 237.207222,68.265 236.703222,68.643 C236.199222,69.021 235.480556,69.21 234.547222,69.21 L234.547222,69.21 Z" id="VEGANRESTAURANT&amp;BAR" fill="#27404F"></path>
                    <path d="M1.28388882,123.9 L2.58588882,121.324 L8.43788882,121.324 L9.64188882,123.9 L10.9298888,123.9 L6.12788882,113.96 L5.62388882,113.96 L0.527888824,123.9 L1.28388882,123.9 Z M8.15788882,120.722 L2.89388882,120.722 L5.62388882,115.304 L8.15788882,120.722 Z M20.0501111,123.9 L20.0501111,123.298 L13.8481111,123.298 L13.8481111,114.1 L12.7001111,114.1 L12.7001111,123.9 L20.0501111,123.9 Z M29.3383333,123.9 L29.3383333,123.298 L23.1363333,123.298 L23.1363333,114.1 L21.9883333,114.1 L21.9883333,123.9 L29.3383333,123.9 Z M39.2767777,123.9 C40.9941111,123.9 42.3241111,123.456667 43.2667777,122.57 C44.2094444,121.683333 44.6807777,120.437333 44.6807777,118.832 C44.6807777,117.282667 44.2164444,116.106667 43.2877777,115.304 C42.3591111,114.501333 40.9941111,114.1 39.1927777,114.1 L39.1927777,114.1 L35.5247777,114.1 L35.5247777,123.9 L39.2767777,123.9 Z M39.4867777,123.298 L36.6727777,123.298 L36.6727777,114.702 L39.4867777,114.702 C40.8214444,114.702 41.8294444,115.052 42.5107777,115.752 C43.1921111,116.452 43.5327777,117.478667 43.5327777,118.832 C43.5327777,120.26 43.1804444,121.361333 42.4757777,122.136 C41.7711111,122.910667 40.7747777,123.298 39.4867777,123.298 L39.4867777,123.298 Z M55.187,123.9 L55.187,123.298 L48.285,123.298 L48.285,118.93 L54.375,118.93 L54.375,118.342 L48.285,118.342 L48.285,114.702 L55.187,114.702 L55.187,114.1 L47.137,114.1 L47.137,123.9 L55.187,123.9 Z M64.6152222,123.9 L64.6152222,123.298 L58.4132222,123.298 L58.4132222,114.1 L57.2652222,114.1 L57.2652222,123.9 L64.6152222,123.9 Z M68.3034444,123.9 L68.3034444,114.1 L67.1554444,114.1 L67.1554444,123.9 L68.3034444,123.9 Z M75.9676666,124.04 L81.0496666,114.1 L80.2936666,114.1 L75.9536666,122.64 L71.9356666,114.1 L70.6336666,114.1 L75.4636666,124.04 L75.9676666,124.04 Z M90.8418889,123.9 L90.8418889,123.298 L83.9398889,123.298 L83.9398889,118.93 L90.0298889,118.93 L90.0298889,118.342 L83.9398889,118.342 L83.9398889,114.702 L90.8418889,114.702 L90.8418889,114.1 L82.7918889,114.1 L82.7918889,123.9 L90.8418889,123.9 Z M94.0681111,123.9 L94.0681111,119.812 L96.9565911,119.81144 C97.1029378,119.809947 97.2134444,119.805467 97.2881111,119.798 C97.6987778,119.928667 98.0441111,120.185333 98.3241111,120.568 C98.6041111,120.950667 98.8794444,121.501333 99.1501111,122.22 C99.3087778,122.649333 99.4534444,122.992333 99.5841111,123.249 C99.7147778,123.505667 99.8594444,123.722667 100.018111,123.9 L100.018111,123.9 L101.278111,123.9 L101.278111,123.816 C101.082111,123.666667 100.895444,123.435667 100.718111,123.123 C100.540778,122.810333 100.349444,122.397333 100.144111,121.884 C99.9107778,121.277333 99.6611111,120.799 99.3951111,120.449 C99.1291111,120.099 98.8141111,119.835333 98.4501111,119.658 C99.2527778,119.49 99.8664444,119.179667 100.291111,118.727 C100.715778,118.274333 100.928111,117.684 100.928111,116.956 C100.928111,116.013333 100.573444,115.301667 99.8641111,114.821 C99.1547778,114.340333 98.1467778,114.1 96.8401111,114.1 L96.8401111,114.1 L92.9201111,114.1 L92.9201111,123.9 L94.0681111,123.9 Z M96.8681111,119.21 L94.0681111,119.21 L94.0681111,114.702 L96.8681111,114.702 C97.8014444,114.702 98.5201111,114.891 99.0241111,115.269 C99.5281111,115.647 99.7801111,116.209333 99.7801111,116.956 C99.7801111,117.702667 99.5281111,118.265 99.0241111,118.643 C98.5201111,119.021 97.8014444,119.21 96.8681111,119.21 L96.8681111,119.21 Z M111.182333,123.9 L111.182333,123.298 L104.280333,123.298 L104.280333,118.93 L110.370333,118.93 L110.370333,118.342 L104.280333,118.342 L104.280333,114.702 L111.182333,114.702 L111.182333,114.1 L103.132333,114.1 L103.132333,123.9 L111.182333,123.9 Z M117.026556,123.9 C118.743889,123.9 120.073889,123.456667 121.016556,122.57 C121.959222,121.683333 122.430556,120.437333 122.430556,118.832 C122.430556,117.282667 121.966222,116.106667 121.037556,115.304 C120.108889,114.501333 118.743889,114.1 116.942556,114.1 L116.942556,114.1 L113.274556,114.1 L113.274556,123.9 L117.026556,123.9 Z M117.236556,123.298 L114.422556,123.298 L114.422556,114.702 L117.236556,114.702 C118.571222,114.702 119.579222,115.052 120.260556,115.752 C120.941889,116.452 121.282556,117.478667 121.282556,118.832 C121.282556,120.26 120.930222,121.361333 120.225556,122.136 C119.520889,122.910667 118.524556,123.298 117.236556,123.298 L117.236556,123.298 Z M133.531,123.9 L133.531,114.702 L137.689,114.702 L137.689,114.1 L128.211,114.1 L128.211,114.702 L132.383,114.702 L132.383,123.9 L133.531,123.9 Z M144.401222,124.04 C145.474556,124.04 146.398556,123.839333 147.173222,123.438 C147.947889,123.036667 148.538222,122.455667 148.944222,121.695 C149.350222,120.934333 149.553222,120.022 149.553222,118.958 C149.553222,117.912667 149.347889,117.014333 148.937222,116.263 C148.526556,115.511667 147.936222,114.94 147.166222,114.548 C146.396222,114.156 145.474556,113.96 144.401222,113.96 C143.327889,113.96 142.403889,114.156 141.629222,114.548 C140.854556,114.94 140.261889,115.511667 139.851222,116.263 C139.440556,117.014333 139.235222,117.912667 139.235222,118.958 C139.235222,120.022 139.438222,120.934333 139.844222,121.695 C140.250222,122.455667 140.840556,123.036667 141.615222,123.438 C142.389889,123.839333 143.318556,124.04 144.401222,124.04 Z M144.401222,123.438 C143.122556,123.438 142.133222,123.046 141.433222,122.262 C140.733222,121.478 140.383222,120.376667 140.383222,118.958 C140.383222,117.558 140.733222,116.475333 141.433222,115.71 C142.133222,114.944667 143.122556,114.562 144.401222,114.562 C145.679889,114.562 146.666889,114.944667 147.362222,115.71 C148.057556,116.475333 148.405222,117.558 148.405222,118.958 C148.405222,120.376667 148.055222,121.478 147.355222,122.262 C146.655222,123.046 145.670556,123.438 144.401222,123.438 Z M160.625667,123.9 L160.625667,119.462 L165.021667,114.1 L164.209667,114.1 L160.219667,118.972 L156.523667,114.1 L155.263667,114.1 L159.477667,119.672 L159.477667,123.9 L160.625667,123.9 Z M170.963889,124.04 C172.037222,124.04 172.961222,123.839333 173.735889,123.438 C174.510556,123.036667 175.100889,122.455667 175.506889,121.695 C175.912889,120.934333 176.115889,120.022 176.115889,118.958 C176.115889,117.912667 175.910556,117.014333 175.499889,116.263 C175.089222,115.511667 174.498889,114.94 173.728889,114.548 C172.958889,114.156 172.037222,113.96 170.963889,113.96 C169.890556,113.96 168.966556,114.156 168.191889,114.548 C167.417222,114.94 166.824556,115.511667 166.413889,116.263 C166.003222,117.014333 165.797889,117.912667 165.797889,118.958 C165.797889,120.022 166.000889,120.934333 166.406889,121.695 C166.812889,122.455667 167.403222,123.036667 168.177889,123.438 C168.952556,123.839333 169.881222,124.04 170.963889,124.04 Z M170.963889,123.438 C169.685222,123.438 168.695889,123.046 167.995889,122.262 C167.295889,121.478 166.945889,120.376667 166.945889,118.958 C166.945889,117.558 167.295889,116.475333 167.995889,115.71 C168.695889,114.944667 169.685222,114.562 170.963889,114.562 C172.242556,114.562 173.229556,114.944667 173.924889,115.71 C174.620222,116.475333 174.967889,117.558 174.967889,118.958 C174.967889,120.376667 174.617889,121.478 173.917889,122.262 C173.217889,123.046 172.233222,123.438 170.963889,123.438 Z M183.052111,124.04 C184.592111,124.04 185.721444,123.683 186.440111,122.969 C187.158778,122.255 187.518111,121.207333 187.518111,119.826 L187.518111,119.826 L187.518111,114.1 L186.370111,114.1 L186.370111,120.148 C186.370111,121.249333 186.101778,122.073 185.565111,122.619 C185.028444,123.165 184.190778,123.438 183.052111,123.438 C181.894778,123.438 181.050111,123.162667 180.518111,122.612 C179.986111,122.061333 179.720111,121.24 179.720111,120.148 L179.720111,120.148 L179.720111,114.1 L178.572111,114.1 L178.572111,119.826 C178.572111,121.216667 178.931444,122.266667 179.650111,122.976 C180.368778,123.685333 181.502778,124.04 183.052111,124.04 Z M199.248556,123.9 C200.536556,123.9 201.518889,123.676 202.195556,123.228 C202.872222,122.78 203.210556,122.131333 203.210556,121.282 C203.210556,120.498 202.932889,119.912333 202.377556,119.525 C201.822222,119.137667 200.965889,118.892667 199.808556,118.79 C200.648556,118.696667 201.327556,118.428333 201.845556,117.985 C202.363556,117.541667 202.622556,117.007333 202.622556,116.382 C202.622556,115.672667 202.291222,115.115 201.628556,114.709 C200.965889,114.303 200.060556,114.1 198.912556,114.1 L198.912556,114.1 L194.474556,114.1 L194.474556,123.9 L199.248556,123.9 Z M198.380556,118.51 L195.622556,118.51 L195.622556,114.702 L198.422556,114.702 C199.458556,114.702 200.226222,114.846667 200.725556,115.136 C201.224889,115.425333 201.474556,115.868667 201.474556,116.466 C201.474556,117.128667 201.208556,117.635 200.676556,117.985 C200.144556,118.335 199.379222,118.51 198.380556,118.51 L198.380556,118.51 Z M199.388556,123.298 L195.622556,123.298 L195.622556,119.112 L198.296556,119.112 C200.807222,119.112 202.062556,119.812 202.062556,121.212 C202.062556,121.865333 201.826889,122.376333 201.355556,122.745 C200.884222,123.113667 200.228556,123.298 199.388556,123.298 L199.388556,123.298 Z M209.754778,123.9 L209.754778,119.462 L214.150778,114.1 L213.338778,114.1 L209.348778,118.972 L205.652778,114.1 L204.392778,114.1 L208.606778,119.672 L208.606778,123.9 L209.754778,123.9 Z M224.607222,124.04 C226.147222,124.04 227.276556,123.683 227.995222,122.969 C228.713889,122.255 229.073222,121.207333 229.073222,119.826 L229.073222,119.826 L229.073222,114.1 L227.925222,114.1 L227.925222,120.148 C227.925222,121.249333 227.656889,122.073 227.120222,122.619 C226.583556,123.165 225.745889,123.438 224.607222,123.438 C223.449889,123.438 222.605222,123.162667 222.073222,122.612 C221.541222,122.061333 221.275222,121.24 221.275222,120.148 L221.275222,120.148 L221.275222,114.1 L220.127222,114.1 L220.127222,119.826 C220.127222,121.216667 220.486556,122.266667 221.205222,122.976 C221.923889,123.685333 223.057889,124.04 224.607222,124.04 Z M236.569444,123.9 C237.857444,123.9 238.839778,123.676 239.516444,123.228 C240.193111,122.78 240.531444,122.131333 240.531444,121.282 C240.531444,120.498 240.253778,119.912333 239.698444,119.525 C239.143111,119.137667 238.286778,118.892667 237.129444,118.79 C237.969444,118.696667 238.648444,118.428333 239.166444,117.985 C239.684444,117.541667 239.943444,117.007333 239.943444,116.382 C239.943444,115.672667 239.612111,115.115 238.949444,114.709 C238.286778,114.303 237.381444,114.1 236.233444,114.1 L236.233444,114.1 L231.795444,114.1 L231.795444,123.9 L236.569444,123.9 Z M235.701444,118.51 L232.943444,118.51 L232.943444,114.702 L235.743444,114.702 C236.779444,114.702 237.547111,114.846667 238.046444,115.136 C238.545778,115.425333 238.795444,115.868667 238.795444,116.466 C238.795444,117.128667 238.529444,117.635 237.997444,117.985 C237.465444,118.335 236.700111,118.51 235.701444,118.51 L235.701444,118.51 Z M236.709444,123.298 L232.943444,123.298 L232.943444,119.112 L235.617444,119.112 C238.128111,119.112 239.383444,119.812 239.383444,121.212 C239.383444,121.865333 239.147778,122.376333 238.676444,122.745 C238.205111,123.113667 237.549444,123.298 236.709444,123.298 L236.709444,123.298 Z M250.743667,123.9 L250.743667,123.298 L243.841667,123.298 L243.841667,118.93 L249.931667,118.93 L249.931667,118.342 L243.841667,118.342 L243.841667,114.702 L250.743667,114.702 L250.743667,114.1 L242.693667,114.1 L242.693667,123.9 L250.743667,123.9 Z M253.969889,123.9 L253.969889,119.812 L256.858369,119.81144 C257.004716,119.809947 257.115222,119.805467 257.189889,119.798 C257.600556,119.928667 257.945889,120.185333 258.225889,120.568 C258.505889,120.950667 258.781222,121.501333 259.051889,122.22 C259.210556,122.649333 259.355222,122.992333 259.485889,123.249 C259.616556,123.505667 259.761222,123.722667 259.919889,123.9 L259.919889,123.9 L261.179889,123.9 L261.179889,123.816 C260.983889,123.666667 260.797222,123.435667 260.619889,123.123 C260.442556,122.810333 260.251222,122.397333 260.045889,121.884 C259.812556,121.277333 259.562889,120.799 259.296889,120.449 C259.030889,120.099 258.715889,119.835333 258.351889,119.658 C259.154556,119.49 259.768222,119.179667 260.192889,118.727 C260.617556,118.274333 260.829889,117.684 260.829889,116.956 C260.829889,116.013333 260.475222,115.301667 259.765889,114.821 C259.056556,114.340333 258.048556,114.1 256.741889,114.1 L256.741889,114.1 L252.821889,114.1 L252.821889,123.9 L253.969889,123.9 Z M256.769889,119.21 L253.969889,119.21 L253.969889,114.702 L256.769889,114.702 C257.703222,114.702 258.421889,114.891 258.925889,115.269 C259.429889,115.647 259.681889,116.209333 259.681889,116.956 C259.681889,117.702667 259.429889,118.265 258.925889,118.643 C258.421889,119.021 257.703222,119.21 256.769889,119.21 L256.769889,119.21 Z" id="ALLDELIVEREDTOYOUBYUBER" fill="#27404F"></path>
                    <path d="M35.3882979,19.6461103 L35.3882979,12.9942647 L44.7670213,12.9942647 C46.5152482,12.9942647 47.7492908,13.2546274 48.4691489,13.7753527 C49.1890071,14.2960779 49.5489362,15.1359574 49.5489362,16.2949911 L49.5489362,18.4618802 C49.5489362,19.0162007 49.6620567,19.4109441 49.8882979,19.6461103 L57.2,19.6461103 L57.2,19.5201284 C56.9120567,19.0497959 56.7680851,18.2855055 56.7680851,17.2272574 L56.7680851,14.4808514 C56.7680851,13.3554129 56.3618794,12.4231467 55.5494681,11.6840527 C54.7370567,10.9449588 53.6932624,10.4410311 52.4180851,10.1722696 C52.8705674,10.0546865 53.3076241,9.90770758 53.7292553,9.73133288 C54.1508865,9.55495819 54.6033688,9.31139314 55.0867021,9.00063772 C55.5700355,8.68988231 55.9556738,8.27834136 56.243617,7.76601487 C56.5315603,7.25368838 56.6755319,6.68676972 56.6755319,6.06525889 L56.6755319,5.76290227 C56.6755319,2.52096742 53.3539007,0.9 46.7106383,0.9 L28.2,0.9 L28.2,19.6461103 L35.3882979,19.6461103 Z M35.2,9.05048275 L35.2,5.79028965 L46.2559284,5.79028965 C47.2581655,5.79028965 47.9994034,5.93915691 48.4796421,6.23689144 C48.9598807,6.53462597 49.2,6.92168086 49.2,7.39805611 L49.2,7.4203862 C49.2,7.91164817 48.9546607,8.30614642 48.4639821,8.60388095 C47.9733035,8.90161548 47.2372856,9.05048275 46.2559284,9.05048275 L35.2,9.05048275 Z M83.2,19.6461103 L83.2,15.2871357 L66.1521411,15.2871357 L66.1521411,12.2131768 L82.5047859,12.2131768 L82.5047859,7.92979137 L66.1521411,7.92979137 L66.1521411,5.15818904 L82.897733,5.15818904 L82.897733,0.9 L59.2,0.9 L59.2,19.6461103 L83.2,19.6461103 Z M109.2,19.6461103 L109.2,14.9847791 L93.3453333,14.9847791 L93.3453333,0.9 L86.2,0.9 L86.2,19.6461103 L109.2,19.6461103 Z M117.468587,19.6461103 L119.52342,16.219402 L133.355204,16.219402 L135.502045,19.6461103 L143.2,19.6461103 L130.99368,0.9 L121.731599,0.9 L110.2,19.6461103 L117.468587,19.6461103 Z M131.2,12.3106758 L122.2,12.3106758 L126.604255,4.97524137 L131.2,12.3106758 Z M151.082012,19.6461103 L158.076209,13.8257454 L165.132302,19.6461103 L174.2,19.6461103 L162.904062,10.0462877 L173.952418,0.9 L165.101354,0.9 L158.602321,6.39281189 L152.103288,0.9 L142.447582,0.9 L153.650677,10.1722696 L142.2,19.6461103 L151.082012,19.6461103 Z M200.2,19.6461103 L200.2,15.2871357 L183.152141,15.2871357 L183.152141,12.2131768 L199.504786,12.2131768 L199.504786,7.92979137 L183.152141,7.92979137 L183.152141,5.15818904 L199.897733,5.15818904 L199.897733,0.9 L176.2,0.9 L176.2,19.6461103 L200.2,19.6461103 Z M218.243222,19.6461103 C220.780878,19.6461103 223.024165,19.4571374 224.973084,19.0791917 C226.922004,18.7012459 228.464898,18.2141158 229.601768,17.6178013 C230.738638,17.0214869 231.66742,16.3075893 232.388114,15.4761086 C233.108808,14.6446279 233.590963,13.8341442 233.834578,13.0446575 C234.078193,12.2551708 234.2,11.4152913 234.2,10.525019 L234.2,9.76912746 C234.2,9.01323592 234.103569,8.30353774 233.910707,7.64003294 C233.717845,6.97652814 233.408251,6.30042515 232.981925,5.61172396 C232.555599,4.92302278 231.936411,4.30571135 231.124361,3.75978968 C230.312312,3.21386801 229.337852,2.71833911 228.200982,2.27320297 C227.064113,1.82806684 225.643026,1.48791565 223.937721,1.25274939 C222.232417,1.01758313 220.3241,0.9 218.21277,0.9 L203.2,0.9 L203.2,19.6461103 L218.243222,19.6461103 Z M210.2,15.5708689 L210.2,5.79028965 L217.804436,5.79028965 C224.068145,5.79028965 227.2,7.39105284 227.2,10.5925792 L227.2,10.7434365 C227.2,13.9617248 224.068145,15.5708689 217.804436,15.5708689 L210.2,15.5708689 Z M59.4405722,44.9126068 L59.4405722,37.4796733 L75.7942783,37.4796733 L75.7942783,33.1962879 L59.4405722,33.1962879 L59.4405722,30.4246856 L76.2,30.4246856 L76.2,26.1664965 L52.2,26.1664965 L52.2,44.9126068 L59.4405722,44.9126068 Z M94.8862385,45.7276551 C96.9033639,45.7276551 98.7385321,45.6091026 100.391743,45.3719977 C102.044954,45.1348927 103.42263,44.8258095 104.524771,44.444748 C105.626911,44.0636864 106.599083,43.5979445 107.441284,43.0475223 C108.283486,42.4971001 108.933333,41.9466779 109.390826,41.3962557 C109.848318,40.8458335 110.22263,40.2446031 110.513761,39.5925645 C110.804893,38.9405258 110.992049,38.3604655 111.075229,37.8523835 C111.15841,37.3443014 111.2,36.8192833 111.2,36.2773291 L111.2,35.5152061 C111.2,34.9563158 111.15841,34.4228297 111.075229,33.9147476 C110.992049,33.4066656 110.804893,32.8308393 110.513761,32.1872687 C110.22263,31.5436981 109.843119,30.9509357 109.375229,30.4089816 C108.907339,29.8670274 108.257492,29.3250732 107.425688,28.783119 C106.593884,28.2411648 105.621713,27.783891 104.509174,27.4112975 C103.396636,27.038704 102.01896,26.7380888 100.376147,26.5094519 C98.7333333,26.280815 96.9033639,26.1664965 94.8862385,26.1664965 L93.5449541,26.1664965 C91.5278287,26.1664965 89.6874618,26.280815 88.0238532,26.5094519 C86.3602446,26.7380888 84.9721713,27.038704 83.859633,27.4112975 C82.7470948,27.783891 81.7749235,28.2411648 80.9431193,28.783119 C80.111315,29.3250732 79.4614679,29.8670274 78.993578,30.4089816 C78.5256881,30.9509357 78.1513761,31.5479321 77.8706422,32.1999708 C77.5899083,32.8520094 77.4079511,33.4278357 77.3247706,33.9274497 C77.2415902,34.4270637 77.2,34.9563158 77.2,35.5152061 L77.2,36.2773291 C77.2,36.8192833 77.2415902,37.3443014 77.3247706,37.8523835 C77.4079511,38.3604655 77.5899083,38.9405258 77.8706422,39.5925645 C78.1513761,40.2446031 78.5256881,40.8458335 78.993578,41.3962557 C79.4614679,41.9466779 80.1165138,42.4971001 80.9587156,43.0475223 C81.8009174,43.5979445 82.7730887,44.0636864 83.8752294,44.444748 C84.97737,44.8258095 86.3602446,45.1348927 88.0238532,45.3719977 C89.6874618,45.6091026 91.5278287,45.7276551 93.5449541,45.7276551 L94.8862385,45.7276551 Z M94.7,40.8373655 C92.8273533,40.8373655 91.2282392,40.673293 89.9026578,40.345148 C88.5770764,40.0170031 87.5934109,39.576598 86.9516611,39.0239329 C86.3099114,38.4712677 85.8575305,37.9186025 85.5945183,37.3659374 C85.3315061,36.8132722 85.2,36.2260654 85.2,35.6043171 L85.2,35.293443 C85.2,31.9256396 88.3666667,30.2417379 94.7,30.2417379 C96.2149502,30.2417379 97.5563123,30.3496803 98.7240864,30.5655651 C99.8918605,30.78145 100.812403,31.0534649 101.485714,31.3816098 C102.159025,31.7097547 102.706091,32.1026651 103.12691,32.560341 C103.54773,33.0180168 103.831783,33.4670573 103.97907,33.9074623 C104.126357,34.3478674 104.2,34.8098609 104.2,35.293443 L104.2,35.6561295 C104.2,36.2778778 104.068494,36.8650845 103.805482,37.4177497 C103.54247,37.9704149 103.084828,38.5187624 102.432558,39.0627921 C101.780288,39.6068219 100.796622,40.0385916 99.4815615,40.3581011 C98.1665006,40.6776107 96.5726467,40.8373655 94.7,40.8373655 Z M129.886239,45.7276551 C131.903364,45.7276551 133.738532,45.6091026 135.391743,45.3719977 C137.044954,45.1348927 138.42263,44.8258095 139.524771,44.444748 C140.626911,44.0636864 141.599083,43.5979445 142.441284,43.0475223 C143.283486,42.4971001 143.933333,41.9466779 144.390826,41.3962557 C144.848318,40.8458335 145.22263,40.2446031 145.513761,39.5925645 C145.804893,38.9405258 145.992049,38.3604655 146.075229,37.8523835 C146.15841,37.3443014 146.2,36.8192833 146.2,36.2773291 L146.2,35.5152061 C146.2,34.9563158 146.15841,34.4228297 146.075229,33.9147476 C145.992049,33.4066656 145.804893,32.8308393 145.513761,32.1872687 C145.22263,31.5436981 144.843119,30.9509357 144.375229,30.4089816 C143.907339,29.8670274 143.257492,29.3250732 142.425688,28.783119 C141.593884,28.2411648 140.621713,27.783891 139.509174,27.4112975 C138.396636,27.038704 137.01896,26.7380888 135.376147,26.5094519 C133.733333,26.280815 131.903364,26.1664965 129.886239,26.1664965 L128.544954,26.1664965 C126.527829,26.1664965 124.687462,26.280815 123.023853,26.5094519 C121.360245,26.7380888 119.972171,27.038704 118.859633,27.4112975 C117.747095,27.783891 116.774924,28.2411648 115.943119,28.783119 C115.111315,29.3250732 114.461468,29.8670274 113.993578,30.4089816 C113.525688,30.9509357 113.151376,31.5479321 112.870642,32.1999708 C112.589908,32.8520094 112.407951,33.4278357 112.324771,33.9274497 C112.24159,34.4270637 112.2,34.9563158 112.2,35.5152061 L112.2,36.2773291 C112.2,36.8192833 112.24159,37.3443014 112.324771,37.8523835 C112.407951,38.3604655 112.589908,38.9405258 112.870642,39.5925645 C113.151376,40.2446031 113.525688,40.8458335 113.993578,41.3962557 C114.461468,41.9466779 115.116514,42.4971001 115.958716,43.0475223 C116.800917,43.5979445 117.773089,44.0636864 118.875229,44.444748 C119.97737,44.8258095 121.360245,45.1348927 123.023853,45.3719977 C124.687462,45.6091026 126.527829,45.7276551 128.544954,45.7276551 L129.886239,45.7276551 Z M129.7,40.8373655 C127.827353,40.8373655 126.228239,40.673293 124.902658,40.345148 C123.577076,40.0170031 122.593411,39.576598 121.951661,39.0239329 C121.309911,38.4712677 120.85753,37.9186025 120.594518,37.3659374 C120.331506,36.8132722 120.2,36.2260654 120.2,35.6043171 L120.2,35.293443 C120.2,31.9256396 123.366667,30.2417379 129.7,30.2417379 C131.21495,30.2417379 132.556312,30.3496803 133.724086,30.5655651 C134.89186,30.78145 135.812403,31.0534649 136.485714,31.3816098 C137.159025,31.7097547 137.706091,32.1026651 138.12691,32.560341 C138.54773,33.0180168 138.831783,33.4670573 138.97907,33.9074623 C139.126357,34.3478674 139.2,34.8098609 139.2,35.293443 L139.2,35.6561295 C139.2,36.2778778 139.068494,36.8650845 138.805482,37.4177497 C138.54247,37.9704149 138.084828,38.5187624 137.432558,39.0627921 C136.780288,39.6068219 135.796622,40.0385916 134.481561,40.3581011 C133.166501,40.6776107 131.572647,40.8373655 129.7,40.8373655 Z M164.243222,44.9126068 C166.780878,44.9126068 169.024165,44.7236339 170.973084,44.3456882 C172.922004,43.9677424 174.464898,43.4806123 175.601768,42.8842979 C176.738638,42.2879834 177.66742,41.5740858 178.388114,40.7426051 C179.108808,39.9111244 179.590963,39.1006407 179.834578,38.311154 C180.078193,37.5216673 180.2,36.6817878 180.2,35.7915155 L180.2,35.035624 C180.2,34.2797324 180.103569,33.5700343 179.910707,32.9065295 C179.717845,32.2430247 179.408251,31.5669217 178.981925,30.8782205 C178.555599,30.1895193 177.936411,29.5722079 177.124361,29.0262862 C176.312312,28.4803645 175.337852,27.9848356 174.200982,27.5396995 C173.064113,27.0945634 171.643026,26.7544122 169.937721,26.5192459 C168.232417,26.2840796 166.3241,26.1664965 164.21277,26.1664965 L149.2,26.1664965 L149.2,44.9126068 L164.243222,44.9126068 Z M156.2,40.8373655 L156.2,31.0567862 L163.804436,31.0567862 C170.068145,31.0567862 173.2,32.6575494 173.2,35.8590757 L173.2,36.009933 C173.2,39.2282213 170.068145,40.8373655 163.804436,40.8373655 L156.2,40.8373655 Z M196.748936,45.7276551 C198.970213,45.7276551 200.908688,45.6048686 202.564362,45.3592956 C204.220035,45.1137226 205.526064,44.7961714 206.482447,44.4066418 C207.43883,44.0171122 208.204965,43.5344343 208.780851,42.958608 C209.356738,42.3827817 209.737234,41.8196574 209.92234,41.2692352 C210.107447,40.718813 210.2,40.0964125 210.2,39.4020337 L210.2,39.0463763 C210.2,37.1495366 209.253901,35.756545 207.361702,34.8674015 C205.469504,33.9782579 202.374113,33.499814 198.075532,33.4320697 L194.219149,33.3812615 C192.738298,33.3643254 191.586525,33.2711771 190.76383,33.1018164 C189.941135,32.9324557 189.42695,32.7419249 189.221277,32.5302241 C189.015603,32.3185232 188.912766,32.0602482 188.912766,31.755399 C188.912766,31.4336137 189.010461,31.1711046 189.205851,30.9678718 C189.401241,30.764639 189.961702,30.5741082 190.887234,30.3962795 C191.812766,30.2184508 193.139362,30.1295364 194.867021,30.1295364 L195.360638,30.1295364 C199.535816,30.1295364 201.746809,30.8831915 201.993617,32.3905015 L209.459574,32.3905015 L209.459574,32.1364605 C209.459574,31.5267621 209.346454,30.9551698 209.120213,30.4216836 C208.893972,29.8881975 208.477482,29.3504773 207.870745,28.8085231 C207.264007,28.266569 206.482447,27.8092951 205.526064,27.4367016 C204.569681,27.0641081 203.289362,26.7592589 201.685106,26.5221539 C200.080851,26.285049 198.229787,26.1664965 196.131915,26.1664965 L194.003191,26.1664965 C191.514539,26.1664965 189.406383,26.3273892 187.678723,26.6491745 C185.951064,26.9709597 184.660461,27.4239996 183.806915,28.0082939 C182.953369,28.5925883 182.356915,29.1980527 182.017553,29.8246872 C181.678191,30.4513217 181.508511,31.1541686 181.508511,31.9332277 L181.508511,32.1618646 C181.508511,35.6845668 185.241489,37.5305982 192.707447,37.6999589 L196.656383,37.7761712 C198.363475,37.8100433 199.669504,37.9158937 200.574468,38.0937224 C201.479433,38.2715511 202.055319,38.479018 202.302128,38.7161229 C202.548936,38.9532279 202.67234,39.2750132 202.67234,39.6814788 C202.67234,39.969392 202.600355,40.219199 202.456383,40.4308998 C202.312411,40.6426007 202.024468,40.8500675 201.592553,41.0533003 C201.160638,41.2565331 200.471631,41.4131918 199.525532,41.5232762 C198.579433,41.6333607 197.386525,41.6884029 195.946809,41.6884029 L195.514894,41.6884029 C191.134043,41.6884029 188.861348,40.6891749 188.696809,38.6907188 L181.2,38.6907188 L181.2,38.970164 C181.2,39.5629263 181.277128,40.1218166 181.431383,40.6468347 C181.585638,41.1718528 181.935284,41.7603812 182.480319,42.4124198 C183.025355,43.0644584 183.760638,43.6191146 184.68617,44.0763885 C185.611702,44.5336623 186.928014,44.9231919 188.635106,45.2449772 C190.342199,45.5667625 192.337234,45.7276551 194.620213,45.7276551 L196.748936,45.7276551 Z" id="RELAXEDFOODS" fill="#1A1919"></path>
                </g>
                <g id="logo" transform="translate(77.100000, 0.000000)">
                    <rect id="Rectangle" stroke="#000000" stroke-width="2.1" x="0" y="0" width="95.9" height="178.5" rx="47.95"></rect>
                    <g id="cloche1-2" transform="translate(11.200000, 74.900000)">
                        <mask id="mask-2" fill="white">
                            <use xlink:href="#path-1"></use>
                        </mask>
                        <g id="Rectangle"></g>
                        <g id="cloche1" mask="url(#mask-2)" fill="#000000" fill-rule="nonzero">
                            <g transform="translate(4.800000, 27.400000) scale(-1, 1) translate(-4.800000, -27.400000) translate(-21.200000, 4.900000)" id="Shape">
                                <path d="M0.790389218,36.2012727 L50.2084261,36.2012727 C50.220333,36.2012727 50.2316729,36.2024055 50.2396108,36.2012727 C50.6767629,36.2012727 51.03,35.8484184 51.03,35.4123062 C51.03,35.3324467 51.0192271,35.2576847 50.9971144,35.1868872 C50.8786127,21.5915159 40.0348582,10.534657 26.5290682,9.99206555 L26.5290682,8.5466653 C28.533958,8.17455402 30.05747,6.42160975 30.05747,4.31354559 C30.05747,1.93475206 28.1206195,0 25.739246,0 C23.3578725,0 21.421022,1.93475206 21.421022,4.31354559 C21.421022,6.42160975 22.9445341,8.17455402 24.9494238,8.5466653 L24.9494238,9.96827762 C11.1442612,10.2650604 0,21.5535684 0,35.4128726 C0,35.8484184 0.353237075,36.2012727 0.790389218,36.2012727 Z M23.0000994,4.31354559 C23.0000994,2.8058436 24.2287748,1.57849942 25.738112,1.57849942 C27.2474493,1.57849942 28.4761246,2.8058436 28.4761246,4.31354559 C28.4761246,5.82124758 27.2474493,7.04859176 25.738112,7.04859176 C24.2287748,7.04859176 23.0000994,5.82124758 23.0000994,4.31354559 Z M25.4994077,11.5190244 C38.4251631,11.5190244 48.9876887,21.8112711 49.40613,34.6227733 L1.5932523,34.6227733 C2.01112665,21.8118375 12.5736523,11.5190244 25.4994077,11.5190244 Z M19.4104623,15.3873958 C13.1338421,17.2898642 8.04847557,22.1046556 5.80771647,28.2657308 C5.65746314,28.6752231 5.86895179,29.1283267 6.28002222,29.2767181 C6.36904023,29.3090017 6.46032622,29.324294 6.54991122,29.324294 C6.87253064,29.324294 7.17643926,29.1249284 7.29267297,28.8043577 C9.36503494,23.1082799 14.0665467,18.6571041 19.8714282,16.8984961 C20.2876016,16.7721935 20.524038,16.3315503 20.3975984,15.9135623 C20.2705918,15.496707 19.8351406,15.2593941 19.4104623,15.3873958 Z M50.2084261,39.6273018 L0.790389218,39.6273018 C0.353237075,39.6273018 0,39.9801562 0,40.4162683 C0,40.8529468 0.353237075,41.2063676 0.790389218,41.2063676 L50.2084261,41.2063676 C50.6455783,41.2063676 50.9988153,40.8535132 50.9988153,40.4162683 C50.9982484,39.9801562 50.6450113,39.6273018 50.2084261,39.6273018 Z M50.2084261,42.5215006 L0.790389218,42.5215006 C0.353237075,42.5215006 0,42.874355 0,43.3099007 C0,43.7465792 0.353237075,44.1 0.790389218,44.1 L50.2084261,44.1 C50.6455783,44.1 50.9988153,43.7471456 50.9988153,43.3099007 C50.9982484,42.874355 50.6450113,42.5215006 50.2084261,42.5215006 Z"></path>
                            </g>
                        </g>
                    </g>
                    <g id="carrot" transform="translate(60.007143, 79.100000)" fill="#000000" fill-rule="nonzero">
                        <path d="M15.6349884,11.1891559 C15.0606842,10.4303392 14.3459545,9.79367343 13.5250055,9.29211409 C14.0398989,8.97378123 14.480979,8.54440201 14.7960362,7.99842413 C15.296527,7.13226261 15.4387528,6.11618853 15.197509,5.14083143 C14.8266417,3.64910882 13.4691953,2.50162989 11.8687048,2.31840341 C11.5662499,1.57624365 11.0549571,0.948831781 10.3690326,0.530557202 C9.5264797,0.0160424548 8.54170095,-0.130168571 7.58932809,0.117834941 C6.45152157,0.415809309 5.5657608,1.2634631 5.1282814,2.36097118 C4.96445166,2.38132968 4.7988216,2.37392659 4.63859252,2.41649435 C3.68801998,2.66634864 2.88867489,3.2808051 2.38818405,4.14696662 C1.88589288,5.01312813 1.7454674,6.02920222 1.98671118,7.00455931 C2.2297553,7.98176718 2.83826575,8.7942563 3.62140789,9.31802491 C2.81666182,9.81773347 2.11453438,10.4432946 1.54923178,11.1891559 C0.343012842,12.7808202 -0.0854649293,14.7629975 0.37181807,16.6267254 L6.7827817,42.7078111 C6.92680784,43.294506 7.47950816,43.4 8.5921101,43.4 C9.70471205,43.4 10.2574124,43.294506 10.4014385,42.7096619 L16.8142025,16.6267254 C17.2714855,14.7629975 16.8412074,12.782671 15.6349884,11.1891559 Z M3.38196443,6.63995714 C3.23433763,6.04585917 3.32255365,5.42770117 3.62500854,4.90208178 C3.92926377,4.37461163 4.415352,4.00260636 4.99145656,3.85084302 C5.19309316,3.79717062 5.40193107,3.77311058 5.60896864,3.78051367 C5.61076897,3.78051367 5.6125693,3.77866289 5.61616995,3.77866289 C5.62157093,3.77866289 5.62697191,3.78051367 5.63237289,3.78051367 C5.64317485,3.78051367 5.65037616,3.7712598 5.66117812,3.7712598 C5.79620263,3.76385671 5.91682452,3.7175874 6.0230438,3.6435565 C6.04464772,3.62875032 6.06625164,3.61949646 6.08605524,3.60283951 C6.19047419,3.51400243 6.26248726,3.39555299 6.3056951,3.25859583 C6.31109608,3.24378965 6.3254987,3.23638656 6.32909935,3.21972961 C6.5271353,2.3998374 7.14644771,1.75947012 7.94219214,1.55218361 C9.13580879,1.23940306 10.3510294,1.98156282 10.6552846,3.2067742 C10.6588852,3.21787883 10.6660865,3.2271327 10.6696872,3.23823733 C10.734499,3.50104702 10.9145316,3.69537813 11.2007836,3.74164744 C11.2313891,3.74905053 11.2619947,3.75090131 11.2944006,3.75460285 C11.3232058,3.75460285 11.3448097,3.76755826 11.373615,3.76570749 C12.4628127,3.74719976 13.5520104,4.51341956 13.7986551,5.50728438 C13.9462819,6.10138235 13.8598662,6.71768958 13.555611,7.24515974 C13.2513558,7.77262989 12.7670679,8.14463516 12.1909633,8.2963985 L11.9281156,8.37413094 C11.8525019,8.39819099 11.7498833,8.42780335 11.6742695,8.4444603 C10.9325349,8.20385988 10.1367905,8.06320117 9.31224081,8.00767799 L9.31224081,5.13157757 C9.31224081,4.72255685 8.98998232,4.39126858 8.5921101,4.39126858 C8.19423789,4.39126858 7.87197939,4.72255685 7.87197939,5.13157757 L7.87197939,8.00767799 C7.04562941,8.06320117 6.24988497,8.20385988 5.50635002,8.4444603 C4.53957454,8.40744485 3.63220985,7.65047891 3.38196443,6.63995714 Z M15.4171489,16.263974 L13.5916175,23.6929747 L10.0053666,23.6929747 C9.6074944,23.6929747 9.28523591,24.0261138 9.28523591,24.4332837 C9.28523591,24.8404536 9.6074944,25.1735927 10.0053666,25.1735927 L13.2279515,25.1735927 L9.11600519,41.9008743 C8.84415585,41.919382 8.34366501,41.919382 8.07181567,41.9008743 L5.75839577,32.4859947 L8.29865684,32.4859947 C8.69652905,32.4859947 9.01878755,32.1528557 9.01878755,31.7456857 C9.01878755,31.3385158 8.69652905,31.0053767 8.29865684,31.0053767 L5.39472976,31.0053767 L2.42959157,18.9438925 L5.63237289,18.9438925 C6.03024511,18.9438925 6.3525036,18.6126043 6.3525036,18.2035835 C6.3525036,17.7945628 6.03024511,17.4632746 5.63237289,17.4632746 L2.06232491,17.4632746 L1.76707132,16.263974 C1.41420727,14.8259238 1.74006642,13.3471566 2.68523797,12.0997359 C3.95986932,10.4173838 6.11306014,9.4531313 8.5921101,9.4531313 C11.0711601,9.4531313 13.2243509,10.4173838 14.4989822,12.1015867 C15.4459541,13.3471566 15.7700129,14.8259238 15.4171489,16.263974 Z" id="Shape"></path>
                    </g>
                    <g id="leaf" transform="translate(29.700000, 148.300000) scale(-1, 1) translate(-29.700000, -148.300000) translate(9.700000, 128.800000)" fill="#000000" fill-rule="nonzero">
                        <path d="M2.68932736,38.6951952 C2.27484519,38.6951952 2.03924791,38.6821138 2.01350529,38.6803726 C1.64576211,38.6550333 1.33138453,38.4065041 1.22206926,38.0547079 C-0.603984963,32.6329031 -0.00282307215,26.6876288 2.87169701,21.7404842 C11.4056137,6.76914177 37.1897425,0.479902839 38.2830937,0.219561171 C38.5742709,0.1501588 38.8808772,0.231151751 39.099702,0.435275913 C39.3185267,0.639400075 39.4204642,0.939505096 39.3711998,1.23456865 C33.4061933,37.1007051 7.24686196,38.6951952 2.68932736,38.6951952 Z M2.75040913,36.9215483 C7.02434597,36.9969739 31.1531731,35.8721007 37.3686185,2.30800031 C31.9498452,3.81347449 11.5002923,10.2069983 4.42316146,22.6268746 C1.90681995,26.9540376 1.30102189,32.1309461 2.75040913,36.9215483 Z" id="Shape"></path>
                        <path d="M3.16308961,37.9951952 C2.80519115,37.9951952 2.48297664,37.7808492 2.34818913,37.453131 C2.21340162,37.1254128 2.29291359,36.749647 2.54927983,36.5027961 L21.0895283,18.6420072 C21.4375434,18.3068046 21.9945758,18.3139328 22.333695,18.6579285 C22.6728142,19.0019242 22.6656028,19.5525233 22.3175877,19.887726 L3.77688179,37.7485149 C3.61281115,37.9069453 3.39245668,37.9955045 3.16308961,37.9951952 L3.16308961,37.9951952 Z" id="Path"></path>
                    </g>
                    <g id="arc" transform="translate(9.800000, 11.900000)">
                        <mask id="mask-4" fill="white">
                            <use xlink:href="#path-3"></use>
                        </mask>
                        <g id="Rectangle"></g>
                        <rect id="Rectangle" stroke="#000000" stroke-width="1.4" mask="url(#mask-4)" x="2.1" y="2.1" width="72.1" height="95.2" rx="33.95"></rect>
                        <circle id="Oval" stroke="#000000" stroke-width="1.4" mask="url(#mask-4)" cx="37.1" cy="60.9" r="11.2"></circle>
                        <line x1="1.68082262" y1="46.4093166" x2="25.9" y2="57.1650717" id="Path-4" stroke="#000000" stroke-width="1.4" mask="url(#mask-4)"></line>
                        <line x1="3.74278844" y1="28.2557551" x2="29.8032188" y2="52.5" id="Path-4-Copy" stroke="#000000" stroke-width="1.4" mask="url(#mask-4)"></line>
                        <line x1="15.9010464" y1="9.48644002" x2="33.0970637" y2="49.7" id="Path-4-Copy-2" stroke="#000000" stroke-width="1.4" mask="url(#mask-4)"></line>
                        <line x1="37.1" y1="2.1" x2="37.1" y2="49.7" id="Path-4-Copy-3" stroke="#000000" stroke-width="1.4" mask="url(#mask-4)"></line>
                        <line x1="41.3" y1="8.07107015" x2="59.1506699" y2="50.01356" id="Path-4-Copy-2" stroke="#000000" stroke-width="1.4" mask="url(#mask-4)" transform="translate(50.225335, 29.042315) scale(1, -1) translate(-50.225335, -29.042315) "></line>
                        <line x1="45.3409094" y1="27.3" x2="72.9604303" y2="52.9147956" id="Path-4-Copy" stroke="#000000" stroke-width="1.4" mask="url(#mask-4)" transform="translate(59.150670, 40.107398) scale(1, -1) translate(-59.150670, -40.107398) "></line>
                        <line x1="47.3425207" y1="44.6714218" x2="74.2" y2="56.640398" id="Path-4" stroke="#000000" stroke-width="1.4" mask="url(#mask-4)" transform="translate(60.771260, 50.655910) scale(1, -1) translate(-60.771260, -50.655910) "></line>
                    </g>
                    <line x1="11.2153984" y1="72.1" x2="84.7" y2="72.1" id="Path-9" stroke="#000000" stroke-width="1.4"></line>
                    <path d="M37.0522079,130.154565 C51.0451061,138.399569 58.0415552,150.190301 58.0415552,165.52676 C58.0415552,166.424683 66.989707,162.86371 75.5632181,153.484364 C81.2788922,147.231466 84.324618,139.020502 84.7003956,128.851471 L37.4075674,128.851471 C37.0209672,128.85147 36.7075658,129.164871 36.7075658,129.551471 C36.7075658,129.799343 36.8386517,130.028732 37.0522079,130.154565 Z" id="Path-10" stroke="#000000" stroke-width="1.4"></path>
                </g>
            </g>
        </g>
    </g>
</svg>