<?xml version="1.0" encoding="UTF-8"?>
<svg width="185px" height="251px" viewBox="0 0 185 251" version="1.1" xmlns="http://www.w3.org/2000/svg" xmlns:xlink="http://www.w3.org/1999/xlink">
    <!-- Generator: Sketch 64 (93537) - https://sketch.com -->
    <title>Artboard</title>
    <desc>Created with Sketch.</desc>
    <defs>
        <rect id="path-1" x="0" y="0" width="38.43" height="46.62"></rect>
        <rect id="path-3" x="0" y="0" width="69.3" height="53.55"></rect>
    </defs>
    <g id="Artboard" stroke="none" stroke-width="1" fill="none" fill-rule="evenodd">
        <path d="M6.45551023,201.727273 L6.45551023,195.791789 L14.8781502,195.791789 C16.4481598,195.791789 17.5564019,196.024112 18.2028765,196.488759 C18.849351,196.953405 19.1725883,197.702835 19.1725883,198.737048 L19.1725883,200.670577 C19.1725883,201.1652 19.2741772,201.517432 19.4773549,201.727273 L26.0436893,201.727273 L26.0436893,201.614858 C25.7850995,201.195178 25.6558046,200.513196 25.6558046,199.568915 L25.6558046,197.11828 C25.6558046,196.114044 25.2910082,195.282177 24.5614155,194.622678 C23.8318228,193.96318 22.8944347,193.513522 21.7492512,193.273705 C22.1556066,193.168785 22.548109,193.037634 22.9267584,192.880254 C23.3054078,192.722874 23.7117632,192.505539 24.1458247,192.22825 C24.5798862,191.950961 24.9262119,191.583741 25.1848017,191.126588 C25.4433915,190.669436 25.5726864,190.163571 25.5726864,189.608993 L25.5726864,189.339198 C25.5726864,186.446399 22.5896681,185 16.6236315,185 L0,185 L0,201.727273 L6.45551023,201.727273 Z M6.28640777,192.272727 L6.28640777,189.363636 L16.2152755,189.363636 C17.1153428,189.363636 17.7810176,189.496472 18.2122999,189.762142 C18.6435822,190.027812 18.8592233,190.373184 18.8592233,190.798257 L18.8592233,190.818182 C18.8592233,191.256538 18.6388943,191.608551 18.1982364,191.874222 C17.7575784,192.139892 17.0965914,192.272727 16.2152755,192.272727 L6.28640777,192.272727 Z M49.3932039,201.727273 L49.3932039,197.837732 L34.0832335,197.837732 L34.0832335,195.094819 L48.7688611,195.094819 L48.7688611,191.272727 L34.0832335,191.272727 L34.0832335,188.799609 L49.1217505,188.799609 L49.1217505,185 L27.8398058,185 L27.8398058,201.727273 L49.3932039,201.727273 Z M72.7427184,201.727273 L72.7427184,197.567937 L58.5043042,197.567937 L58.5043042,185 L52.0873786,185 L52.0873786,201.727273 L72.7427184,201.727273 Z M80.1683916,201.727273 L82.013751,198.669599 L94.4354992,198.669599 L96.3634867,201.727273 L103.276699,201.727273 L92.3147129,185 L83.9968239,185 L73.6407767,201.727273 L80.1683916,201.727273 Z M92.5,195.181818 L84.4174757,195.181818 L88.3727536,188.636364 L92.5,195.181818 Z M110.355205,201.727273 L116.636401,196.533724 L122.973184,201.727273 L131.116505,201.727273 L120.972094,193.16129 L130.894162,185 L122.945391,185 L117.108881,189.901271 L111.27237,185 L102.600984,185 L112.662016,193.273705 L102.378641,201.727273 L110.355205,201.727273 Z M154.466019,201.727273 L154.466019,197.837732 L139.156049,197.837732 L139.156049,195.094819 L153.841677,195.094819 L153.841677,191.272727 L139.156049,191.272727 L139.156049,188.799609 L154.194566,188.799609 L154.194566,185 L132.912621,185 L132.912621,201.727273 L154.466019,201.727273 Z M170.669884,201.727273 C172.948846,201.727273 174.963449,201.558651 176.713692,201.221408 C178.463936,200.884164 179.849545,200.449495 180.87052,199.9174 C181.891495,199.385305 182.725595,198.748289 183.372821,198.006354 C184.020046,197.264418 184.453049,196.541219 184.671829,195.836755 C184.89061,195.132291 185,194.382861 185,193.588465 L185,192.913978 C185,192.239492 184.913399,191.606224 184.740198,191.014174 C184.566997,190.422124 184.288964,189.818833 183.906098,189.204301 C183.523232,188.589769 182.967165,188.038938 182.237897,187.551808 C181.508629,187.064679 180.633508,186.622515 179.612533,186.225318 C178.591557,185.82812 177.315338,185.524601 175.783876,185.314761 C174.252413,185.10492 172.538633,185 170.642536,185 L157.160194,185 L157.160194,201.727273 L170.669884,201.727273 Z M163.446602,198.090909 L163.446602,189.363636 L170.275829,189.363636 C175.901004,189.363636 178.713592,190.792007 178.713592,193.64875 L178.713592,193.783361 C178.713592,196.65506 175.901004,198.090909 170.275829,198.090909 L163.446602,198.090909 Z M28.0558536,224.272727 L28.0558536,217.640274 L42.7424344,217.640274 L42.7424344,213.818182 L28.0558536,213.818182 L28.0558536,211.345064 L43.1067961,211.345064 L43.1067961,207.545455 L21.5533981,207.545455 L21.5533981,224.272727 L28.0558536,224.272727 Z M59.8881268,225 C61.6996229,225 63.3477109,224.894215 64.8323907,224.682645 C66.3170705,224.471074 67.5543036,224.195277 68.5440901,223.855254 C69.5338767,223.51523 70.4069431,223.099646 71.1632894,222.608501 C71.9196357,222.117355 72.5032362,221.62621 72.914091,221.135065 C73.3249458,220.64392 73.6610997,220.107438 73.9225528,219.52562 C74.1840058,218.943802 74.3520828,218.42621 74.4267836,217.972845 C74.5014845,217.519481 74.538835,217.051004 74.538835,216.567414 L74.538835,215.887367 C74.538835,215.388666 74.5014845,214.912633 74.4267836,214.459268 C74.3520828,214.005903 74.1840058,213.49209 73.9225528,212.917828 C73.6610997,212.343566 73.320277,211.81464 72.9000846,211.331051 C72.4798922,210.847462 71.8962917,210.363872 71.149283,209.880283 C70.4022743,209.396694 69.5292079,208.988666 68.5300837,208.656198 C67.5309596,208.323731 66.2937264,208.05549 64.8183843,207.851476 C63.3430421,207.647462 61.6996229,207.545455 59.8881268,207.545455 L58.6835753,207.545455 C56.8720792,207.545455 55.2193225,207.647462 53.7253051,207.851476 C52.2312877,208.05549 50.9847169,208.323731 49.9855928,208.656198 C48.9864686,208.988666 48.1134022,209.396694 47.3663935,209.880283 C46.6193848,210.363872 46.0357843,210.847462 45.6155919,211.331051 C45.1953995,211.81464 44.8592456,212.347344 44.6071301,212.929162 C44.3550147,213.51098 44.1916065,214.024793 44.1169057,214.470602 C44.0422048,214.916411 44.0048544,215.388666 44.0048544,215.887367 L44.0048544,216.567414 C44.0048544,217.051004 44.0422048,217.519481 44.1169057,217.972845 C44.1916065,218.42621 44.3550147,218.943802 44.6071301,219.52562 C44.8592456,220.107438 45.1953995,220.64392 45.6155919,221.135065 C46.0357843,221.62621 46.6240536,222.117355 47.3803999,222.608501 C48.1367462,223.099646 49.0098127,223.51523 49.9995992,223.855254 C50.9893857,224.195277 52.2312877,224.471074 53.7253051,224.682645 C55.2193225,224.894215 56.8720792,225 58.6835753,225 L59.8881268,225 Z M59.7208738,220.636364 C58.0391279,220.636364 56.6030304,220.489961 55.412581,220.197155 C54.2221317,219.904349 53.3387428,219.511373 52.7624141,219.018226 C52.1860855,218.52508 51.779821,218.031933 51.5436208,217.538786 C51.3074205,217.04564 51.1893204,216.521671 51.1893204,215.966882 L51.1893204,215.689487 C51.1893204,212.684374 54.0331715,211.181818 59.7208738,211.181818 C61.0813873,211.181818 62.2860086,211.278136 63.3347378,211.470771 C64.3834669,211.663407 65.2101678,211.906127 65.8148405,212.198933 C66.4195132,212.491739 66.9108097,212.842335 67.2887301,213.250722 C67.6666505,213.659109 67.9217468,214.059791 68.054019,214.452767 C68.1862911,214.845743 68.2524272,215.257983 68.2524272,215.689487 L68.2524272,216.013114 C68.2524272,216.567904 68.1343271,217.091872 67.8981268,217.585019 C67.6619265,218.078166 67.2509381,218.567459 66.6651614,219.052901 C66.0793848,219.538342 65.1959958,219.923613 64.0149945,220.208713 C62.8339932,220.493813 61.4026196,220.636364 59.7208738,220.636364 Z M91.3201657,225 C93.1316618,225 94.7797497,224.894215 96.2644295,224.682645 C97.7491093,224.471074 98.9863424,224.195277 99.976129,223.855254 C100.965916,223.51523 101.838982,223.099646 102.595328,222.608501 C103.351675,222.117355 103.935275,221.62621 104.34613,221.135065 C104.756985,220.64392 105.093139,220.107438 105.354592,219.52562 C105.616045,218.943802 105.784122,218.42621 105.858822,217.972845 C105.933523,217.519481 105.970874,217.051004 105.970874,216.567414 L105.970874,215.887367 C105.970874,215.388666 105.933523,214.912633 105.858822,214.459268 C105.784122,214.005903 105.616045,213.49209 105.354592,212.917828 C105.093139,212.343566 104.752316,211.81464 104.332123,211.331051 C103.911931,210.847462 103.328331,210.363872 102.581322,209.880283 C101.834313,209.396694 100.961247,208.988666 99.9621226,208.656198 C98.9629984,208.323731 97.7257653,208.05549 96.2504231,207.851476 C94.7750809,207.647462 93.1316618,207.545455 91.3201657,207.545455 L90.1156141,207.545455 C88.304118,207.545455 86.6513613,207.647462 85.1573439,207.851476 C83.6633265,208.05549 82.4167557,208.323731 81.4176316,208.656198 C80.4185075,208.988666 79.545441,209.396694 78.7984324,209.880283 C78.0514237,210.363872 77.4678231,210.847462 77.0476307,211.331051 C76.6274383,211.81464 76.2912844,212.347344 76.039169,212.929162 C75.7870535,213.51098 75.6236454,214.024793 75.5489445,214.470602 C75.4742436,214.916411 75.4368932,215.388666 75.4368932,215.887367 L75.4368932,216.567414 C75.4368932,217.051004 75.4742436,217.519481 75.5489445,217.972845 C75.6236454,218.42621 75.7870535,218.943802 76.039169,219.52562 C76.2912844,220.107438 76.6274383,220.64392 77.0476307,221.135065 C77.4678231,221.62621 78.0560925,222.117355 78.8124388,222.608501 C79.5687851,223.099646 80.4418515,223.51523 81.431638,223.855254 C82.4214245,224.195277 83.6633265,224.471074 85.1573439,224.682645 C86.6513613,224.894215 88.304118,225 90.1156141,225 L91.3201657,225 Z M91.1529126,220.636364 C89.4711668,220.636364 88.0350692,220.489961 86.8446199,220.197155 C85.6541706,219.904349 84.7707816,219.511373 84.194453,219.018226 C83.6181243,218.52508 83.2118599,218.031933 82.9756596,217.538786 C82.7394594,217.04564 82.6213592,216.521671 82.6213592,215.966882 L82.6213592,215.689487 C82.6213592,212.684374 85.4652104,211.181818 91.1529126,211.181818 C92.5134261,211.181818 93.7180474,211.278136 94.7667766,211.470771 C95.8155058,211.663407 96.6422067,211.906127 97.2468793,212.198933 C97.851552,212.491739 98.3428485,212.842335 98.720769,213.250722 C99.0986894,213.659109 99.3537857,214.059791 99.4860578,214.452767 C99.6183299,214.845743 99.684466,215.257983 99.684466,215.689487 L99.684466,216.013114 C99.684466,216.567904 99.5663659,217.091872 99.3301656,217.585019 C99.0939654,218.078166 98.6829769,218.567459 98.0972003,219.052901 C97.5114236,219.538342 96.6280347,219.923613 95.4470334,220.208713 C94.2660321,220.493813 92.8346585,220.636364 91.1529126,220.636364 Z M122.174738,224.272727 C124.453701,224.272727 126.468304,224.104106 128.218547,223.766862 C129.96879,223.429619 131.354399,222.994949 132.375374,222.462854 C133.39635,221.930759 134.23045,221.293744 134.877675,220.551808 C135.5249,219.809873 135.957903,219.086673 136.176684,218.382209 C136.395464,217.677745 136.504854,216.928315 136.504854,216.13392 L136.504854,215.459433 C136.504854,214.784946 136.418254,214.151678 136.245053,213.559629 C136.071851,212.967579 135.793818,212.364288 135.410952,211.749756 C135.028087,211.135223 134.47202,210.584392 133.742752,210.097263 C133.013484,209.610134 132.138362,209.16797 131.117387,208.770772 C130.096412,208.373574 128.820193,208.070055 127.28873,207.860215 C125.757267,207.650375 124.043487,207.545455 122.147391,207.545455 L108.665049,207.545455 L108.665049,224.272727 L122.174738,224.272727 Z M114.951456,220.636364 L114.951456,211.909091 L121.780683,211.909091 C127.405859,211.909091 130.218447,213.337462 130.218447,216.194204 L130.218447,216.328815 C130.218447,219.200514 127.405859,220.636364 121.780683,220.636364 L114.951456,220.636364 Z M151.366763,225 C153.361599,225 155.102462,224.890437 156.589354,224.671311 C158.076245,224.452184 159.249135,224.168831 160.108023,223.821251 C160.96691,223.473672 161.654944,223.042975 162.172124,222.529162 C162.689303,222.015348 163.031011,221.512869 163.197247,221.021724 C163.363484,220.530579 163.446602,219.975207 163.446602,219.355608 L163.446602,219.038253 C163.446602,217.345691 162.59695,216.102715 160.897645,215.309327 C159.198341,214.515939 156.4185,214.08902 152.558123,214.028571 L149.094867,213.983235 C147.764976,213.968123 146.730617,213.885006 145.991789,213.733884 C145.252961,213.582763 144.791193,213.412751 144.606486,213.223849 C144.421779,213.034947 144.329426,212.804486 144.329426,212.532468 C144.329426,212.245336 144.417162,212.011098 144.592633,211.829752 C144.768105,211.648406 145.271432,211.478394 146.102613,211.319717 C146.933795,211.161039 148.125155,211.0817 149.676694,211.0817 L150.119991,211.0817 C153.869543,211.0817 155.855144,211.754191 156.076792,213.099174 L162.781657,213.099174 L162.781657,212.872491 C162.781657,212.328453 162.680068,211.818418 162.47689,211.342385 C162.273712,210.866352 161.899681,210.386541 161.354795,209.902952 C160.809909,209.419362 160.108023,209.011334 159.249135,208.678867 C158.390247,208.346399 157.240446,208.07438 155.799731,207.86281 C154.359017,207.65124 152.696654,207.545455 150.812642,207.545455 L148.900924,207.545455 C146.665969,207.545455 144.772723,207.68902 143.221184,207.976151 C141.669645,208.263282 140.510608,208.667532 139.744074,209.188902 C138.97754,209.710272 138.44189,210.250531 138.137123,210.809681 C137.832356,211.368831 137.679973,211.995986 137.679973,212.691145 L137.679973,212.895159 C137.679973,216.038489 141.032405,217.685714 147.73727,217.836836 L151.283645,217.904841 C152.816713,217.935065 153.989603,218.029516 154.802314,218.188194 C155.615024,218.346871 156.132204,218.531995 156.353853,218.743566 C156.575501,218.955136 156.686325,219.242267 156.686325,219.604959 C156.686325,219.861865 156.621678,220.08477 156.492383,220.273672 C156.363088,220.462574 156.104498,220.647698 155.716613,220.829044 C155.328729,221.01039 154.70996,221.150177 153.860308,221.248406 C153.010656,221.346635 151.939355,221.39575 150.646406,221.39575 L150.258521,221.39575 C146.324262,221.39575 144.283249,220.504132 144.135483,218.720897 L137.402913,218.720897 L137.402913,218.970248 C137.402913,219.499174 137.472178,219.997875 137.610708,220.466352 C137.749238,220.934829 138.06324,221.459976 138.552714,222.041795 C139.042187,222.623613 139.702515,223.118536 140.533697,223.526564 C141.364878,223.934593 142.547003,224.282172 144.080071,224.569303 C145.61314,224.856434 147.404798,225 149.455045,225 L151.366763,225 Z" id="RELAXEDFOODS" fill="#1A1919" fill-rule="nonzero"></path>
        <g id="logo" transform="translate(49.000000, 9.000000)">
            <rect id="Rectangle" stroke="#000000" stroke-width="1.89" x="0" y="0" width="86.31" height="160.65" rx="43.155"></rect>
            <g id="cloche1-2" transform="translate(10.080000, 67.410000)">
                <mask id="mask-2" fill="white">
                    <use xlink:href="#path-1"></use>
                </mask>
                <g id="Rectangle"></g>
                <g id="cloche1" mask="url(#mask-2)" fill="#000000" fill-rule="nonzero">
                    <g transform="translate(4.720000, 24.410000) scale(-1, 1) translate(-4.720000, -24.410000) translate(-18.280000, 4.410000)" id="Shape">
                        <path d="M0.711350296,32.5811455 L45.1875835,32.5811455 C45.1982997,32.5811455 45.2085056,32.582165 45.2156497,32.5811455 C45.6090866,32.5811455 45.927,32.2635765 45.927,31.8710756 C45.927,31.7992021 45.9173044,31.7319162 45.8974029,31.6681985 C45.7907514,19.4323643 36.0313724,9.48119132 23.8761614,8.992859 L23.8761614,7.69199877 C25.6805622,7.35709862 27.051723,5.77944878 27.051723,3.88219103 C27.051723,1.74127686 25.3085576,0 23.1653214,0 C21.0220852,0 19.2789198,1.74127686 19.2789198,3.88219103 C19.2789198,5.77944878 20.6500807,7.35709862 22.4544814,7.69199877 L22.4544814,8.97144985 C10.0298351,9.23855438 0,19.3982116 0,31.8715853 C0,32.2635765 0.317913368,32.5811455 0.711350296,32.5811455 Z M20.7000895,3.88219103 C20.7000895,2.52525924 21.8058973,1.42064947 23.1643008,1.42064947 C24.5227043,1.42064947 25.6285121,2.52525924 25.6285121,3.88219103 C25.6285121,5.23912282 24.5227043,6.34373258 23.1643008,6.34373258 C21.8058973,6.34373258 20.7000895,5.23912282 20.7000895,3.88219103 Z M22.9494669,10.367122 C34.5826467,10.367122 44.0889198,19.630144 44.465517,31.160496 L1.43392707,31.160496 C1.81001399,19.6306537 11.3162871,10.367122 22.9494669,10.367122 Z M17.4694161,13.8486562 C11.8204579,15.5608778 7.24362802,19.8941901 5.22694482,25.4391578 C5.09171683,25.8077008 5.28205661,26.215494 5.65202,26.3490463 C5.73213621,26.3781015 5.8142936,26.3918646 5.8949201,26.3918646 C6.18527757,26.3918646 6.45879534,26.2124356 6.56340567,25.9239219 C8.42853145,20.7974519 12.659892,16.7913937 17.8842854,15.2086465 C18.2588414,15.0949741 18.4716342,14.6983953 18.3578385,14.3222061 C18.2435326,13.9470363 17.8516265,13.7334547 17.4694161,13.8486562 Z M45.1875835,35.6645716 L0.711350296,35.6645716 C0.317913368,35.6645716 0,35.9821406 0,36.3746415 C0,36.7676522 0.317913368,37.0857308 0.711350296,37.0857308 L45.1875835,37.0857308 C45.5810204,37.0857308 45.8989338,36.7681619 45.8989338,36.3746415 C45.8984235,35.9821406 45.5805101,35.6645716 45.1875835,35.6645716 Z M45.1875835,38.2693505 L0.711350296,38.2693505 C0.317913368,38.2693505 0,38.5869195 0,38.9789107 C0,39.3719213 0.317913368,39.69 0.711350296,39.69 L45.1875835,39.69 C45.5810204,39.69 45.8989338,39.3724311 45.8989338,38.9789107 C45.8984235,38.5869195 45.5805101,38.2693505 45.1875835,38.2693505 Z"></path>
                    </g>
                </g>
            </g>
            <g id="carrot" transform="translate(54.006429, 71.190000)" fill="#000000" fill-rule="nonzero">
                <path d="M14.0714896,10.0702403 C13.5546158,9.38730525 12.911359,8.81430609 12.1725049,8.36290268 C12.635909,8.0764031 13.0328811,7.68996181 13.3164325,7.19858172 C13.7668743,6.41903635 13.8948775,5.50456967 13.6777581,4.62674829 C13.3439775,3.28419794 12.1222758,2.2514669 10.6818343,2.08656307 C10.4096249,1.41861928 9.94946141,0.853948603 9.33212936,0.477501482 C8.57383173,0.0144382094 7.68753086,-0.117151713 6.83039528,0.106051447 C5.80636942,0.374228378 5.00918472,1.13711679 4.61545326,2.12487406 C4.46800649,2.14319671 4.31893944,2.13653393 4.17473326,2.17484492 C3.31921798,2.39971377 2.59980741,2.95272459 2.14936565,3.73226995 C1.6973036,4.51181532 1.57092066,5.426282 1.78804006,6.30410338 C2.00677977,7.18359046 2.55443917,7.91483067 3.2592671,8.38622241 C2.53499564,8.83596013 1.90308095,9.39896511 1.3943086,10.0702403 C0.308711558,11.5027382 -0.0769184364,13.2866978 0.334636263,14.9640529 L6.10450353,38.43703 C6.23412706,38.9650554 6.73155734,39.06 7.73289909,39.06 C8.73424084,39.06 9.23167113,38.9650554 9.36129466,38.4386957 L15.1327822,14.9640529 C15.5443369,13.2866978 15.1570866,11.5044039 14.0714896,10.0702403 Z M3.04376799,5.97596142 C2.91090387,5.44127326 2.99029828,4.88493105 3.26250769,4.41187361 C3.53633739,3.93715047 3.9738168,3.60234573 4.49231091,3.46575872 C4.67378384,3.41745356 4.86173796,3.39579952 5.04807178,3.4024623 C5.04969207,3.4024623 5.05131237,3.4007966 5.05455296,3.4007966 C5.05941384,3.4007966 5.06427472,3.4024623 5.0691356,3.4024623 C5.07885737,3.4024623 5.08533854,3.39413382 5.09506031,3.39413382 C5.21658237,3.38747104 5.32514207,3.34582866 5.42073942,3.27920085 C5.44018295,3.26587529 5.45962648,3.25754681 5.47744971,3.24255556 C5.57142677,3.16260219 5.63623854,3.05599769 5.67512559,2.93273625 C5.67998648,2.91941068 5.69294883,2.9127479 5.69618942,2.89775665 C5.87442177,2.15985366 6.43180294,1.58352311 7.14797292,1.39696525 C8.22222791,1.11546275 9.31592642,1.78340654 9.58975612,2.88609678 C9.59299671,2.89609095 9.59947789,2.90441943 9.60271848,2.9144136 C9.66104906,3.15094232 9.82307847,3.32584032 10.0807052,3.3674827 C10.1082502,3.37414548 10.1357952,3.37581118 10.1649605,3.37914257 C10.1908852,3.37914257 10.2103288,3.39080243 10.2362535,3.38913674 C11.2165314,3.37247978 12.1968093,4.06207761 12.4187896,4.95655594 C12.5516537,5.49124411 12.4738796,6.04592062 12.2000499,6.52064376 C11.9262202,6.9953669 11.4903611,7.33017164 10.971867,7.46675865 L10.735304,7.53671785 C10.6672517,7.55837189 10.5748949,7.58502301 10.5068426,7.60001427 C9.83928141,7.38347389 9.12311142,7.25688105 8.38101673,7.20691019 L8.38101673,4.61841981 C8.38101673,4.25030117 8.09098409,3.95214172 7.73289909,3.95214172 C7.3748141,3.95214172 7.08478145,4.25030117 7.08478145,4.61841981 L7.08478145,7.20691019 C6.34106647,7.25688105 5.62489648,7.38347389 4.95571502,7.60001427 C4.08561709,7.56670036 3.26898887,6.88543102 3.04376799,5.97596142 Z M13.875434,14.6375766 L12.2324558,21.3236772 L9.00482995,21.3236772 C8.64674496,21.3236772 8.35671232,21.6235024 8.35671232,21.9899553 C8.35671232,22.3564083 8.64674496,22.6562334 9.00482995,22.6562334 L11.9051564,22.6562334 L8.20440467,37.7107869 C7.95974026,37.7274438 7.50929851,37.7274438 7.2646341,37.7107869 L5.18255619,29.2373953 L7.46879115,29.2373953 C7.82687615,29.2373953 8.11690879,28.9375701 8.11690879,28.5711172 C8.11690879,28.2046642 7.82687615,27.9048391 7.46879115,27.9048391 L4.85525678,27.9048391 L2.18663241,17.0495033 L5.0691356,17.0495033 C5.4272206,17.0495033 5.71725324,16.7513438 5.71725324,16.3832252 C5.71725324,16.0151065 5.4272206,15.7169471 5.0691356,15.7169471 L1.85609242,15.7169471 L1.59036419,14.6375766 C1.27278654,13.3433314 1.56605977,12.0124409 2.41671417,10.8897623 C3.56388239,9.37564538 5.50175413,8.50781817 7.73289909,8.50781817 C9.96404406,8.50781817 11.9019158,9.37564538 13.049084,10.891428 C13.9013587,12.0124409 14.1930116,13.3433314 13.875434,14.6375766 Z" id="Shape"></path>
            </g>
            <g id="leaf" transform="translate(26.730000, 133.420000) scale(-1, 1) translate(-26.730000, -133.420000) translate(8.730000, 115.920000)" fill="#000000" fill-rule="nonzero">
                <path d="M2.42039462,34.8256756 C2.04736068,34.8256756 1.83532312,34.8139024 1.81215476,34.8123353 C1.4811859,34.78953 1.19824607,34.5658537 1.09986233,34.2492371 C-0.543586466,29.3696128 -0.00254076493,24.0188659 2.58452731,19.5664358 C10.2650524,6.09222759 33.4707683,0.431912555 34.4547843,0.197605054 C34.7168438,0.13514292 34.9927895,0.208036576 35.1897318,0.391748322 C35.3866741,0.575460068 35.4784178,0.845554586 35.4340799,1.11111178 C30.065574,33.3906346 6.52217576,34.8256756 2.42039462,34.8256756 Z M2.47536821,33.2293935 C6.32191137,33.2972765 28.0378558,32.2848906 33.6317566,2.07720028 C28.7548607,3.43212704 10.350263,9.18629849 3.98084531,20.3641871 C1.71613796,24.2586338 1.1709197,28.9178515 2.47536821,33.2293935 Z" id="Shape"></path>
                <path d="M2.84678065,34.1956756 C2.52467204,34.1956756 2.23467897,34.0027643 2.11337021,33.7078179 C1.99206146,33.4128715 2.06362223,33.0746823 2.29435185,32.8525165 L18.9805755,16.7778065 C19.293789,16.4761241 19.7951182,16.4825395 20.1003255,16.7921357 C20.4055328,17.1017318 20.3990425,17.597271 20.085829,17.8989534 L3.39919361,33.9736634 C3.25153004,34.1162508 3.05321102,34.195954 2.84678065,34.1956756 L2.84678065,34.1956756 Z" id="Path"></path>
            </g>
            <g id="arc" transform="translate(8.820000, 10.710000)">
                <mask id="mask-4" fill="white">
                    <use xlink:href="#path-3"></use>
                </mask>
                <g id="Rectangle"></g>
                <rect id="Rectangle" stroke="#000000" stroke-width="1.26" mask="url(#mask-4)" x="1.89" y="1.89" width="64.89" height="85.68" rx="30.555"></rect>
                <circle id="Oval" stroke="#000000" stroke-width="1.26" mask="url(#mask-4)" cx="33.39" cy="54.81" r="10.08"></circle>
                <line x1="1.51274036" y1="41.7683849" x2="23.31" y2="51.4485645" id="Path-4" stroke="#000000" stroke-width="1.26" mask="url(#mask-4)"></line>
                <line x1="3.3685096" y1="25.4301796" x2="26.8228969" y2="47.25" id="Path-4-Copy" stroke="#000000" stroke-width="1.26" mask="url(#mask-4)"></line>
                <line x1="14.3109418" y1="8.53779602" x2="29.7873573" y2="44.73" id="Path-4-Copy-2" stroke="#000000" stroke-width="1.26" mask="url(#mask-4)"></line>
                <line x1="33.39" y1="1.89" x2="33.39" y2="44.73" id="Path-4-Copy-3" stroke="#000000" stroke-width="1.26" mask="url(#mask-4)"></line>
                <line x1="37.17" y1="7.26396313" x2="53.2356029" y2="45.012204" id="Path-4-Copy-2" stroke="#000000" stroke-width="1.26" mask="url(#mask-4)" transform="translate(45.202801, 26.138084) scale(1, -1) translate(-45.202801, -26.138084) "></line>
                <line x1="40.8068184" y1="24.57" x2="65.6643873" y2="47.6233161" id="Path-4-Copy" stroke="#000000" stroke-width="1.26" mask="url(#mask-4)" transform="translate(53.235603, 36.096658) scale(1, -1) translate(-53.235603, -36.096658) "></line>
                <line x1="42.6082687" y1="40.2042796" x2="66.78" y2="50.9763582" id="Path-4" stroke="#000000" stroke-width="1.26" mask="url(#mask-4)" transform="translate(54.694134, 45.590319) scale(1, -1) translate(-54.694134, -45.590319) "></line>
            </g>
            <line x1="10.0938586" y1="64.89" x2="76.23" y2="64.89" id="Path-9" stroke="#000000" stroke-width="1.26"></line>
            <path d="M33.3469871,117.139109 C45.9405955,124.559612 52.2373997,135.171271 52.2373997,148.974084 C52.2373997,149.782215 60.2907363,146.577339 68.0068963,138.135927 C73.1510029,132.508319 75.8921562,125.118452 76.2303561,115.966324 L33.6668107,115.966324 C33.3188705,115.966323 33.0368092,116.248384 33.0368092,116.596324 C33.0368092,116.819409 33.1547865,117.025859 33.3469871,117.139109 Z" id="Path-10" stroke="#000000" stroke-width="1.26"></path>
        </g>
        <text id="BY-MVMT" font-family="DrukWide-Medium, Druk Wide" font-size="15" font-style="expanded" font-weight="400" fill="#000000">
            <tspan x="42.195" y="248">BY MVMT</tspan>
        </text>
    </g>
</svg>