<?xml version="1.0" encoding="UTF-8"?>
<svg width="164px" height="260px" viewBox="0 0 164 260" version="1.1" xmlns="http://www.w3.org/2000/svg" xmlns:xlink="http://www.w3.org/1999/xlink">
    <!-- Generator: Sketch 64 (93537) - https://sketch.com -->
    <title>Group</title>
    <desc>Created with Sketch.</desc>
    <defs>
        <rect id="path-1" x="0" y="0" width="42.7" height="51.8"></rect>
        <rect id="path-3" x="0" y="0" width="77" height="59.5"></rect>
    </defs>
    <g id="Page-1" stroke="none" stroke-width="1" fill="none" fill-rule="evenodd">
        <g id="A2-Copy-10" transform="translate(-761.000000, -761.000000)">
            <g id="Group" transform="translate(758.000000, 763.000000)">
                <text id="RESTAURANT-&amp;-BAR" font-family="Fahkwang-Light, Fahkwang" font-size="14" font-weight="300" letter-spacing="0.622222227" fill="#000000">
                    <tspan x="5.32522219" y="256.2">RESTAURANT &amp; BAR</tspan>
                </text>
                <text id="MVMT" font-family="DrukWide-Medium, Druk Wide" font-size="37.1" font-style="expanded" font-weight="400" fill="#000000">
                    <tspan x="1.21455" y="235.1">MVMT</tspan>
                </text>
                <g id="logo" transform="translate(30.100000, 0.000000)">
                    <rect id="Rectangle" stroke="#000000" stroke-width="2.1" x="0" y="0" width="95.9" height="178.5" rx="47.95"></rect>
                    <g id="cloche1-2" transform="translate(11.200000, 74.900000)">
                        <mask id="mask-2" fill="white">
                            <use xlink:href="#path-1"></use>
                        </mask>
                        <g id="Rectangle"></g>
                        <g id="cloche1" mask="url(#mask-2)" fill="#000000" fill-rule="nonzero">
                            <g transform="translate(4.800000, 27.400000) scale(-1, 1) translate(-4.800000, -27.400000) translate(-21.200000, 4.900000)" id="Shape">
                                <path d="M0.790389218,36.2012727 L50.2084261,36.2012727 C50.220333,36.2012727 50.2316729,36.2024055 50.2396108,36.2012727 C50.6767629,36.2012727 51.03,35.8484184 51.03,35.4123062 C51.03,35.3324467 51.0192271,35.2576847 50.9971144,35.1868872 C50.8786127,21.5915159 40.0348582,10.534657 26.5290682,9.99206555 L26.5290682,8.5466653 C28.533958,8.17455402 30.05747,6.42160975 30.05747,4.31354559 C30.05747,1.93475206 28.1206195,0 25.739246,0 C23.3578725,0 21.421022,1.93475206 21.421022,4.31354559 C21.421022,6.42160975 22.9445341,8.17455402 24.9494238,8.5466653 L24.9494238,9.96827762 C11.1442612,10.2650604 0,21.5535684 0,35.4128726 C0,35.8484184 0.353237075,36.2012727 0.790389218,36.2012727 Z M23.0000994,4.31354559 C23.0000994,2.8058436 24.2287748,1.57849942 25.738112,1.57849942 C27.2474493,1.57849942 28.4761246,2.8058436 28.4761246,4.31354559 C28.4761246,5.82124758 27.2474493,7.04859176 25.738112,7.04859176 C24.2287748,7.04859176 23.0000994,5.82124758 23.0000994,4.31354559 Z M25.4994077,11.5190244 C38.4251631,11.5190244 48.9876887,21.8112711 49.40613,34.6227733 L1.5932523,34.6227733 C2.01112665,21.8118375 12.5736523,11.5190244 25.4994077,11.5190244 Z M19.4104623,15.3873958 C13.1338421,17.2898642 8.04847557,22.1046556 5.80771647,28.2657308 C5.65746314,28.6752231 5.86895179,29.1283267 6.28002222,29.2767181 C6.36904023,29.3090017 6.46032622,29.324294 6.54991122,29.324294 C6.87253064,29.324294 7.17643926,29.1249284 7.29267297,28.8043577 C9.36503494,23.1082799 14.0665467,18.6571041 19.8714282,16.8984961 C20.2876016,16.7721935 20.524038,16.3315503 20.3975984,15.9135623 C20.2705918,15.496707 19.8351406,15.2593941 19.4104623,15.3873958 Z M50.2084261,39.6273018 L0.790389218,39.6273018 C0.353237075,39.6273018 0,39.9801562 0,40.4162683 C0,40.8529468 0.353237075,41.2063676 0.790389218,41.2063676 L50.2084261,41.2063676 C50.6455783,41.2063676 50.9988153,40.8535132 50.9988153,40.4162683 C50.9982484,39.9801562 50.6450113,39.6273018 50.2084261,39.6273018 Z M50.2084261,42.5215006 L0.790389218,42.5215006 C0.353237075,42.5215006 0,42.874355 0,43.3099007 C0,43.7465792 0.353237075,44.1 0.790389218,44.1 L50.2084261,44.1 C50.6455783,44.1 50.9988153,43.7471456 50.9988153,43.3099007 C50.9982484,42.874355 50.6450113,42.5215006 50.2084261,42.5215006 Z"></path>
                            </g>
                        </g>
                    </g>
                    <g id="carrot" transform="translate(60.007143, 79.100000)" fill="#000000" fill-rule="nonzero">
                        <path d="M15.6349884,11.1891559 C15.0606842,10.4303392 14.3459545,9.79367343 13.5250055,9.29211409 C14.0398989,8.97378123 14.480979,8.54440201 14.7960362,7.99842413 C15.296527,7.13226261 15.4387528,6.11618853 15.197509,5.14083143 C14.8266417,3.64910882 13.4691953,2.50162989 11.8687048,2.31840341 C11.5662499,1.57624365 11.0549571,0.948831781 10.3690326,0.530557202 C9.5264797,0.0160424548 8.54170095,-0.130168571 7.58932809,0.117834941 C6.45152157,0.415809309 5.5657608,1.2634631 5.1282814,2.36097118 C4.96445166,2.38132968 4.7988216,2.37392659 4.63859252,2.41649435 C3.68801998,2.66634864 2.88867489,3.2808051 2.38818405,4.14696662 C1.88589288,5.01312813 1.7454674,6.02920222 1.98671118,7.00455931 C2.2297553,7.98176718 2.83826575,8.7942563 3.62140789,9.31802491 C2.81666182,9.81773347 2.11453438,10.4432946 1.54923178,11.1891559 C0.343012842,12.7808202 -0.0854649293,14.7629975 0.37181807,16.6267254 L6.7827817,42.7078111 C6.92680784,43.294506 7.47950816,43.4 8.5921101,43.4 C9.70471205,43.4 10.2574124,43.294506 10.4014385,42.7096619 L16.8142025,16.6267254 C17.2714855,14.7629975 16.8412074,12.782671 15.6349884,11.1891559 Z M3.38196443,6.63995714 C3.23433763,6.04585917 3.32255365,5.42770117 3.62500854,4.90208178 C3.92926377,4.37461163 4.415352,4.00260636 4.99145656,3.85084302 C5.19309316,3.79717062 5.40193107,3.77311058 5.60896864,3.78051367 C5.61076897,3.78051367 5.6125693,3.77866289 5.61616995,3.77866289 C5.62157093,3.77866289 5.62697191,3.78051367 5.63237289,3.78051367 C5.64317485,3.78051367 5.65037616,3.7712598 5.66117812,3.7712598 C5.79620263,3.76385671 5.91682452,3.7175874 6.0230438,3.6435565 C6.04464772,3.62875032 6.06625164,3.61949646 6.08605524,3.60283951 C6.19047419,3.51400243 6.26248726,3.39555299 6.3056951,3.25859583 C6.31109608,3.24378965 6.3254987,3.23638656 6.32909935,3.21972961 C6.5271353,2.3998374 7.14644771,1.75947012 7.94219214,1.55218361 C9.13580879,1.23940306 10.3510294,1.98156282 10.6552846,3.2067742 C10.6588852,3.21787883 10.6660865,3.2271327 10.6696872,3.23823733 C10.734499,3.50104702 10.9145316,3.69537813 11.2007836,3.74164744 C11.2313891,3.74905053 11.2619947,3.75090131 11.2944006,3.75460285 C11.3232058,3.75460285 11.3448097,3.76755826 11.373615,3.76570749 C12.4628127,3.74719976 13.5520104,4.51341956 13.7986551,5.50728438 C13.9462819,6.10138235 13.8598662,6.71768958 13.555611,7.24515974 C13.2513558,7.77262989 12.7670679,8.14463516 12.1909633,8.2963985 L11.9281156,8.37413094 C11.8525019,8.39819099 11.7498833,8.42780335 11.6742695,8.4444603 C10.9325349,8.20385988 10.1367905,8.06320117 9.31224081,8.00767799 L9.31224081,5.13157757 C9.31224081,4.72255685 8.98998232,4.39126858 8.5921101,4.39126858 C8.19423789,4.39126858 7.87197939,4.72255685 7.87197939,5.13157757 L7.87197939,8.00767799 C7.04562941,8.06320117 6.24988497,8.20385988 5.50635002,8.4444603 C4.53957454,8.40744485 3.63220985,7.65047891 3.38196443,6.63995714 Z M15.4171489,16.263974 L13.5916175,23.6929747 L10.0053666,23.6929747 C9.6074944,23.6929747 9.28523591,24.0261138 9.28523591,24.4332837 C9.28523591,24.8404536 9.6074944,25.1735927 10.0053666,25.1735927 L13.2279515,25.1735927 L9.11600519,41.9008743 C8.84415585,41.919382 8.34366501,41.919382 8.07181567,41.9008743 L5.75839577,32.4859947 L8.29865684,32.4859947 C8.69652905,32.4859947 9.01878755,32.1528557 9.01878755,31.7456857 C9.01878755,31.3385158 8.69652905,31.0053767 8.29865684,31.0053767 L5.39472976,31.0053767 L2.42959157,18.9438925 L5.63237289,18.9438925 C6.03024511,18.9438925 6.3525036,18.6126043 6.3525036,18.2035835 C6.3525036,17.7945628 6.03024511,17.4632746 5.63237289,17.4632746 L2.06232491,17.4632746 L1.76707132,16.263974 C1.41420727,14.8259238 1.74006642,13.3471566 2.68523797,12.0997359 C3.95986932,10.4173838 6.11306014,9.4531313 8.5921101,9.4531313 C11.0711601,9.4531313 13.2243509,10.4173838 14.4989822,12.1015867 C15.4459541,13.3471566 15.7700129,14.8259238 15.4171489,16.263974 Z" id="Shape"></path>
                    </g>
                    <g id="leaf" transform="translate(29.700000, 148.300000) scale(-1, 1) translate(-29.700000, -148.300000) translate(9.700000, 128.800000)" fill="#000000" fill-rule="nonzero">
                        <path d="M2.68932736,38.6951952 C2.27484519,38.6951952 2.03924791,38.6821138 2.01350529,38.6803726 C1.64576211,38.6550333 1.33138453,38.4065041 1.22206926,38.0547079 C-0.603984963,32.6329031 -0.00282307215,26.6876288 2.87169701,21.7404842 C11.4056137,6.76914177 37.1897425,0.479902839 38.2830937,0.219561171 C38.5742709,0.1501588 38.8808772,0.231151751 39.099702,0.435275913 C39.3185267,0.639400075 39.4204642,0.939505096 39.3711998,1.23456865 C33.4061933,37.1007051 7.24686196,38.6951952 2.68932736,38.6951952 Z M2.75040913,36.9215483 C7.02434597,36.9969739 31.1531731,35.8721007 37.3686185,2.30800031 C31.9498452,3.81347449 11.5002923,10.2069983 4.42316146,22.6268746 C1.90681995,26.9540376 1.30102189,32.1309461 2.75040913,36.9215483 Z" id="Shape"></path>
                        <path d="M3.16308961,37.9951952 C2.80519115,37.9951952 2.48297664,37.7808492 2.34818913,37.453131 C2.21340162,37.1254128 2.29291359,36.749647 2.54927983,36.5027961 L21.0895283,18.6420072 C21.4375434,18.3068046 21.9945758,18.3139328 22.333695,18.6579285 C22.6728142,19.0019242 22.6656028,19.5525233 22.3175877,19.887726 L3.77688179,37.7485149 C3.61281115,37.9069453 3.39245668,37.9955045 3.16308961,37.9951952 L3.16308961,37.9951952 Z" id="Path"></path>
                    </g>
                    <g id="arc" transform="translate(9.800000, 11.900000)">
                        <mask id="mask-4" fill="white">
                            <use xlink:href="#path-3"></use>
                        </mask>
                        <g id="Rectangle"></g>
                        <rect id="Rectangle" stroke="#000000" stroke-width="1.4" mask="url(#mask-4)" x="2.1" y="2.1" width="72.1" height="95.2" rx="33.95"></rect>
                        <circle id="Oval" stroke="#000000" stroke-width="1.4" mask="url(#mask-4)" cx="37.1" cy="60.9" r="11.2"></circle>
                        <line x1="1.68082262" y1="46.4093166" x2="25.9" y2="57.1650717" id="Path-4" stroke="#000000" stroke-width="1.4" mask="url(#mask-4)"></line>
                        <line x1="3.74278844" y1="28.2557551" x2="29.8032188" y2="52.5" id="Path-4-Copy" stroke="#000000" stroke-width="1.4" mask="url(#mask-4)"></line>
                        <line x1="15.9010464" y1="9.48644002" x2="33.0970637" y2="49.7" id="Path-4-Copy-2" stroke="#000000" stroke-width="1.4" mask="url(#mask-4)"></line>
                        <line x1="37.1" y1="2.1" x2="37.1" y2="49.7" id="Path-4-Copy-3" stroke="#000000" stroke-width="1.4" mask="url(#mask-4)"></line>
                        <line x1="41.3" y1="8.07107015" x2="59.1506699" y2="50.01356" id="Path-4-Copy-2" stroke="#000000" stroke-width="1.4" mask="url(#mask-4)" transform="translate(50.225335, 29.042315) scale(1, -1) translate(-50.225335, -29.042315) "></line>
                        <line x1="45.3409094" y1="27.3" x2="72.9604303" y2="52.9147956" id="Path-4-Copy" stroke="#000000" stroke-width="1.4" mask="url(#mask-4)" transform="translate(59.150670, 40.107398) scale(1, -1) translate(-59.150670, -40.107398) "></line>
                        <line x1="47.3425207" y1="44.6714218" x2="74.2" y2="56.640398" id="Path-4" stroke="#000000" stroke-width="1.4" mask="url(#mask-4)" transform="translate(60.771260, 50.655910) scale(1, -1) translate(-60.771260, -50.655910) "></line>
                    </g>
                    <line x1="11.2153984" y1="72.1" x2="84.7" y2="72.1" id="Path-9" stroke="#000000" stroke-width="1.4"></line>
                    <path d="M37.0522079,130.154565 C51.0451061,138.399569 58.0415552,150.190301 58.0415552,165.52676 C58.0415552,166.424683 66.989707,162.86371 75.5632181,153.484364 C81.2788922,147.231466 84.324618,139.020502 84.7003956,128.851471 L37.4075674,128.851471 C37.0209672,128.85147 36.7075658,129.164871 36.7075658,129.551471 C36.7075658,129.799343 36.8386517,130.028732 37.0522079,130.154565 Z" id="Path-10" stroke="#000000" stroke-width="1.4"></path>
                </g>
            </g>
        </g>
    </g>
</svg>