<?xml version="1.0" encoding="UTF-8"?>
<svg width="262px" height="301px" viewBox="0 0 262 301" version="1.1" xmlns="http://www.w3.org/2000/svg" xmlns:xlink="http://www.w3.org/1999/xlink">
    <!-- Generator: Sketch 64 (93537) - https://sketch.com -->
    <title>Group</title>
    <desc>Created with Sketch.</desc>
    <defs>
        <rect id="path-1" x="0" y="0" width="42.7" height="51.8"></rect>
        <rect id="path-3" x="0" y="0" width="77" height="59.5"></rect>
    </defs>
    <g id="Page-1" stroke="none" stroke-width="1" fill="none" fill-rule="evenodd">
        <g id="A2-Copy-10" transform="translate(-712.000000, -761.000000)">
            <g id="Group" transform="translate(712.000000, 763.000000)">
                <g id="Group-2" transform="translate(0.800000, 207.100000)" fill="#27404F" fill-rule="nonzero">
                    <path d="M22.7203333,90.04 C24.0456666,90.04 25.0886666,89.7973333 25.8493333,89.312 C26.6099999,88.8266667 26.9903333,88.15 26.9903333,87.282 C26.9903333,86.722 26.8456666,86.2553333 26.5563333,85.882 C26.2669999,85.5086667 25.8213333,85.1983333 25.2193333,84.951 C24.6173333,84.7036667 23.8123333,84.482 22.8043333,84.286 C21.9643333,84.118 21.3133333,83.9453333 20.8513333,83.768 C20.3893333,83.5906667 20.0603333,83.3853333 19.8643333,83.152 C19.6683333,82.9186667 19.5703333,82.634 19.5703333,82.298 C19.5703333,81.7473333 19.8199999,81.3203333 20.3193333,81.017 C20.8186666,80.7136667 21.5349999,80.562 22.4683333,80.562 C23.4109999,80.562 24.1459999,80.7206667 24.6733333,81.038 C25.2006666,81.3553333 25.5343333,81.8546667 25.6743333,82.536 L25.6743333,82.536 L26.7243333,82.536 C26.5936666,81.7146667 26.1736666,81.08 25.4643333,80.632 C24.7549999,80.184 23.7889999,79.96 22.5663333,79.96 C21.3156666,79.96 20.3123333,80.1793333 19.5563333,80.618 C18.8003333,81.0566667 18.4223333,81.6773333 18.4223333,82.48 C18.4223333,82.9746667 18.5669999,83.39 18.8563333,83.726 C19.1456666,84.062 19.5796666,84.342 20.1583333,84.566 C20.7369999,84.79 21.4883333,84.9906667 22.4123333,85.168 C23.2896666,85.336 23.9756666,85.5203333 24.4703333,85.721 C24.9649999,85.9216667 25.3173333,86.155 25.5273333,86.421 C25.7373333,86.687 25.8423333,87.016 25.8423333,87.408 C25.8423333,88.052 25.5693333,88.5513333 25.0233333,88.906 C24.4773333,89.2606667 23.7003333,89.438 22.6923333,89.438 C21.5909999,89.438 20.7556666,89.2326667 20.1863333,88.822 C19.6169999,88.4113333 19.2949999,87.772 19.2203333,86.904 L19.2203333,86.904 L18.1703333,86.904 C18.2636666,87.9213333 18.7023333,88.6983333 19.4863333,89.235 C20.2703333,89.7716667 21.3483333,90.04 22.7203333,90.04 Z M30.6365555,89.9 L30.6365555,86.848 L32.5825555,84.916 L36.4745555,89.9 L37.8325555,89.9 L33.3525555,84.146 L37.4125555,80.1 L36.4045555,80.1 L30.6365555,85.812 L30.6365555,80.1 L29.4885555,80.1 L29.4885555,89.9 L30.6365555,89.9 Z M41.5067777,89.9 L41.5067777,80.1 L40.3587777,80.1 L40.3587777,89.9 L41.5067777,89.9 Z M45.965,89.9 L45.965,86.078 L48.401,86.078 C49.7263333,86.078 50.739,85.826 51.439,85.322 C52.139,84.818 52.489,84.076 52.489,83.096 C52.489,82.1066667 52.1343333,81.36 51.425,80.856 C50.7156666,80.352 49.7076666,80.1 48.401,80.1 L48.401,80.1 L44.817,80.1 L44.817,89.9 L45.965,89.9 Z M48.429,85.476 L45.965,85.476 L45.965,80.702 L48.429,80.702 C49.3716666,80.702 50.0926666,80.9026667 50.592,81.304 C51.0913333,81.7053333 51.341,82.3026667 51.341,83.096 C51.341,83.8893333 51.0913333,84.4843333 50.592,84.881 C50.0926666,85.2776667 49.3716666,85.476 48.429,85.476 L48.429,85.476 Z M63.1554444,89.9 L63.1554444,80.702 L67.3134444,80.702 L67.3134444,80.1 L57.8354444,80.1 L57.8354444,80.702 L62.0074444,80.702 L62.0074444,89.9 L63.1554444,89.9 Z M70.2736666,89.9 L70.2736666,84.93 L76.9236666,84.93 L76.9236666,89.9 L78.0716666,89.9 L78.0716666,80.1 L76.9236666,80.1 L76.9236666,84.342 L70.2736666,84.342 L70.2736666,80.1 L69.1256666,80.1 L69.1256666,89.9 L70.2736666,89.9 Z M88.8438889,89.9 L88.8438889,89.298 L81.9418889,89.298 L81.9418889,84.93 L88.0318889,84.93 L88.0318889,84.342 L81.9418889,84.342 L81.9418889,80.702 L88.8438889,80.702 L88.8438889,80.1 L80.7938889,80.1 L80.7938889,89.9 L88.8438889,89.9 Z M98.9223333,89.9 C100.639667,89.9 101.969667,89.4566667 102.912333,88.57 C103.855,87.6833333 104.326333,86.4373333 104.326333,84.832 C104.326333,83.2826667 103.862,82.1066667 102.933333,81.304 C102.004667,80.5013333 100.639667,80.1 98.8383333,80.1 L98.8383333,80.1 L95.1703333,80.1 L95.1703333,89.9 L98.9223333,89.9 Z M99.1323333,89.298 L96.3183333,89.298 L96.3183333,80.702 L99.1323333,80.702 C100.467,80.702 101.475,81.052 102.156333,81.752 C102.837667,82.452 103.178333,83.4786667 103.178333,84.832 C103.178333,86.26 102.826,87.3613333 102.121333,88.136 C101.416667,88.9106667 100.420333,89.298 99.1323333,89.298 L99.1323333,89.298 Z M108.532556,89.9 L108.532556,80.1 L107.384556,80.1 L107.384556,89.9 L108.532556,89.9 Z M116.168778,90.04 C117.494111,90.04 118.537111,89.7973333 119.297778,89.312 C120.058444,88.8266667 120.438778,88.15 120.438778,87.282 C120.438778,86.722 120.294111,86.2553333 120.004778,85.882 C119.715444,85.5086667 119.269778,85.1983333 118.667778,84.951 C118.065778,84.7036667 117.260778,84.482 116.252778,84.286 C115.412778,84.118 114.761778,83.9453333 114.299778,83.768 C113.837778,83.5906667 113.508778,83.3853333 113.312778,83.152 C113.116778,82.9186667 113.018778,82.634 113.018778,82.298 C113.018778,81.7473333 113.268444,81.3203333 113.767778,81.017 C114.267111,80.7136667 114.983444,80.562 115.916778,80.562 C116.859444,80.562 117.594444,80.7206667 118.121778,81.038 C118.649111,81.3553333 118.982778,81.8546667 119.122778,82.536 L119.122778,82.536 L120.172778,82.536 C120.042111,81.7146667 119.622111,81.08 118.912778,80.632 C118.203444,80.184 117.237444,79.96 116.014778,79.96 C114.764111,79.96 113.760778,80.1793333 113.004778,80.618 C112.248778,81.0566667 111.870778,81.6773333 111.870778,82.48 C111.870778,82.9746667 112.015444,83.39 112.304778,83.726 C112.594111,84.062 113.028111,84.342 113.606778,84.566 C114.185444,84.79 114.936778,84.9906667 115.860778,85.168 C116.738111,85.336 117.424111,85.5203333 117.918778,85.721 C118.413444,85.9216667 118.765778,86.155 118.975778,86.421 C119.185778,86.687 119.290778,87.016 119.290778,87.408 C119.290778,88.052 119.017778,88.5513333 118.471778,88.906 C117.925778,89.2606667 117.148778,89.438 116.140778,89.438 C115.039444,89.438 114.204111,89.2326667 113.634778,88.822 C113.065444,88.4113333 112.743444,87.772 112.668778,86.904 L112.668778,86.904 L111.618778,86.904 C111.712111,87.9213333 112.150778,88.6983333 112.934778,89.235 C113.718778,89.7716667 114.796778,90.04 116.168778,90.04 Z M124.085,89.9 L124.085,84.93 L130.735,84.93 L130.735,89.9 L131.883,89.9 L131.883,80.1 L130.735,80.1 L130.735,84.342 L124.085,84.342 L124.085,80.1 L122.937,80.1 L122.937,89.9 L124.085,89.9 Z M142.655222,89.9 L142.655222,89.298 L135.753222,89.298 L135.753222,84.93 L141.843222,84.93 L141.843222,84.342 L135.753222,84.342 L135.753222,80.702 L142.655222,80.702 L142.655222,80.1 L134.605222,80.1 L134.605222,89.9 L142.655222,89.9 Z M149.059444,90.04 C150.384778,90.04 151.427778,89.7973333 152.188444,89.312 C152.949111,88.8266667 153.329444,88.15 153.329444,87.282 C153.329444,86.722 153.184778,86.2553333 152.895444,85.882 C152.606111,85.5086667 152.160444,85.1983333 151.558444,84.951 C150.956444,84.7036667 150.151444,84.482 149.143444,84.286 C148.303444,84.118 147.652444,83.9453333 147.190444,83.768 C146.728444,83.5906667 146.399444,83.3853333 146.203444,83.152 C146.007444,82.9186667 145.909444,82.634 145.909444,82.298 C145.909444,81.7473333 146.159111,81.3203333 146.658444,81.017 C147.157778,80.7136667 147.874111,80.562 148.807444,80.562 C149.750111,80.562 150.485111,80.7206667 151.012444,81.038 C151.539778,81.3553333 151.873444,81.8546667 152.013444,82.536 L152.013444,82.536 L153.063444,82.536 C152.932778,81.7146667 152.512778,81.08 151.803444,80.632 C151.094111,80.184 150.128111,79.96 148.905444,79.96 C147.654778,79.96 146.651444,80.1793333 145.895444,80.618 C145.139444,81.0566667 144.761444,81.6773333 144.761444,82.48 C144.761444,82.9746667 144.906111,83.39 145.195444,83.726 C145.484778,84.062 145.918778,84.342 146.497444,84.566 C147.076111,84.79 147.827444,84.9906667 148.751444,85.168 C149.628778,85.336 150.314778,85.5203333 150.809444,85.721 C151.304111,85.9216667 151.656444,86.155 151.866444,86.421 C152.076444,86.687 152.181444,87.016 152.181444,87.408 C152.181444,88.052 151.908444,88.5513333 151.362444,88.906 C150.816444,89.2606667 150.039444,89.438 149.031444,89.438 C147.930111,89.438 147.094778,89.2326667 146.525444,88.822 C145.956111,88.4113333 145.634111,87.772 145.559444,86.904 L145.559444,86.904 L144.509444,86.904 C144.602778,87.9213333 145.041444,88.6983333 145.825444,89.235 C146.609444,89.7716667 147.687444,90.04 149.059444,90.04 Z M155.799667,91.86 C156.145,91.6546667 156.422667,91.356 156.632667,90.964 C156.842667,90.572 156.947667,90.1473333 156.947667,89.69 C156.947667,89.3446667 156.88,89.081 156.744667,88.899 C156.609333,88.717 156.420333,88.626 156.177667,88.626 C155.963,88.626 155.792667,88.689 155.666667,88.815 C155.540667,88.941 155.477667,89.1066667 155.477667,89.312 C155.477667,89.508 155.538333,89.6666667 155.659667,89.788 C155.781,89.9093333 155.939667,89.97 156.135667,89.97 C156.229,89.97 156.327,89.942 156.429667,89.886 C156.448333,90.25 156.385333,90.5953333 156.240667,90.922 C156.096,91.2486667 155.897667,91.5193333 155.645667,91.734 L155.645667,91.734 L155.799667,91.86 Z M164.688111,89.9 L164.688111,84.93 L170.372111,84.93 L170.372111,84.342 L164.688111,84.342 L164.688111,80.702 L171.310111,80.702 L171.310111,80.1 L163.540111,80.1 L163.540111,89.9 L164.688111,89.9 Z M178.008333,90.04 C179.081667,90.04 180.005667,89.8393333 180.780333,89.438 C181.555,89.0366667 182.145333,88.4556667 182.551333,87.695 C182.957333,86.9343333 183.160333,86.022 183.160333,84.958 C183.160333,83.9126667 182.955,83.0143333 182.544333,82.263 C182.133667,81.5116667 181.543333,80.94 180.773333,80.548 C180.003333,80.156 179.081667,79.96 178.008333,79.96 C176.935,79.96 176.011,80.156 175.236333,80.548 C174.461667,80.94 173.869,81.5116667 173.458333,82.263 C173.047667,83.0143333 172.842333,83.9126667 172.842333,84.958 C172.842333,86.022 173.045333,86.9343333 173.451333,87.695 C173.857333,88.4556667 174.447667,89.0366667 175.222333,89.438 C175.997,89.8393333 176.925667,90.04 178.008333,90.04 Z M178.008333,89.438 C176.729667,89.438 175.740333,89.046 175.040333,88.262 C174.340333,87.478 173.990333,86.3766667 173.990333,84.958 C173.990333,83.558 174.340333,82.4753333 175.040333,81.71 C175.740333,80.9446667 176.729667,80.562 178.008333,80.562 C179.287,80.562 180.274,80.9446667 180.969333,81.71 C181.664667,82.4753333 182.012333,83.558 182.012333,84.958 C182.012333,86.3766667 181.662333,87.478 180.962333,88.262 C180.262333,89.046 179.277667,89.438 178.008333,89.438 Z M190.516556,90.04 C191.589889,90.04 192.513889,89.8393333 193.288556,89.438 C194.063222,89.0366667 194.653556,88.4556667 195.059556,87.695 C195.465556,86.9343333 195.668556,86.022 195.668556,84.958 C195.668556,83.9126667 195.463222,83.0143333 195.052556,82.263 C194.641889,81.5116667 194.051556,80.94 193.281556,80.548 C192.511556,80.156 191.589889,79.96 190.516556,79.96 C189.443222,79.96 188.519222,80.156 187.744556,80.548 C186.969889,80.94 186.377222,81.5116667 185.966556,82.263 C185.555889,83.0143333 185.350556,83.9126667 185.350556,84.958 C185.350556,86.022 185.553556,86.9343333 185.959556,87.695 C186.365556,88.4556667 186.955889,89.0366667 187.730556,89.438 C188.505222,89.8393333 189.433889,90.04 190.516556,90.04 Z M190.516556,89.438 C189.237889,89.438 188.248556,89.046 187.548556,88.262 C186.848556,87.478 186.498556,86.3766667 186.498556,84.958 C186.498556,83.558 186.848556,82.4753333 187.548556,81.71 C188.248556,80.9446667 189.237889,80.562 190.516556,80.562 C191.795222,80.562 192.782222,80.9446667 193.477556,81.71 C194.172889,82.4753333 194.520556,83.558 194.520556,84.958 C194.520556,86.3766667 194.170556,87.478 193.470556,88.262 C192.770556,89.046 191.785889,89.438 190.516556,89.438 Z M201.890778,89.9 C203.608111,89.9 204.938111,89.4566667 205.880778,88.57 C206.823444,87.6833333 207.294778,86.4373333 207.294778,84.832 C207.294778,83.2826667 206.830444,82.1066667 205.901778,81.304 C204.973111,80.5013333 203.608111,80.1 201.806778,80.1 L201.806778,80.1 L198.138778,80.1 L198.138778,89.9 L201.890778,89.9 Z M202.100778,89.298 L199.286778,89.298 L199.286778,80.702 L202.100778,80.702 C203.435444,80.702 204.443444,81.052 205.124778,81.752 C205.806111,82.452 206.146778,83.4786667 206.146778,84.832 C206.146778,86.26 205.794444,87.3613333 205.089778,88.136 C204.385111,88.9106667 203.388778,89.298 202.100778,89.298 L202.100778,89.298 Z M214.651,90.04 C215.724333,90.04 216.648333,89.8393333 217.423,89.438 C218.197667,89.0366667 218.788,88.4556667 219.194,87.695 C219.6,86.9343333 219.803,86.022 219.803,84.958 C219.803,83.9126667 219.597667,83.0143333 219.187,82.263 C218.776333,81.5116667 218.186,80.94 217.416,80.548 C216.646,80.156 215.724333,79.96 214.651,79.96 C213.577667,79.96 212.653667,80.156 211.879,80.548 C211.104333,80.94 210.511667,81.5116667 210.101,82.263 C209.690333,83.0143333 209.485,83.9126667 209.485,84.958 C209.485,86.022 209.688,86.9343333 210.094,87.695 C210.5,88.4556667 211.090333,89.0366667 211.865,89.438 C212.639667,89.8393333 213.568333,90.04 214.651,90.04 Z M214.651,89.438 C213.372333,89.438 212.383,89.046 211.683,88.262 C210.983,87.478 210.633,86.3766667 210.633,84.958 C210.633,83.558 210.983,82.4753333 211.683,81.71 C212.383,80.9446667 213.372333,80.562 214.651,80.562 C215.929667,80.562 216.916667,80.9446667 217.612,81.71 C218.307333,82.4753333 218.655,83.558 218.655,84.958 C218.655,86.3766667 218.305,87.478 217.605,88.262 C216.905,89.046 215.920333,89.438 214.651,89.438 Z M223.407222,89.9 L223.407222,85.812 L226.295702,85.81144 C226.442049,85.8099467 226.552556,85.8054667 226.627222,85.798 C227.037889,85.9286667 227.383222,86.1853333 227.663222,86.568 C227.943222,86.9506667 228.218556,87.5013333 228.489222,88.22 C228.647889,88.6493333 228.792556,88.9923333 228.923222,89.249 C229.053889,89.5056667 229.198556,89.7226667 229.357222,89.9 L229.357222,89.9 L230.617222,89.9 L230.617222,89.816 C230.421222,89.6666667 230.234556,89.4356667 230.057222,89.123 C229.879889,88.8103333 229.688556,88.3973333 229.483222,87.884 C229.249889,87.2773333 229.000222,86.799 228.734222,86.449 C228.468222,86.099 228.153222,85.8353333 227.789222,85.658 C228.591889,85.49 229.205556,85.1796667 229.630222,84.727 C230.054889,84.2743333 230.267222,83.684 230.267222,82.956 C230.267222,82.0133333 229.912556,81.3016667 229.203222,80.821 C228.493889,80.3403333 227.485889,80.1 226.179222,80.1 L226.179222,80.1 L222.259222,80.1 L222.259222,89.9 L223.407222,89.9 Z M226.207222,85.21 L223.407222,85.21 L223.407222,80.702 L226.207222,80.702 C227.140556,80.702 227.859222,80.891 228.363222,81.269 C228.867222,81.647 229.119222,82.2093333 229.119222,82.956 C229.119222,83.7026667 228.867222,84.265 228.363222,84.643 C227.859222,85.021 227.140556,85.21 226.207222,85.21 L226.207222,85.21 Z M232.289444,89.9 L233.591444,87.324 L239.443444,87.324 L240.647444,89.9 L241.935444,89.9 L237.133444,79.96 L236.629444,79.96 L231.533444,89.9 L232.289444,89.9 Z M239.163444,86.722 L233.899444,86.722 L236.629444,81.304 L239.163444,86.722 Z" id="SKIPTHEDISHES,FOODORA"></path>
                    <path d="M0.756,69.84 L2.058,67.264 L7.91,67.264 L9.114,69.84 L10.402,69.84 L5.6,59.9 L5.096,59.9 L1.70530257e-13,69.84 L0.756,69.84 Z M7.63,66.662 L2.366,66.662 L5.096,61.244 L7.63,66.662 Z M19.5222222,69.84 L19.5222222,69.238 L13.3202222,69.238 L13.3202222,60.04 L12.1722222,60.04 L12.1722222,69.84 L19.5222222,69.84 Z M28.8104445,69.84 L28.8104445,69.238 L22.6084445,69.238 L22.6084445,60.04 L21.4604445,60.04 L21.4604445,69.84 L28.8104445,69.84 Z M38.7488889,69.84 C40.4662222,69.84 41.7962222,69.3966667 42.7388889,68.51 C43.6815556,67.6233333 44.1528889,66.3773333 44.1528889,64.772 C44.1528889,63.2226667 43.6885556,62.0466667 42.7598889,61.244 C41.8312222,60.4413333 40.4662222,60.04 38.6648889,60.04 L38.6648889,60.04 L34.9968889,60.04 L34.9968889,69.84 L38.7488889,69.84 Z M38.9588889,69.238 L36.1448889,69.238 L36.1448889,60.642 L38.9588889,60.642 C40.2935556,60.642 41.3015556,60.992 41.9828889,61.692 C42.6642222,62.392 43.0048889,63.4186667 43.0048889,64.772 C43.0048889,66.2 42.6525556,67.3013333 41.9478889,68.076 C41.2432222,68.8506667 40.2468889,69.238 38.9588889,69.238 L38.9588889,69.238 Z M54.6591111,69.84 L54.6591111,69.238 L47.7571111,69.238 L47.7571111,64.87 L53.8471111,64.87 L53.8471111,64.282 L47.7571111,64.282 L47.7571111,60.642 L54.6591111,60.642 L54.6591111,60.04 L46.6091111,60.04 L46.6091111,69.84 L54.6591111,69.84 Z M64.0873334,69.84 L64.0873334,69.238 L57.8853334,69.238 L57.8853334,60.04 L56.7373334,60.04 L56.7373334,69.84 L64.0873334,69.84 Z M67.7755556,69.84 L67.7755556,60.04 L66.6275556,60.04 L66.6275556,69.84 L67.7755556,69.84 Z M75.4397778,69.98 L80.5217778,60.04 L79.7657778,60.04 L75.4257778,68.58 L71.4077778,60.04 L70.1057778,60.04 L74.9357778,69.98 L75.4397778,69.98 Z M90.314,69.84 L90.314,69.238 L83.412,69.238 L83.412,64.87 L89.502,64.87 L89.502,64.282 L83.412,64.282 L83.412,60.642 L90.314,60.642 L90.314,60.04 L82.264,60.04 L82.264,69.84 L90.314,69.84 Z M93.5402223,69.84 L93.5402223,65.752 L96.4287023,65.75144 C96.5750489,65.7499467 96.6855556,65.7454667 96.7602223,65.738 C97.1708889,65.8686667 97.5162223,66.1253333 97.7962223,66.508 C98.0762223,66.8906667 98.3515556,67.4413333 98.6222223,68.16 C98.7808889,68.5893333 98.9255556,68.9323333 99.0562223,69.189 C99.1868889,69.4456667 99.3315556,69.6626667 99.4902223,69.84 L99.4902223,69.84 L100.750222,69.84 L100.750222,69.756 C100.554222,69.6066667 100.367556,69.3756667 100.190222,69.063 C100.012889,68.7503333 99.8215556,68.3373333 99.6162223,67.824 C99.3828889,67.2173333 99.1332223,66.739 98.8672223,66.389 C98.6012223,66.039 98.2862223,65.7753333 97.9222223,65.598 C98.7248889,65.43 99.3385556,65.1196667 99.7632223,64.667 C100.187889,64.2143333 100.400222,63.624 100.400222,62.896 C100.400222,61.9533333 100.045556,61.2416667 99.3362223,60.761 C98.6268889,60.2803333 97.6188889,60.04 96.3122223,60.04 L96.3122223,60.04 L92.3922223,60.04 L92.3922223,69.84 L93.5402223,69.84 Z M96.3402223,65.15 L93.5402223,65.15 L93.5402223,60.642 L96.3402223,60.642 C97.2735556,60.642 97.9922223,60.831 98.4962223,61.209 C99.0002223,61.587 99.2522223,62.1493333 99.2522223,62.896 C99.2522223,63.6426667 99.0002223,64.205 98.4962223,64.583 C97.9922223,64.961 97.2735556,65.15 96.3402223,65.15 L96.3402223,65.15 Z M110.654444,69.84 L110.654444,69.238 L103.752444,69.238 L103.752444,64.87 L109.842444,64.87 L109.842444,64.282 L103.752444,64.282 L103.752444,60.642 L110.654444,60.642 L110.654444,60.04 L102.604444,60.04 L102.604444,69.84 L110.654444,69.84 Z M116.498667,69.84 C118.216,69.84 119.546,69.3966667 120.488667,68.51 C121.431333,67.6233333 121.902667,66.3773333 121.902667,64.772 C121.902667,63.2226667 121.438333,62.0466667 120.509667,61.244 C119.581,60.4413333 118.216,60.04 116.414667,60.04 L116.414667,60.04 L112.746667,60.04 L112.746667,69.84 L116.498667,69.84 Z M116.708667,69.238 L113.894667,69.238 L113.894667,60.642 L116.708667,60.642 C118.043333,60.642 119.051333,60.992 119.732667,61.692 C120.414,62.392 120.754667,63.4186667 120.754667,64.772 C120.754667,66.2 120.402333,67.3013333 119.697667,68.076 C118.993,68.8506667 117.996667,69.238 116.708667,69.238 L116.708667,69.238 Z M133.003111,69.84 L133.003111,60.642 L137.161111,60.642 L137.161111,60.04 L127.683111,60.04 L127.683111,60.642 L131.855111,60.642 L131.855111,69.84 L133.003111,69.84 Z M143.873333,69.98 C144.946667,69.98 145.870667,69.7793333 146.645333,69.378 C147.42,68.9766667 148.010333,68.3956667 148.416333,67.635 C148.822333,66.8743333 149.025333,65.962 149.025333,64.898 C149.025333,63.8526667 148.82,62.9543333 148.409333,62.203 C147.998667,61.4516667 147.408333,60.88 146.638333,60.488 C145.868333,60.096 144.946667,59.9 143.873333,59.9 C142.8,59.9 141.876,60.096 141.101333,60.488 C140.326667,60.88 139.734,61.4516667 139.323333,62.203 C138.912667,62.9543333 138.707333,63.8526667 138.707333,64.898 C138.707333,65.962 138.910333,66.8743333 139.316333,67.635 C139.722333,68.3956667 140.312667,68.9766667 141.087333,69.378 C141.862,69.7793333 142.790667,69.98 143.873333,69.98 Z M143.873333,69.378 C142.594667,69.378 141.605333,68.986 140.905333,68.202 C140.205333,67.418 139.855333,66.3166667 139.855333,64.898 C139.855333,63.498 140.205333,62.4153333 140.905333,61.65 C141.605333,60.8846667 142.594667,60.502 143.873333,60.502 C145.152,60.502 146.139,60.8846667 146.834333,61.65 C147.529667,62.4153333 147.877333,63.498 147.877333,64.898 C147.877333,66.3166667 147.527333,67.418 146.827333,68.202 C146.127333,68.986 145.142667,69.378 143.873333,69.378 Z M160.097778,69.84 L160.097778,65.402 L164.493778,60.04 L163.681778,60.04 L159.691778,64.912 L155.995778,60.04 L154.735778,60.04 L158.949778,65.612 L158.949778,69.84 L160.097778,69.84 Z M170.436,69.98 C171.509333,69.98 172.433333,69.7793333 173.208,69.378 C173.982667,68.9766667 174.573,68.3956667 174.979,67.635 C175.385,66.8743333 175.588,65.962 175.588,64.898 C175.588,63.8526667 175.382667,62.9543333 174.972,62.203 C174.561333,61.4516667 173.971,60.88 173.201,60.488 C172.431,60.096 171.509333,59.9 170.436,59.9 C169.362667,59.9 168.438667,60.096 167.664,60.488 C166.889333,60.88 166.296667,61.4516667 165.886,62.203 C165.475333,62.9543333 165.27,63.8526667 165.27,64.898 C165.27,65.962 165.473,66.8743333 165.879,67.635 C166.285,68.3956667 166.875333,68.9766667 167.65,69.378 C168.424667,69.7793333 169.353333,69.98 170.436,69.98 Z M170.436,69.378 C169.157333,69.378 168.168,68.986 167.468,68.202 C166.768,67.418 166.418,66.3166667 166.418,64.898 C166.418,63.498 166.768,62.4153333 167.468,61.65 C168.168,60.8846667 169.157333,60.502 170.436,60.502 C171.714667,60.502 172.701667,60.8846667 173.397,61.65 C174.092333,62.4153333 174.44,63.498 174.44,64.898 C174.44,66.3166667 174.09,67.418 173.39,68.202 C172.69,68.986 171.705333,69.378 170.436,69.378 Z M182.524222,69.98 C184.064222,69.98 185.193556,69.623 185.912222,68.909 C186.630889,68.195 186.990222,67.1473333 186.990222,65.766 L186.990222,65.766 L186.990222,60.04 L185.842222,60.04 L185.842222,66.088 C185.842222,67.1893333 185.573889,68.013 185.037222,68.559 C184.500556,69.105 183.662889,69.378 182.524222,69.378 C181.366889,69.378 180.522222,69.1026667 179.990222,68.552 C179.458222,68.0013333 179.192222,67.18 179.192222,66.088 L179.192222,66.088 L179.192222,60.04 L178.044222,60.04 L178.044222,65.766 C178.044222,67.1566667 178.403556,68.2066667 179.122222,68.916 C179.840889,69.6253333 180.974889,69.98 182.524222,69.98 Z M198.720667,69.84 C200.008667,69.84 200.991,69.616 201.667667,69.168 C202.344333,68.72 202.682667,68.0713333 202.682667,67.222 C202.682667,66.438 202.405,65.8523333 201.849667,65.465 C201.294333,65.0776667 200.438,64.8326667 199.280667,64.73 C200.120667,64.6366667 200.799667,64.3683333 201.317667,63.925 C201.835667,63.4816667 202.094667,62.9473333 202.094667,62.322 C202.094667,61.6126667 201.763333,61.055 201.100667,60.649 C200.438,60.243 199.532667,60.04 198.384667,60.04 L198.384667,60.04 L193.946667,60.04 L193.946667,69.84 L198.720667,69.84 Z M197.852667,64.45 L195.094667,64.45 L195.094667,60.642 L197.894667,60.642 C198.930667,60.642 199.698333,60.7866667 200.197667,61.076 C200.697,61.3653333 200.946667,61.8086667 200.946667,62.406 C200.946667,63.0686667 200.680667,63.575 200.148667,63.925 C199.616667,64.275 198.851333,64.45 197.852667,64.45 L197.852667,64.45 Z M198.860667,69.238 L195.094667,69.238 L195.094667,65.052 L197.768667,65.052 C200.279333,65.052 201.534667,65.752 201.534667,67.152 C201.534667,67.8053333 201.299,68.3163333 200.827667,68.685 C200.356333,69.0536667 199.700667,69.238 198.860667,69.238 L198.860667,69.238 Z M209.226889,69.84 L209.226889,65.402 L213.622889,60.04 L212.810889,60.04 L208.820889,64.912 L205.124889,60.04 L203.864889,60.04 L208.078889,65.612 L208.078889,69.84 L209.226889,69.84 Z M224.079333,69.98 C225.619333,69.98 226.748667,69.623 227.467333,68.909 C228.186,68.195 228.545333,67.1473333 228.545333,65.766 L228.545333,65.766 L228.545333,60.04 L227.397333,60.04 L227.397333,66.088 C227.397333,67.1893333 227.129,68.013 226.592333,68.559 C226.055667,69.105 225.218,69.378 224.079333,69.378 C222.922,69.378 222.077333,69.1026667 221.545333,68.552 C221.013333,68.0013333 220.747333,67.18 220.747333,66.088 L220.747333,66.088 L220.747333,60.04 L219.599333,60.04 L219.599333,65.766 C219.599333,67.1566667 219.958667,68.2066667 220.677333,68.916 C221.396,69.6253333 222.53,69.98 224.079333,69.98 Z M236.041556,69.84 C237.329556,69.84 238.311889,69.616 238.988556,69.168 C239.665222,68.72 240.003556,68.0713333 240.003556,67.222 C240.003556,66.438 239.725889,65.8523333 239.170556,65.465 C238.615222,65.0776667 237.758889,64.8326667 236.601556,64.73 C237.441556,64.6366667 238.120556,64.3683333 238.638556,63.925 C239.156556,63.4816667 239.415556,62.9473333 239.415556,62.322 C239.415556,61.6126667 239.084222,61.055 238.421556,60.649 C237.758889,60.243 236.853556,60.04 235.705556,60.04 L235.705556,60.04 L231.267556,60.04 L231.267556,69.84 L236.041556,69.84 Z M235.173556,64.45 L232.415556,64.45 L232.415556,60.642 L235.215556,60.642 C236.251556,60.642 237.019222,60.7866667 237.518556,61.076 C238.017889,61.3653333 238.267556,61.8086667 238.267556,62.406 C238.267556,63.0686667 238.001556,63.575 237.469556,63.925 C236.937556,64.275 236.172222,64.45 235.173556,64.45 L235.173556,64.45 Z M236.181556,69.238 L232.415556,69.238 L232.415556,65.052 L235.089556,65.052 C237.600222,65.052 238.855556,65.752 238.855556,67.152 C238.855556,67.8053333 238.619889,68.3163333 238.148556,68.685 C237.677222,69.0536667 237.021556,69.238 236.181556,69.238 L236.181556,69.238 Z M250.215778,69.84 L250.215778,69.238 L243.313778,69.238 L243.313778,64.87 L249.403778,64.87 L249.403778,64.282 L243.313778,64.282 L243.313778,60.642 L250.215778,60.642 L250.215778,60.04 L242.165778,60.04 L242.165778,69.84 L250.215778,69.84 Z M253.442,69.84 L253.442,65.752 L256.33048,65.75144 C256.476827,65.7499467 256.587333,65.7454667 256.662,65.738 C257.072667,65.8686667 257.418,66.1253333 257.698,66.508 C257.978,66.8906667 258.253333,67.4413333 258.524,68.16 C258.682667,68.5893333 258.827333,68.9323333 258.958,69.189 C259.088667,69.4456667 259.233333,69.6626667 259.392,69.84 L259.392,69.84 L260.652,69.84 L260.652,69.756 C260.456,69.6066667 260.269333,69.3756667 260.092,69.063 C259.914667,68.7503333 259.723333,68.3373333 259.518,67.824 C259.284667,67.2173333 259.035,66.739 258.769,66.389 C258.503,66.039 258.188,65.7753333 257.824,65.598 C258.626667,65.43 259.240333,65.1196667 259.665,64.667 C260.089667,64.2143333 260.302,63.624 260.302,62.896 C260.302,61.9533333 259.947333,61.2416667 259.238,60.761 C258.528667,60.2803333 257.520667,60.04 256.214,60.04 L256.214,60.04 L252.294,60.04 L252.294,69.84 L253.442,69.84 Z M256.242,65.15 L253.442,65.15 L253.442,60.642 L256.242,60.642 C257.175333,60.642 257.894,60.831 258.398,61.209 C258.902,61.587 259.154,62.1493333 259.154,62.896 C259.154,63.6426667 258.902,64.205 258.398,64.583 C257.894,64.961 257.175333,65.15 256.242,65.15 L256.242,65.15 Z" id="ALLDELIVEREDTOYOUBYUBER"></path>
                </g>
                <g id="Group-3" transform="translate(28.000000, 0.000000)">
                    <path d="M7.18829787,214.74611 L7.18829787,208.094265 L16.5670213,208.094265 C18.3152482,208.094265 19.5492908,208.354627 20.2691489,208.875353 C20.9890071,209.396078 21.3489362,210.235957 21.3489362,211.394991 L21.3489362,213.56188 C21.3489362,214.116201 21.4620567,214.510944 21.6882979,214.74611 L29,214.74611 L29,214.620128 C28.7120567,214.149796 28.5680851,213.385506 28.5680851,212.327257 L28.5680851,209.580851 C28.5680851,208.455413 28.1618794,207.523147 27.3494681,206.784053 C26.5370567,206.044959 25.4932624,205.541031 24.2180851,205.27227 C24.6705674,205.154686 25.1076241,205.007708 25.5292553,204.831333 C25.9508865,204.654958 26.4033688,204.411393 26.8867021,204.100638 C27.3700355,203.789882 27.7556738,203.378341 28.043617,202.866015 C28.3315603,202.353688 28.4755319,201.78677 28.4755319,201.165259 L28.4755319,200.862902 C28.4755319,197.620967 25.1539007,196 18.5106383,196 L0,196 L0,214.74611 L7.18829787,214.74611 Z M7,204.150483 L7,200.89029 L18.0559284,200.89029 C19.0581655,200.89029 19.7994034,201.039157 20.2796421,201.336891 C20.7598807,201.634626 21,202.021681 21,202.498056 L21,202.520386 C21,203.011648 20.7546607,203.406146 20.2639821,203.703881 C19.7733035,204.001615 19.0372856,204.150483 18.0559284,204.150483 L7,204.150483 Z M55,214.74611 L55,210.387136 L37.9521411,210.387136 L37.9521411,207.313177 L54.3047859,207.313177 L54.3047859,203.029791 L37.9521411,203.029791 L37.9521411,200.258189 L54.697733,200.258189 L54.697733,196 L31,196 L31,214.74611 L55,214.74611 Z M81,214.74611 L81,210.084779 L65.1453333,210.084779 L65.1453333,196 L58,196 L58,214.74611 L81,214.74611 Z M89.2685874,214.74611 L91.3234201,211.319402 L105.155204,211.319402 L107.302045,214.74611 L115,214.74611 L102.79368,196 L93.5315985,196 L82,214.74611 L89.2685874,214.74611 Z M103,207.410676 L94,207.410676 L98.4042553,200.075241 L103,207.410676 Z M122.882012,214.74611 L129.876209,208.925745 L136.932302,214.74611 L146,214.74611 L134.704062,205.146288 L145.752418,196 L136.901354,196 L130.402321,201.492812 L123.903288,196 L114.247582,196 L125.450677,205.27227 L114,214.74611 L122.882012,214.74611 Z M172,214.74611 L172,210.387136 L154.952141,210.387136 L154.952141,207.313177 L171.304786,207.313177 L171.304786,203.029791 L154.952141,203.029791 L154.952141,200.258189 L171.697733,200.258189 L171.697733,196 L148,196 L148,214.74611 L172,214.74611 Z M190.043222,214.74611 C192.580878,214.74611 194.824165,214.557137 196.773084,214.179192 C198.722004,213.801246 200.264898,213.314116 201.401768,212.717801 C202.538638,212.121487 203.46742,211.407589 204.188114,210.576109 C204.908808,209.744628 205.390963,208.934144 205.634578,208.144657 C205.878193,207.355171 206,206.515291 206,205.625019 L206,204.869127 C206,204.113236 205.903569,203.403538 205.710707,202.740033 C205.517845,202.076528 205.208251,201.400425 204.781925,200.711724 C204.355599,200.023023 203.736411,199.405711 202.924361,198.85979 C202.112312,198.313868 201.137852,197.818339 200.000982,197.373203 C198.864113,196.928067 197.443026,196.587916 195.737721,196.352749 C194.032417,196.117583 192.1241,196 190.01277,196 L175,196 L175,214.74611 L190.043222,214.74611 Z M182,210.670869 L182,200.89029 L189.604436,200.89029 C195.868145,200.89029 199,202.491053 199,205.692579 L199,205.843436 C199,209.061725 195.868145,210.670869 189.604436,210.670869 L182,210.670869 Z M31.2405722,240.012607 L31.2405722,232.579673 L47.5942783,232.579673 L47.5942783,228.296288 L31.2405722,228.296288 L31.2405722,225.524686 L48,225.524686 L48,221.266497 L24,221.266497 L24,240.012607 L31.2405722,240.012607 Z M66.6862385,240.827655 C68.7033639,240.827655 70.5385321,240.709103 72.1917431,240.471998 C73.8449541,240.234893 75.22263,239.925809 76.3247706,239.544748 C77.4269113,239.163686 78.3990826,238.697945 79.2412844,238.147522 C80.0834862,237.5971 80.7333333,237.046678 81.1908257,236.496256 C81.648318,235.945833 82.02263,235.344603 82.3137615,234.692564 C82.604893,234.040526 82.7920489,233.460466 82.8752294,232.952383 C82.9584098,232.444301 83,231.919283 83,231.377329 L83,230.615206 C83,230.056316 82.9584098,229.52283 82.8752294,229.014748 C82.7920489,228.506666 82.604893,227.930839 82.3137615,227.287269 C82.02263,226.643698 81.6431193,226.050936 81.1752294,225.508982 C80.7073394,224.967027 80.0574924,224.425073 79.2256881,223.883119 C78.3938838,223.341165 77.4217125,222.883891 76.3091743,222.511298 C75.1966361,222.138704 73.8189602,221.838089 72.1761468,221.609452 C70.5333333,221.380815 68.7033639,221.266497 66.6862385,221.266497 L65.3449541,221.266497 C63.3278287,221.266497 61.4874618,221.380815 59.8238532,221.609452 C58.1602446,221.838089 56.7721713,222.138704 55.659633,222.511298 C54.5470948,222.883891 53.5749235,223.341165 52.7431193,223.883119 C51.911315,224.425073 51.2614679,224.967027 50.793578,225.508982 C50.3256881,226.050936 49.9513761,226.647932 49.6706422,227.299971 C49.3899083,227.952009 49.2079511,228.527836 49.1247706,229.02745 C49.0415902,229.527064 49,230.056316 49,230.615206 L49,231.377329 C49,231.919283 49.0415902,232.444301 49.1247706,232.952383 C49.2079511,233.460466 49.3899083,234.040526 49.6706422,234.692564 C49.9513761,235.344603 50.3256881,235.945833 50.793578,236.496256 C51.2614679,237.046678 51.9165138,237.5971 52.7587156,238.147522 C53.6009174,238.697945 54.5730887,239.163686 55.6752294,239.544748 C56.77737,239.925809 58.1602446,240.234893 59.8238532,240.471998 C61.4874618,240.709103 63.3278287,240.827655 65.3449541,240.827655 L66.6862385,240.827655 Z M66.5,235.937365 C64.6273533,235.937365 63.0282392,235.773293 61.7026578,235.445148 C60.3770764,235.117003 59.3934109,234.676598 58.7516611,234.123933 C58.1099114,233.571268 57.6575305,233.018603 57.3945183,232.465937 C57.1315061,231.913272 57,231.326065 57,230.704317 L57,230.393443 C57,227.02564 60.1666667,225.341738 66.5,225.341738 C68.0149502,225.341738 69.3563123,225.44968 70.5240864,225.665565 C71.6918605,225.88145 72.6124031,226.153465 73.2857143,226.48161 C73.9590255,226.809755 74.5060908,227.202665 74.9269103,227.660341 C75.3477298,228.118017 75.6317829,228.567057 75.7790698,229.007462 C75.9263566,229.447867 76,229.909861 76,230.393443 L76,230.756129 C76,231.377878 75.8684939,231.965085 75.6054817,232.51775 C75.3424695,233.070415 74.8848283,233.618762 74.2325581,234.162792 C73.5802879,234.706822 72.5966224,235.138592 71.2815615,235.458101 C69.9665006,235.777611 68.3726467,235.937365 66.5,235.937365 Z M101.686239,240.827655 C103.703364,240.827655 105.538532,240.709103 107.191743,240.471998 C108.844954,240.234893 110.22263,239.925809 111.324771,239.544748 C112.426911,239.163686 113.399083,238.697945 114.241284,238.147522 C115.083486,237.5971 115.733333,237.046678 116.190826,236.496256 C116.648318,235.945833 117.02263,235.344603 117.313761,234.692564 C117.604893,234.040526 117.792049,233.460466 117.875229,232.952383 C117.95841,232.444301 118,231.919283 118,231.377329 L118,230.615206 C118,230.056316 117.95841,229.52283 117.875229,229.014748 C117.792049,228.506666 117.604893,227.930839 117.313761,227.287269 C117.02263,226.643698 116.643119,226.050936 116.175229,225.508982 C115.707339,224.967027 115.057492,224.425073 114.225688,223.883119 C113.393884,223.341165 112.421713,222.883891 111.309174,222.511298 C110.196636,222.138704 108.81896,221.838089 107.176147,221.609452 C105.533333,221.380815 103.703364,221.266497 101.686239,221.266497 L100.344954,221.266497 C98.3278287,221.266497 96.4874618,221.380815 94.8238532,221.609452 C93.1602446,221.838089 91.7721713,222.138704 90.659633,222.511298 C89.5470948,222.883891 88.5749235,223.341165 87.7431193,223.883119 C86.911315,224.425073 86.2614679,224.967027 85.793578,225.508982 C85.3256881,226.050936 84.9513761,226.647932 84.6706422,227.299971 C84.3899083,227.952009 84.2079511,228.527836 84.1247706,229.02745 C84.0415902,229.527064 84,230.056316 84,230.615206 L84,231.377329 C84,231.919283 84.0415902,232.444301 84.1247706,232.952383 C84.2079511,233.460466 84.3899083,234.040526 84.6706422,234.692564 C84.9513761,235.344603 85.3256881,235.945833 85.793578,236.496256 C86.2614679,237.046678 86.9165138,237.5971 87.7587156,238.147522 C88.6009174,238.697945 89.5730887,239.163686 90.6752294,239.544748 C91.77737,239.925809 93.1602446,240.234893 94.8238532,240.471998 C96.4874618,240.709103 98.3278287,240.827655 100.344954,240.827655 L101.686239,240.827655 Z M101.5,235.937365 C99.6273533,235.937365 98.0282392,235.773293 96.7026578,235.445148 C95.3770764,235.117003 94.3934109,234.676598 93.7516611,234.123933 C93.1099114,233.571268 92.6575305,233.018603 92.3945183,232.465937 C92.1315061,231.913272 92,231.326065 92,230.704317 L92,230.393443 C92,227.02564 95.1666667,225.341738 101.5,225.341738 C103.01495,225.341738 104.356312,225.44968 105.524086,225.665565 C106.69186,225.88145 107.612403,226.153465 108.285714,226.48161 C108.959025,226.809755 109.506091,227.202665 109.92691,227.660341 C110.34773,228.118017 110.631783,228.567057 110.77907,229.007462 C110.926357,229.447867 111,229.909861 111,230.393443 L111,230.756129 C111,231.377878 110.868494,231.965085 110.605482,232.51775 C110.34247,233.070415 109.884828,233.618762 109.232558,234.162792 C108.580288,234.706822 107.596622,235.138592 106.281561,235.458101 C104.966501,235.777611 103.372647,235.937365 101.5,235.937365 Z M136.043222,240.012607 C138.580878,240.012607 140.824165,239.823634 142.773084,239.445688 C144.722004,239.067742 146.264898,238.580612 147.401768,237.984298 C148.538638,237.387983 149.46742,236.674086 150.188114,235.842605 C150.908808,235.011124 151.390963,234.200641 151.634578,233.411154 C151.878193,232.621667 152,231.781788 152,230.891516 L152,230.135624 C152,229.379732 151.903569,228.670034 151.710707,228.006529 C151.517845,227.343025 151.208251,226.666922 150.781925,225.97822 C150.355599,225.289519 149.736411,224.672208 148.924361,224.126286 C148.112312,223.580365 147.137852,223.084836 146.000982,222.639699 C144.864113,222.194563 143.443026,221.854412 141.737721,221.619246 C140.032417,221.38408 138.1241,221.266497 136.01277,221.266497 L121,221.266497 L121,240.012607 L136.043222,240.012607 Z M128,235.937365 L128,226.156786 L135.604436,226.156786 C141.868145,226.156786 145,227.757549 145,230.959076 L145,231.109933 C145,234.328221 141.868145,235.937365 135.604436,235.937365 L128,235.937365 Z M168.548936,240.827655 C170.770213,240.827655 172.708688,240.704869 174.364362,240.459296 C176.020035,240.213723 177.326064,239.896171 178.282447,239.506642 C179.23883,239.117112 180.004965,238.634434 180.580851,238.058608 C181.156738,237.482782 181.537234,236.919657 181.72234,236.369235 C181.907447,235.818813 182,235.196412 182,234.502034 L182,234.146376 C182,232.249537 181.053901,230.856545 179.161702,229.967401 C177.269504,229.078258 174.174113,228.599814 169.875532,228.53207 L166.019149,228.481262 C164.538298,228.464325 163.386525,228.371177 162.56383,228.201816 C161.741135,228.032456 161.22695,227.841925 161.021277,227.630224 C160.815603,227.418523 160.712766,227.160248 160.712766,226.855399 C160.712766,226.533614 160.810461,226.271105 161.005851,226.067872 C161.201241,225.864639 161.761702,225.674108 162.687234,225.49628 C163.612766,225.318451 164.939362,225.229536 166.667021,225.229536 L167.160638,225.229536 C171.335816,225.229536 173.546809,225.983191 173.793617,227.490502 L181.259574,227.490502 L181.259574,227.236461 C181.259574,226.626762 181.146454,226.05517 180.920213,225.521684 C180.693972,224.988197 180.277482,224.450477 179.670745,223.908523 C179.064007,223.366569 178.282447,222.909295 177.326064,222.536702 C176.369681,222.164108 175.089362,221.859259 173.485106,221.622154 C171.880851,221.385049 170.029787,221.266497 167.931915,221.266497 L165.803191,221.266497 C163.314539,221.266497 161.206383,221.427389 159.478723,221.749174 C157.751064,222.07096 156.460461,222.524 155.606915,223.108294 C154.753369,223.692588 154.156915,224.298053 153.817553,224.924687 C153.478191,225.551322 153.308511,226.254169 153.308511,227.033228 L153.308511,227.261865 C153.308511,230.784567 157.041489,232.630598 164.507447,232.799959 L168.456383,232.876171 C170.163475,232.910043 171.469504,233.015894 172.374468,233.193722 C173.279433,233.371551 173.855319,233.579018 174.102128,233.816123 C174.348936,234.053228 174.47234,234.375013 174.47234,234.781479 C174.47234,235.069392 174.400355,235.319199 174.256383,235.5309 C174.112411,235.742601 173.824468,235.950068 173.392553,236.1533 C172.960638,236.356533 172.271631,236.513192 171.325532,236.623276 C170.379433,236.733361 169.186525,236.788403 167.746809,236.788403 L167.314894,236.788403 C162.934043,236.788403 160.661348,235.789175 160.496809,233.790719 L153,233.790719 L153,234.070164 C153,234.662926 153.077128,235.221817 153.231383,235.746835 C153.385638,236.271853 153.735284,236.860381 154.280319,237.51242 C154.825355,238.164458 155.560638,238.719115 156.48617,239.176388 C157.411702,239.633662 158.728014,240.023192 160.435106,240.344977 C162.142199,240.666762 164.137234,240.827655 166.420213,240.827655 L168.548936,240.827655 Z" id="RELAXEDFOODS" fill="#1A1919" fill-rule="nonzero"></path>
                    <g id="logo" transform="translate(48.100000, 0.000000)">
                        <rect id="Rectangle" stroke="#000000" stroke-width="2.1" x="0" y="0" width="95.9" height="178.5" rx="47.95"></rect>
                        <g id="cloche1-2" transform="translate(11.200000, 74.900000)">
                            <mask id="mask-2" fill="white">
                                <use xlink:href="#path-1"></use>
                            </mask>
                            <g id="Rectangle"></g>
                            <g id="cloche1" mask="url(#mask-2)" fill="#000000" fill-rule="nonzero">
                                <g transform="translate(4.800000, 27.400000) scale(-1, 1) translate(-4.800000, -27.400000) translate(-21.200000, 4.900000)" id="Shape">
                                    <path d="M0.790389218,36.2012727 L50.2084261,36.2012727 C50.220333,36.2012727 50.2316729,36.2024055 50.2396108,36.2012727 C50.6767629,36.2012727 51.03,35.8484184 51.03,35.4123062 C51.03,35.3324467 51.0192271,35.2576847 50.9971144,35.1868872 C50.8786127,21.5915159 40.0348582,10.534657 26.5290682,9.99206555 L26.5290682,8.5466653 C28.533958,8.17455402 30.05747,6.42160975 30.05747,4.31354559 C30.05747,1.93475206 28.1206195,0 25.739246,0 C23.3578725,0 21.421022,1.93475206 21.421022,4.31354559 C21.421022,6.42160975 22.9445341,8.17455402 24.9494238,8.5466653 L24.9494238,9.96827762 C11.1442612,10.2650604 0,21.5535684 0,35.4128726 C0,35.8484184 0.353237075,36.2012727 0.790389218,36.2012727 Z M23.0000994,4.31354559 C23.0000994,2.8058436 24.2287748,1.57849942 25.738112,1.57849942 C27.2474493,1.57849942 28.4761246,2.8058436 28.4761246,4.31354559 C28.4761246,5.82124758 27.2474493,7.04859176 25.738112,7.04859176 C24.2287748,7.04859176 23.0000994,5.82124758 23.0000994,4.31354559 Z M25.4994077,11.5190244 C38.4251631,11.5190244 48.9876887,21.8112711 49.40613,34.6227733 L1.5932523,34.6227733 C2.01112665,21.8118375 12.5736523,11.5190244 25.4994077,11.5190244 Z M19.4104623,15.3873958 C13.1338421,17.2898642 8.04847557,22.1046556 5.80771647,28.2657308 C5.65746314,28.6752231 5.86895179,29.1283267 6.28002222,29.2767181 C6.36904023,29.3090017 6.46032622,29.324294 6.54991122,29.324294 C6.87253064,29.324294 7.17643926,29.1249284 7.29267297,28.8043577 C9.36503494,23.1082799 14.0665467,18.6571041 19.8714282,16.8984961 C20.2876016,16.7721935 20.524038,16.3315503 20.3975984,15.9135623 C20.2705918,15.496707 19.8351406,15.2593941 19.4104623,15.3873958 Z M50.2084261,39.6273018 L0.790389218,39.6273018 C0.353237075,39.6273018 0,39.9801562 0,40.4162683 C0,40.8529468 0.353237075,41.2063676 0.790389218,41.2063676 L50.2084261,41.2063676 C50.6455783,41.2063676 50.9988153,40.8535132 50.9988153,40.4162683 C50.9982484,39.9801562 50.6450113,39.6273018 50.2084261,39.6273018 Z M50.2084261,42.5215006 L0.790389218,42.5215006 C0.353237075,42.5215006 0,42.874355 0,43.3099007 C0,43.7465792 0.353237075,44.1 0.790389218,44.1 L50.2084261,44.1 C50.6455783,44.1 50.9988153,43.7471456 50.9988153,43.3099007 C50.9982484,42.874355 50.6450113,42.5215006 50.2084261,42.5215006 Z"></path>
                                </g>
                            </g>
                        </g>
                        <g id="carrot" transform="translate(60.007143, 79.100000)" fill="#000000" fill-rule="nonzero">
                            <path d="M15.6349884,11.1891559 C15.0606842,10.4303392 14.3459545,9.79367343 13.5250055,9.29211409 C14.0398989,8.97378123 14.480979,8.54440201 14.7960362,7.99842413 C15.296527,7.13226261 15.4387528,6.11618853 15.197509,5.14083143 C14.8266417,3.64910882 13.4691953,2.50162989 11.8687048,2.31840341 C11.5662499,1.57624365 11.0549571,0.948831781 10.3690326,0.530557202 C9.5264797,0.0160424548 8.54170095,-0.130168571 7.58932809,0.117834941 C6.45152157,0.415809309 5.5657608,1.2634631 5.1282814,2.36097118 C4.96445166,2.38132968 4.7988216,2.37392659 4.63859252,2.41649435 C3.68801998,2.66634864 2.88867489,3.2808051 2.38818405,4.14696662 C1.88589288,5.01312813 1.7454674,6.02920222 1.98671118,7.00455931 C2.2297553,7.98176718 2.83826575,8.7942563 3.62140789,9.31802491 C2.81666182,9.81773347 2.11453438,10.4432946 1.54923178,11.1891559 C0.343012842,12.7808202 -0.0854649293,14.7629975 0.37181807,16.6267254 L6.7827817,42.7078111 C6.92680784,43.294506 7.47950816,43.4 8.5921101,43.4 C9.70471205,43.4 10.2574124,43.294506 10.4014385,42.7096619 L16.8142025,16.6267254 C17.2714855,14.7629975 16.8412074,12.782671 15.6349884,11.1891559 Z M3.38196443,6.63995714 C3.23433763,6.04585917 3.32255365,5.42770117 3.62500854,4.90208178 C3.92926377,4.37461163 4.415352,4.00260636 4.99145656,3.85084302 C5.19309316,3.79717062 5.40193107,3.77311058 5.60896864,3.78051367 C5.61076897,3.78051367 5.6125693,3.77866289 5.61616995,3.77866289 C5.62157093,3.77866289 5.62697191,3.78051367 5.63237289,3.78051367 C5.64317485,3.78051367 5.65037616,3.7712598 5.66117812,3.7712598 C5.79620263,3.76385671 5.91682452,3.7175874 6.0230438,3.6435565 C6.04464772,3.62875032 6.06625164,3.61949646 6.08605524,3.60283951 C6.19047419,3.51400243 6.26248726,3.39555299 6.3056951,3.25859583 C6.31109608,3.24378965 6.3254987,3.23638656 6.32909935,3.21972961 C6.5271353,2.3998374 7.14644771,1.75947012 7.94219214,1.55218361 C9.13580879,1.23940306 10.3510294,1.98156282 10.6552846,3.2067742 C10.6588852,3.21787883 10.6660865,3.2271327 10.6696872,3.23823733 C10.734499,3.50104702 10.9145316,3.69537813 11.2007836,3.74164744 C11.2313891,3.74905053 11.2619947,3.75090131 11.2944006,3.75460285 C11.3232058,3.75460285 11.3448097,3.76755826 11.373615,3.76570749 C12.4628127,3.74719976 13.5520104,4.51341956 13.7986551,5.50728438 C13.9462819,6.10138235 13.8598662,6.71768958 13.555611,7.24515974 C13.2513558,7.77262989 12.7670679,8.14463516 12.1909633,8.2963985 L11.9281156,8.37413094 C11.8525019,8.39819099 11.7498833,8.42780335 11.6742695,8.4444603 C10.9325349,8.20385988 10.1367905,8.06320117 9.31224081,8.00767799 L9.31224081,5.13157757 C9.31224081,4.72255685 8.98998232,4.39126858 8.5921101,4.39126858 C8.19423789,4.39126858 7.87197939,4.72255685 7.87197939,5.13157757 L7.87197939,8.00767799 C7.04562941,8.06320117 6.24988497,8.20385988 5.50635002,8.4444603 C4.53957454,8.40744485 3.63220985,7.65047891 3.38196443,6.63995714 Z M15.4171489,16.263974 L13.5916175,23.6929747 L10.0053666,23.6929747 C9.6074944,23.6929747 9.28523591,24.0261138 9.28523591,24.4332837 C9.28523591,24.8404536 9.6074944,25.1735927 10.0053666,25.1735927 L13.2279515,25.1735927 L9.11600519,41.9008743 C8.84415585,41.919382 8.34366501,41.919382 8.07181567,41.9008743 L5.75839577,32.4859947 L8.29865684,32.4859947 C8.69652905,32.4859947 9.01878755,32.1528557 9.01878755,31.7456857 C9.01878755,31.3385158 8.69652905,31.0053767 8.29865684,31.0053767 L5.39472976,31.0053767 L2.42959157,18.9438925 L5.63237289,18.9438925 C6.03024511,18.9438925 6.3525036,18.6126043 6.3525036,18.2035835 C6.3525036,17.7945628 6.03024511,17.4632746 5.63237289,17.4632746 L2.06232491,17.4632746 L1.76707132,16.263974 C1.41420727,14.8259238 1.74006642,13.3471566 2.68523797,12.0997359 C3.95986932,10.4173838 6.11306014,9.4531313 8.5921101,9.4531313 C11.0711601,9.4531313 13.2243509,10.4173838 14.4989822,12.1015867 C15.4459541,13.3471566 15.7700129,14.8259238 15.4171489,16.263974 Z" id="Shape"></path>
                        </g>
                        <g id="leaf" transform="translate(29.700000, 148.300000) scale(-1, 1) translate(-29.700000, -148.300000) translate(9.700000, 128.800000)" fill="#000000" fill-rule="nonzero">
                            <path d="M2.68932736,38.6951952 C2.27484519,38.6951952 2.03924791,38.6821138 2.01350529,38.6803726 C1.64576211,38.6550333 1.33138453,38.4065041 1.22206926,38.0547079 C-0.603984963,32.6329031 -0.00282307215,26.6876288 2.87169701,21.7404842 C11.4056137,6.76914177 37.1897425,0.479902839 38.2830937,0.219561171 C38.5742709,0.1501588 38.8808772,0.231151751 39.099702,0.435275913 C39.3185267,0.639400075 39.4204642,0.939505096 39.3711998,1.23456865 C33.4061933,37.1007051 7.24686196,38.6951952 2.68932736,38.6951952 Z M2.75040913,36.9215483 C7.02434597,36.9969739 31.1531731,35.8721007 37.3686185,2.30800031 C31.9498452,3.81347449 11.5002923,10.2069983 4.42316146,22.6268746 C1.90681995,26.9540376 1.30102189,32.1309461 2.75040913,36.9215483 Z" id="Shape"></path>
                            <path d="M3.16308961,37.9951952 C2.80519115,37.9951952 2.48297664,37.7808492 2.34818913,37.453131 C2.21340162,37.1254128 2.29291359,36.749647 2.54927983,36.5027961 L21.0895283,18.6420072 C21.4375434,18.3068046 21.9945758,18.3139328 22.333695,18.6579285 C22.6728142,19.0019242 22.6656028,19.5525233 22.3175877,19.887726 L3.77688179,37.7485149 C3.61281115,37.9069453 3.39245668,37.9955045 3.16308961,37.9951952 L3.16308961,37.9951952 Z" id="Path"></path>
                        </g>
                        <g id="arc" transform="translate(9.800000, 11.900000)">
                            <mask id="mask-4" fill="white">
                                <use xlink:href="#path-3"></use>
                            </mask>
                            <g id="Rectangle"></g>
                            <rect id="Rectangle" stroke="#000000" stroke-width="1.4" mask="url(#mask-4)" x="2.1" y="2.1" width="72.1" height="95.2" rx="33.95"></rect>
                            <circle id="Oval" stroke="#000000" stroke-width="1.4" mask="url(#mask-4)" cx="37.1" cy="60.9" r="11.2"></circle>
                            <line x1="1.68082262" y1="46.4093166" x2="25.9" y2="57.1650717" id="Path-4" stroke="#000000" stroke-width="1.4" mask="url(#mask-4)"></line>
                            <line x1="3.74278844" y1="28.2557551" x2="29.8032188" y2="52.5" id="Path-4-Copy" stroke="#000000" stroke-width="1.4" mask="url(#mask-4)"></line>
                            <line x1="15.9010464" y1="9.48644002" x2="33.0970637" y2="49.7" id="Path-4-Copy-2" stroke="#000000" stroke-width="1.4" mask="url(#mask-4)"></line>
                            <line x1="37.1" y1="2.1" x2="37.1" y2="49.7" id="Path-4-Copy-3" stroke="#000000" stroke-width="1.4" mask="url(#mask-4)"></line>
                            <line x1="41.3" y1="8.07107015" x2="59.1506699" y2="50.01356" id="Path-4-Copy-2" stroke="#000000" stroke-width="1.4" mask="url(#mask-4)" transform="translate(50.225335, 29.042315) scale(1, -1) translate(-50.225335, -29.042315) "></line>
                            <line x1="45.3409094" y1="27.3" x2="72.9604303" y2="52.9147956" id="Path-4-Copy" stroke="#000000" stroke-width="1.4" mask="url(#mask-4)" transform="translate(59.150670, 40.107398) scale(1, -1) translate(-59.150670, -40.107398) "></line>
                            <line x1="47.3425207" y1="44.6714218" x2="74.2" y2="56.640398" id="Path-4" stroke="#000000" stroke-width="1.4" mask="url(#mask-4)" transform="translate(60.771260, 50.655910) scale(1, -1) translate(-60.771260, -50.655910) "></line>
                        </g>
                        <line x1="11.2153984" y1="72.1" x2="84.7" y2="72.1" id="Path-9" stroke="#000000" stroke-width="1.4"></line>
                        <path d="M37.0522079,130.154565 C51.0451061,138.399569 58.0415552,150.190301 58.0415552,165.52676 C58.0415552,166.424683 66.989707,162.86371 75.5632181,153.484364 C81.2788922,147.231466 84.324618,139.020502 84.7003956,128.851471 L37.4075674,128.851471 C37.0209672,128.85147 36.7075658,129.164871 36.7075658,129.551471 C36.7075658,129.799343 36.8386517,130.028732 37.0522079,130.154565 Z" id="Path-10" stroke="#000000" stroke-width="1.4"></path>
                    </g>
                </g>
            </g>
        </g>
    </g>
</svg>