<?xml version="1.0" encoding="UTF-8"?>
<svg width="164px" height="50px" viewBox="0 0 164 50" version="1.1" xmlns="http://www.w3.org/2000/svg" xmlns:xlink="http://www.w3.org/1999/xlink">
    <!-- Generator: Sketch 64 (93537) - https://sketch.com -->
    <title>Group 2</title>
    <desc>Created with Sketch.</desc>
    <g id="Page-1" stroke="none" stroke-width="1" fill="none" fill-rule="evenodd">
        <g id="A2-Copy-10" transform="translate(-761.000000, -970.000000)" fill="#000000" fill-rule="nonzero">
            <g id="Group" transform="translate(758.000000, 763.000000)">
                <g id="Group-2" transform="translate(0.800000, 205.100000)">
                    <path d="M6.72322219,51.1 L6.72322219,47.012 L9.61170219,47.01144 C9.75804885,47.0099467 9.86855552,47.0054667 9.94322219,46.998 C10.3538889,47.1286667 10.6992222,47.3853333 10.9792222,47.768 C11.2592222,48.1506667 11.5345555,48.7013333 11.8052222,49.42 C11.9638889,49.8493333 12.1085555,50.1923333 12.2392222,50.449 C12.3698889,50.7056667 12.5145555,50.9226667 12.6732222,51.1 L12.6732222,51.1 L13.9332222,51.1 L13.9332222,51.016 C13.7372222,50.8666667 13.5505555,50.6356667 13.3732222,50.323 C13.1958889,50.0103333 13.0045555,49.5973333 12.7992222,49.084 C12.5658889,48.4773333 12.3162222,47.999 12.0502222,47.649 C11.7842222,47.299 11.4692222,47.0353333 11.1052222,46.858 C11.9078889,46.69 12.5215555,46.3796667 12.9462222,45.927 C13.3708889,45.4743333 13.5832222,44.884 13.5832222,44.156 C13.5832222,43.2133333 13.2285555,42.5016667 12.5192222,42.021 C11.8098889,41.5403333 10.8018889,41.3 9.49522219,41.3 L9.49522219,41.3 L5.57522219,41.3 L5.57522219,51.1 L6.72322219,51.1 Z M9.52322219,46.41 L6.72322219,46.41 L6.72322219,41.902 L9.52322219,41.902 C10.4565555,41.902 11.1752222,42.091 11.6792222,42.469 C12.1832222,42.847 12.4352222,43.4093333 12.4352222,44.156 C12.4352222,44.9026667 12.1832222,45.465 11.6792222,45.843 C11.1752222,46.221 10.4565555,46.41 9.52322219,46.41 L9.52322219,46.41 Z M23.8374444,51.1 L23.8374444,50.498 L16.9354444,50.498 L16.9354444,46.13 L23.0254444,46.13 L23.0254444,45.542 L16.9354444,45.542 L16.9354444,41.902 L23.8374444,41.902 L23.8374444,41.3 L15.7874444,41.3 L15.7874444,51.1 L23.8374444,51.1 Z M30.2416666,51.24 C31.567,51.24 32.61,50.9973333 33.3706666,50.512 C34.1313333,50.0266667 34.5116666,49.35 34.5116666,48.482 C34.5116666,47.922 34.367,47.4553333 34.0776666,47.082 C33.7883333,46.7086667 33.3426666,46.3983333 32.7406666,46.151 C32.1386666,45.9036667 31.3336666,45.682 30.3256666,45.486 C29.4856666,45.318 28.8346666,45.1453333 28.3726666,44.968 C27.9106666,44.7906667 27.5816666,44.5853333 27.3856666,44.352 C27.1896666,44.1186667 27.0916666,43.834 27.0916666,43.498 C27.0916666,42.9473333 27.3413333,42.5203333 27.8406666,42.217 C28.34,41.9136667 29.0563333,41.762 29.9896666,41.762 C30.9323333,41.762 31.6673333,41.9206667 32.1946666,42.238 C32.722,42.5553333 33.0556666,43.0546667 33.1956666,43.736 L33.1956666,43.736 L34.2456666,43.736 C34.115,42.9146667 33.695,42.28 32.9856666,41.832 C32.2763333,41.384 31.3103333,41.16 30.0876666,41.16 C28.837,41.16 27.8336666,41.3793333 27.0776666,41.818 C26.3216666,42.2566667 25.9436666,42.8773333 25.9436666,43.68 C25.9436666,44.1746667 26.0883333,44.59 26.3776666,44.926 C26.667,45.262 27.101,45.542 27.6796666,45.766 C28.2583333,45.99 29.0096666,46.1906667 29.9336666,46.368 C30.811,46.536 31.497,46.7203333 31.9916666,46.921 C32.4863333,47.1216667 32.8386666,47.355 33.0486666,47.621 C33.2586666,47.887 33.3636666,48.216 33.3636666,48.608 C33.3636666,49.252 33.0906666,49.7513333 32.5446666,50.106 C31.9986666,50.4606667 31.2216666,50.638 30.2136666,50.638 C29.1123333,50.638 28.277,50.4326667 27.7076666,50.022 C27.1383333,49.6113333 26.8163333,48.972 26.7416666,48.104 L26.7416666,48.104 L25.6916666,48.104 C25.785,49.1213333 26.2236666,49.8983333 27.0076666,50.435 C27.7916666,50.9716667 28.8696666,51.24 30.2416666,51.24 Z M41.4198889,51.1 L41.4198889,41.902 L45.5778889,41.902 L45.5778889,41.3 L36.0998889,41.3 L36.0998889,41.902 L40.2718889,41.902 L40.2718889,51.1 L41.4198889,51.1 Z M45.8081111,51.1 L47.1101111,48.524 L52.9621111,48.524 L54.1661111,51.1 L55.4541111,51.1 L50.6521111,41.16 L50.1481111,41.16 L45.0521111,51.1 L45.8081111,51.1 Z M52.6821111,47.922 L47.4181111,47.922 L50.1481111,42.504 L52.6821111,47.922 Z M60.8643333,51.24 C62.4043333,51.24 63.5336667,50.883 64.2523333,50.169 C64.971,49.455 65.3303333,48.4073333 65.3303333,47.026 L65.3303333,47.026 L65.3303333,41.3 L64.1823333,41.3 L64.1823333,47.348 C64.1823333,48.4493333 63.914,49.273 63.3773333,49.819 C62.8406667,50.365 62.003,50.638 60.8643333,50.638 C59.707,50.638 58.8623333,50.3626667 58.3303333,49.812 C57.7983333,49.2613333 57.5323333,48.44 57.5323333,47.348 L57.5323333,47.348 L57.5323333,41.3 L56.3843333,41.3 L56.3843333,47.026 C56.3843333,48.4166667 56.7436667,49.4666667 57.4623333,50.176 C58.181,50.8853333 59.315,51.24 60.8643333,51.24 Z M69.2005555,51.1 L69.2005555,47.012 L72.0890355,47.01144 C72.2353822,47.0099467 72.3458889,47.0054667 72.4205555,46.998 C72.8312222,47.1286667 73.1765555,47.3853333 73.4565555,47.768 C73.7365555,48.1506667 74.0118889,48.7013333 74.2825555,49.42 C74.4412222,49.8493333 74.5858889,50.1923333 74.7165555,50.449 C74.8472222,50.7056667 74.9918889,50.9226667 75.1505555,51.1 L75.1505555,51.1 L76.4105555,51.1 L76.4105555,51.016 C76.2145555,50.8666667 76.0278889,50.6356667 75.8505555,50.323 C75.6732222,50.0103333 75.4818889,49.5973333 75.2765555,49.084 C75.0432222,48.4773333 74.7935555,47.999 74.5275555,47.649 C74.2615555,47.299 73.9465555,47.0353333 73.5825555,46.858 C74.3852222,46.69 74.9988889,46.3796667 75.4235555,45.927 C75.8482222,45.4743333 76.0605555,44.884 76.0605555,44.156 C76.0605555,43.2133333 75.7058889,42.5016667 74.9965555,42.021 C74.2872222,41.5403333 73.2792222,41.3 71.9725555,41.3 L71.9725555,41.3 L68.0525555,41.3 L68.0525555,51.1 L69.2005555,51.1 Z M72.0005555,46.41 L69.2005555,46.41 L69.2005555,41.902 L72.0005555,41.902 C72.9338889,41.902 73.6525555,42.091 74.1565555,42.469 C74.6605555,42.847 74.9125555,43.4093333 74.9125555,44.156 C74.9125555,44.9026667 74.6605555,45.465 74.1565555,45.843 C73.6525555,46.221 72.9338889,46.41 72.0005555,46.41 L72.0005555,46.41 Z M78.0827778,51.1 L79.3847778,48.524 L85.2367778,48.524 L86.4407778,51.1 L87.7287778,51.1 L82.9267778,41.16 L82.4227778,41.16 L77.3267778,51.1 L78.0827778,51.1 Z M84.9567778,47.922 L79.6927778,47.922 L82.4227778,42.504 L84.9567778,47.922 Z M90.395,51.1 L90.395,42.224 L97.423,51.1 L97.857,51.1 L97.857,41.3 L96.961,41.3 L96.961,49.224 L90.675,41.3 L89.499,41.3 L89.499,51.1 L90.395,51.1 Z M104.989222,51.1 L104.989222,41.902 L109.147222,41.902 L109.147222,41.3 L99.6692222,41.3 L99.6692222,41.902 L103.841222,41.902 L103.841222,51.1 L104.989222,51.1 Z M118.399667,51.24 C119.043667,51.24 119.648,51.1443333 120.212667,50.953 C120.777333,50.7616667 121.274333,50.4886667 121.703667,50.134 C122.067667,50.442 122.478333,50.764 122.935667,51.1 L122.935667,51.1 L124.419667,51.1 C123.822333,50.7173333 123.127,50.1853333 122.333667,49.504 C122.641667,49.1306667 122.879667,48.7106667 123.047667,48.244 C123.215667,47.7773333 123.299667,47.2826667 123.299667,46.76 C123.299667,46.6666667 123.290333,46.4893333 123.271667,46.228 L123.271667,46.228 L122.249667,46.228 C122.352333,46.592 122.403667,46.9466667 122.403667,47.292 C122.403667,47.9733333 122.231,48.58 121.885667,49.112 C120.635,47.9826667 119.482333,46.7786667 118.427667,45.5 C118.941,45.2573333 119.368,45.0286667 119.708667,44.814 C120.049333,44.5993333 120.331667,44.331 120.555667,44.009 C120.779667,43.687 120.891667,43.3113333 120.891667,42.882 C120.891667,42.3406667 120.691,41.9183333 120.289667,41.615 C119.888333,41.3116667 119.337667,41.16 118.637667,41.16 C117.900333,41.16 117.324,41.356 116.908667,41.748 C116.493333,42.14 116.285667,42.6673333 116.285667,43.33 C116.285667,43.7313333 116.374333,44.1023333 116.551667,44.443 C116.729,44.7836667 116.981,45.1593333 117.307667,45.57 C116.477,45.9246667 115.858667,46.354 115.452667,46.858 C115.046667,47.362 114.843667,47.95 114.843667,48.622 C114.843667,49.4433333 115.158667,50.085 115.788667,50.547 C116.418667,51.009 117.289,51.24 118.399667,51.24 Z M118.105667,45.15 C117.769667,44.73 117.529333,44.366 117.384667,44.058 C117.24,43.75 117.167667,43.442 117.167667,43.134 C117.167667,42.6673333 117.286667,42.301 117.524667,42.035 C117.762667,41.769 118.096333,41.636 118.525667,41.636 C118.927,41.636 119.239667,41.755 119.463667,41.993 C119.687667,42.231 119.799667,42.56 119.799667,42.98 C119.799667,43.3813333 119.648,43.778 119.344667,44.17 C119.041333,44.562 118.628333,44.8886667 118.105667,45.15 Z M118.455667,50.708 C117.681,50.708 117.079,50.5143333 116.649667,50.127 C116.220333,49.7396667 116.005667,49.2006667 116.005667,48.51 C116.005667,47.3806667 116.533,46.5266667 117.587667,45.948 C118.735667,47.348 119.972333,48.622 121.297667,49.77 C120.943,50.078 120.525333,50.3113333 120.044667,50.47 C119.564,50.6286667 119.034333,50.708 118.455667,50.708 Z M135.254111,51.1 C136.542111,51.1 137.524444,50.876 138.201111,50.428 C138.877778,49.98 139.216111,49.3313333 139.216111,48.482 C139.216111,47.698 138.938444,47.1123333 138.383111,46.725 C137.827778,46.3376667 136.971444,46.0926667 135.814111,45.99 C136.654111,45.8966667 137.333111,45.6283333 137.851111,45.185 C138.369111,44.7416667 138.628111,44.2073333 138.628111,43.582 C138.628111,42.8726667 138.296778,42.315 137.634111,41.909 C136.971444,41.503 136.066111,41.3 134.918111,41.3 L134.918111,41.3 L130.480111,41.3 L130.480111,51.1 L135.254111,51.1 Z M134.386111,45.71 L131.628111,45.71 L131.628111,41.902 L134.428111,41.902 C135.464111,41.902 136.231778,42.0466667 136.731111,42.336 C137.230444,42.6253333 137.480111,43.0686667 137.480111,43.666 C137.480111,44.3286667 137.214111,44.835 136.682111,45.185 C136.150111,45.535 135.384778,45.71 134.386111,45.71 L134.386111,45.71 Z M135.394111,50.498 L131.628111,50.498 L131.628111,46.312 L134.302111,46.312 C136.812778,46.312 138.068111,47.012 138.068111,48.412 C138.068111,49.0653333 137.832444,49.5763333 137.361111,49.945 C136.889778,50.3136667 136.234111,50.498 135.394111,50.498 L135.394111,50.498 Z M141.196333,51.1 L142.498333,48.524 L148.350333,48.524 L149.554333,51.1 L150.842333,51.1 L146.040333,41.16 L145.536333,41.16 L140.440333,51.1 L141.196333,51.1 Z M148.070333,47.922 L142.806333,47.922 L145.536333,42.504 L148.070333,47.922 Z M153.760556,51.1 L153.760556,47.012 L156.649036,47.01144 C156.795382,47.0099467 156.905889,47.0054667 156.980556,46.998 C157.391222,47.1286667 157.736556,47.3853333 158.016556,47.768 C158.296556,48.1506667 158.571889,48.7013333 158.842556,49.42 C159.001222,49.8493333 159.145889,50.1923333 159.276556,50.449 C159.407222,50.7056667 159.551889,50.9226667 159.710556,51.1 L159.710556,51.1 L160.970556,51.1 L160.970556,51.016 C160.774556,50.8666667 160.587889,50.6356667 160.410556,50.323 C160.233222,50.0103333 160.041889,49.5973333 159.836556,49.084 C159.603222,48.4773333 159.353556,47.999 159.087556,47.649 C158.821556,47.299 158.506556,47.0353333 158.142556,46.858 C158.945222,46.69 159.558889,46.3796667 159.983556,45.927 C160.408222,45.4743333 160.620556,44.884 160.620556,44.156 C160.620556,43.2133333 160.265889,42.5016667 159.556556,42.021 C158.847222,41.5403333 157.839222,41.3 156.532556,41.3 L156.532556,41.3 L152.612556,41.3 L152.612556,51.1 L153.760556,51.1 Z M156.560556,46.41 L153.760556,46.41 L153.760556,41.902 L156.560556,41.902 C157.493889,41.902 158.212556,42.091 158.716556,42.469 C159.220556,42.847 159.472556,43.4093333 159.472556,44.156 C159.472556,44.9026667 159.220556,45.465 158.716556,45.843 C158.212556,46.221 157.493889,46.41 156.560556,46.41 L156.560556,46.41 Z" id="RESTAURANT&amp;BAR"></path>
                    <path d="M10.72835,30 L10.72835,10.8935 L21.59865,30 L26.23615,30 L37.10645,10.8935 L37.10645,30 L45.63945,30 L45.63945,2.3976 L33.80455,2.3976 L24.23275,19.5749 L14.69805,2.3976 L2.41795,2.3976 L2.41795,30 L10.72835,30 Z M72.20305,30 L85.55905,2.3976 L76.58085,2.3976 L67.04615,22.6913 L56.88075,2.3976 L47.08635,2.3976 L61.44405,30 L72.20305,30 Z M95.31635,30 L95.31635,10.8935 L106.18665,30 L110.82415,30 L121.69445,10.8935 L121.69445,30 L130.22745,30 L130.22745,2.3976 L118.39255,2.3976 L108.82075,19.5749 L99.28605,2.3976 L87.00595,2.3976 L87.00595,30 L95.31635,30 Z M153.74885,30 L153.74885,8.9272 L165.65795,8.9272 L165.65795,2.3976 L133.15835,2.3976 L133.15835,8.9272 L145.03035,8.9272 L145.03035,30 L153.74885,30 Z" id="MVMT"></path>
                </g>
            </g>
        </g>
    </g>
</svg>